<?xml version="1.0" encoding="UTF-8" standalone="no"?>
<!-- Creator: CorelDRAW X6 -->

<svg
   xmlns:dc="http://purl.org/dc/elements/1.1/"
   xmlns:cc="http://creativecommons.org/ns#"
   xmlns:rdf="http://www.w3.org/1999/02/22-rdf-syntax-ns#"
   xmlns:svg="http://www.w3.org/2000/svg"
   xmlns="http://www.w3.org/2000/svg"
   xmlns:sodipodi="http://sodipodi.sourceforge.net/DTD/sodipodi-0.dtd"
   xmlns:inkscape="http://www.inkscape.org/namespaces/inkscape"
   xml:space="preserve"
   width="316"
   height="316"
   version="1.1"
   style="fill-rule:evenodd"
   viewBox="0 0 21000 20999.875"
   id="svg3107"
   inkscape:version="0.48.2 r9819"
   sodipodi:docname="China University Of Petroleum (East) badge.svg"><metadata
   id="metadata3227"><rdf:RDF><cc:Work
       rdf:about=""><dc:format>image/svg+xml</dc:format><dc:type
         rdf:resource="http://purl.org/dc/dcmitype/StillImage" /><dc:title></dc:title></cc:Work></rdf:RDF></metadata><sodipodi:namedview
   pagecolor="#ffffff"
   bordercolor="#666666"
   borderopacity="1"
   objecttolerance="10"
   gridtolerance="10"
   guidetolerance="10"
   inkscape:pageopacity="0"
   inkscape:pageshadow="2"
   inkscape:window-width="1366"
   inkscape:window-height="706"
   id="namedview3225"
   showgrid="false"
   inkscape:zoom="1"
   inkscape:cx="372.04724"
   inkscape:cy="143.32395"
   inkscape:window-x="-8"
   inkscape:window-y="-8"
   inkscape:window-maximized="1"
   inkscape:current-layer="svg3107" />
 <defs
   id="defs3109">
  <style
   type="text/css"
   id="style3111">
   
    .fil0 {fill:#274563}
    .fil1 {fill:#E62129}
   
  </style>
 
  
  
  
  
  
  
  
  
  
  
  
  
  
  
  
  
  
  
  
  
  
  
  
  
  
  
  
  
  
  
  
  
  
  
  
  
  
  
  
  
  
  
  
  
  
  
  
  
  
  
  
  
  
  
  
  
 </defs>
 <path
   style="fill:#274563"
   inkscape:connector-curvature="0"
   id="path3115"
   d="m 15955.434,1913.0194 c -20.408,-12.2453 -34.014,-27.2117 -46.26,-34.0147 -36.735,-23.13 -77.553,-35.3752 -115.649,-57.1446 -35.376,-20.4087 -69.39,-48.981 -103.405,-69.3899 -38.096,-23.1299 -76.193,-35.3751 -115.65,-57.1446 -4.082,-2.7211 -6.803,-19.0482 -10.885,-23.1299 -8.162,-6.803 -27.211,-6.803 -34.014,-10.8848 -55.784,-32.654 -106.126,-62.5869 -161.909,-92.5198 -297.969,-159.1886 -614.985,-307.4925 -921.117,-438.1087 -118.372,-50.3417 -247.627,-96.6016 -356.475,-138.77983 -130.616,-48.98113 -250.347,-95.24103 -379.603,-138.7798 -678.932,-228.57848 -1424.534,-386.40649 -2246.327,-461.23871 -420.422,-38.09641 -858.53,-68.02931 -1312.966,-46.25993 -1729.3046,81.63513 -3142.9536,530.62859 -4319.8606,1152.41657 -401.3729,212.2514 -785.0582,435.3875 -1140.1712,691.1777 -715.6683,514.3015 -1355.1438,1085.7477 -1911.6235,1738.8291 -210.8909,247.6267 -406.8152,510.2198 -587.7732,771.4523 -17.6876,25.8511 -46.26,68.0293 -57.1446,80.2746 -9.5241,9.5241 -13.6059,24.4906 -23.13,34.0147 -9.5241,9.5241 -13.6059,24.4905 -23.13,34.0146 -9.5241,9.5241 -13.6058,24.4905 -23.1299,34.0146 -9.5241,9.5241 -13.6059,24.4906 -23.13,34.0147 -9.5241,9.5241 -13.6058,24.4905 -23.1299,34.0146 -25.8512,25.8512 -40.8177,53.0629 -57.1446,80.2746 -28.5724,44.8994 -51.7023,88.4382 -69.39,126.5346 -1.3605,4.0817 -20.4087,6.8028 -23.1299,10.8846 -16.327,27.2118 -32.6541,77.5534 -46.2599,92.5199 -17.6876,19.0482 -24.4906,39.457 -34.0147,57.1446 -43.5388,76.1928 -85.7169,144.2222 -126.5345,219.0544 -127.8951,228.5785 -269.3961,481.6475 -368.7189,714.3077 -5.4423,13.6059 -4.0817,28.5723 -10.8846,46.2599 -24.4906,51.7023 -58.5052,97.9623 -80.2747,149.6645 -31.2934,73.4716 -55.784,148.3038 -80.2745,206.8091 -5.4424,13.6058 -19.0482,23.1299 -23.13,34.0146 -12.2452,31.2935 -12.2452,63.9476 -23.1299,92.5199 -42.1782,107.4863 -88.43811,213.6121 -126.53452,322.4589 -281.64135,794.5823 -481.64753,1668.0786 -552.39801,2649.0612 -65.30814,895.2649 -17.68762,1733.3869 126.53451,2545.6569 363.27652,2047.681 1268.06632,3638.206 2385.10752,4930.763 794.5823,899.347 1737.4685,1649.031 2834.1009,2246.328 972.8191,508.859 2064.0092,908.871 3352.4843,1093.911 1404.1244,202.728 2846.3454,73.472 4008.2864,-229.939 223.136,-58.505 438.109,-115.65 644.918,-185.039 140.141,-46.26 270.757,-99.323 402.733,-149.665 137.419,-51.702 266.676,-107.487 391.849,-161.91 13.606,-5.443 32.654,-17.687 46.26,-23.13 16.328,-6.803 39.457,-2.721 57.145,-10.885 29.932,-13.606 61.226,-43.538 92.52,-57.144 14.965,-6.803 42.178,-5.443 57.145,-10.885 16.326,-6.802 34.014,-16.327 46.259,-23.13 308.853,-146.943 620.428,-323.819 897.987,-484.369 48.981,-28.572 93.881,-58.505 126.534,-80.274 13.606,-8.164 34.015,-14.967 46.26,-23.13 25.852,-16.327 53.063,-39.457 80.274,-57.144 28.573,-17.688 62.588,-27.212 92.521,-46.261 28.572,-17.687 51.702,-50.341 80.275,-69.389 10.885,-6.803 34.014,-14.967 46.259,-23.131 36.736,-23.129 54.424,-38.096 80.275,-57.144 34.014,-24.491 54.423,-39.458 80.274,-57.144 32.655,-21.77 55.784,-40.818 80.275,-57.145 32.654,-21.77 57.145,-39.457 80.275,-57.145 13.606,-10.885 32.653,-12.246 46.259,-23.13 23.131,-17.688 44.9,-51.702 69.391,-69.39 13.605,-10.885 32.654,-12.245 46.26,-23.129 43.538,-31.295 76.192,-61.227 115.649,-92.52 25.852,-20.409 54.424,-35.376 80.275,-57.145 23.13,-19.049 44.9,-50.342 69.39,-69.39 27.212,-21.769 53.063,-35.375 80.274,-57.145 53.063,-44.899 102.044,-87.078 149.664,-126.534 24.492,-20.409 43.539,-47.621 69.391,-69.39 27.211,-24.491 58.505,-38.097 80.274,-57.144 25.852,-23.131 43.539,-57.145 69.39,-80.276 48.982,-44.899 102.045,-78.913 149.665,-126.534 l 138.78,-138.78 c 92.52,-92.519 189.121,-179.597 276.199,-276.198 10.884,-12.246 13.606,-35.375 23.129,-46.26 12.246,-14.967 23.13,-23.131 34.015,-34.015 114.289,-122.453 220.415,-246.266 322.459,-368.719 20.408,-24.49 48.981,-44.9 69.389,-69.39 12.246,-16.327 12.246,-32.654 23.131,-46.26 4.082,-5.442 19.048,-6.803 23.129,-10.884 8.164,-9.525 4.082,-24.492 10.885,-34.015 20.409,-27.212 47.621,-40.817 69.391,-69.39 19.047,-24.49 36.735,-54.424 57.144,-80.274 289.804,-374.161 534.71,-757.847 771.452,-1175.548 435.388,-764.648 794.583,-1629.981 1025.882,-2581.031 24.491,-100.683 54.424,-193.203 69.39,-276.198 20.409,-119.732 39.457,-238.103 57.145,-356.474 2.721,-19.048 19.048,-36.736 23.13,-57.144 13.605,-77.553 21.769,-159.189 34.014,-242.185 36.736,-242.184 61.227,-496.614 80.275,-748.322 112.929,-1483.0388 -123.813,-2843.625 -484.369,-3917.1276 -59.865,-176.8762 -126.534,-351.0312 -185.04,-507.4986 -36.735,-97.9622 -76.192,-187.7609 -103.404,-276.1989 -1.361,-4.0818 -20.409,-17.6876 -23.13,-23.13 -28.572,-65.3081 -53.063,-133.3374 -80.274,-195.9244 -28.573,-63.9476 -62.587,-122.4527 -92.52,-183.6791 -29.934,-62.587 -48.981,-133.3374 -80.275,-195.9244 -31.293,-59.8659 -70.75,-112.9288 -103.405,-172.7945 -32.654,-59.8657 -58.504,-125.174 -92.52,-183.6791 -50.342,-89.7987 -100.683,-183.6792 -149.663,-265.3144 -35.376,-58.5051 -69.391,-117.0103 -103.405,-172.7943 -19.049,-32.6541 -38.097,-62.587 -57.145,-92.5199 -291.165,-447.6329 -609.542,-866.6934 -956.492,-1266.7057 -50.342,-54.4234 -100.684,-107.4863 -149.665,-161.9098 -42.178,-65.3081 -115.649,-99.3228 -149.664,-172.7944 -572.807,-571.4461 -1208.2,-1108.8777 -1900.739,-1544.2653 z M 10091.308,69.425144 l 874.857,0 c 749.683,42.178176 1443.582,142.861546 2073.534,299.328946 1251.738,312.93482 2332.045,817.71231 3283.094,1451.74551 93.881,62.5869 195.924,117.0103 276.199,195.9244 77.553,31.2934 138.78,96.6015 206.808,149.6644 9.525,6.803 24.492,4.0818 34.016,10.8847 9.523,6.8029 13.605,27.2117 23.129,34.0147 10.885,8.1635 24.491,4.0817 34.015,10.8846 14.966,10.8847 31.294,34.0147 46.26,46.26 72.111,55.784 142.861,111.568 219.055,172.7944 55.784,44.8994 102.044,88.4381 161.909,138.7798 8.163,6.803 16.327,17.6877 23.13,23.1299 8.164,5.4424 25.851,4.0819 34.015,10.8848 17.688,16.327 25.851,39.457 46.259,57.1446 14.967,13.6058 42.178,20.4088 57.145,34.0146 35.375,32.6541 68.03,70.7505 103.405,103.4046 160.55,148.3039 338.786,314.2954 495.254,484.3686 46.26,50.3417 102.043,93.8805 149.663,149.6645 14.967,17.6876 19.049,40.8176 34.016,57.1446 63.947,72.1111 134.698,136.0586 195.924,206.8091 91.159,106.1257 176.876,209.5302 265.314,322.459 772.813,985.0643 1405.485,2129.3172 1820.465,3502.1487 247.627,819.0728 400.011,1718.4203 438.109,2718.4514 l 0,541.513 c -57.145,1604.13 -423.144,2966.077 -967.378,4136.181 -540.153,1161.94 -1258.542,2156.529 -2096.663,2994.65 -839.481,839.482 -1832.71,1553.789 -2994.65,2096.664 -1166.023,544.234 -2525.248,907.511 -4123.937,967.376 l -552.397,0 c -1583.7225,-61.226 -2941.5875,-414.979 -4100.8068,-956.492 -756.486,-352.392 -1432.6972,-772.813 -2062.6486,-1255.821 -24.4906,-19.048 -39.4571,-39.457 -69.3899,-57.145 -6.803,-4.081 -16.3271,-6.803 -23.13,-10.885 -57.1447,-46.259 -104.7652,-103.404 -161.9098,-149.664 -9.5241,-8.163 -25.8511,-2.721 -34.0145,-10.884 -24.4906,-23.131 -65.3083,-59.866 -103.4047,-92.52 -115.6497,-96.601 -250.3478,-221.776 -368.7188,-334.704 -106.1257,-100.684 -216.3332,-194.564 -322.4588,-311.575 -25.8512,-28.572 -42.1783,-63.948 -69.39,-92.52 -24.4906,-25.85 -57.1446,-43.538 -80.2746,-69.39 -51.7022,-55.783 -96.6016,-114.289 -149.6645,-172.794 -38.0964,-42.178 -73.4716,-80.274 -115.6497,-126.534 -40.8177,-44.9 -89.7987,-115.65 -138.7798,-172.795 -13.6059,-16.327 -21.7694,-29.933 -34.0147,-46.26 -24.4906,-29.933 -58.5052,-51.703 -80.2746,-80.274 -8.1635,-9.525 -2.7211,-25.851 -10.8847,-34.015 -4.0817,-5.442 -19.0482,-6.803 -23.1299,-10.885 -23.13,-29.932 -54.4234,-76.192 -80.2746,-115.65 -6.803,-10.884 -21.7694,-27.211 -34.0147,-46.26 -6.8029,-10.884 -21.7693,-27.211 -34.0147,-46.26 -6.8028,-10.884 -21.7693,-27.211 -34.0146,-46.26 -6.8029,-10.884 -21.7694,-27.211 -34.0146,-46.26 -17.6877,-25.85 -55.7841,-68.028 -80.2747,-103.403 C 972.66033,15137.916 198.48679,13313.37 71.952279,10963.639 l 0,-874.857 c 9.524103,-2.722 13.605857,-9.525 10.884688,-23.131 C 127.73631,8796.2247 410.73823,7657.414 784.8994,6713.1673 c 10.88471,-25.8512 14.96646,-54.4235 23.12995,-80.2746 1.36061,-4.0818 20.40882,-17.6876 23.12995,-23.13 4.08184,-9.5241 -2.72113,-24.4906 0,-34.0147 1.36061,-4.0817 20.40882,-17.6876 23.13005,-23.1299 4.08174,-9.5241 -2.72123,-24.4906 0,-34.0147 1.36051,-4.0817 20.40872,-17.6876 23.12995,-23.1299 48.98103,-115.6498 89.79867,-228.5785 138.7798,-334.7042 16.327,-35.3752 40.8176,-66.6687 57.1446,-103.4046 35.3752,-73.4716 55.784,-148.3038 92.5198,-219.0543 35.3753,-69.3899 78.9141,-126.5345 115.6499,-195.9244 35.3752,-68.0293 65.3081,-138.7798 103.4045,-206.8091 187.7609,-337.4254 393.2094,-648.9996 610.9032,-956.4921 699.3413,-987.7854 1525.217,-1801.416 2499.3967,-2499.3967 485.7292,-348.31 1012.2761,-647.639 1578.28,-921.1168 C 7209.5872,508.89444 8545.6827,153.78149 10094.029,68.064559 z"
   class="fil0" /><path
   style="fill:#274563"
   inkscape:connector-curvature="0"
   id="path3117"
   d="m 9747.0803,19007.423 c -44.8994,96.602 -217.6937,9.524 -288.4443,34.014 25.8512,13.606 51.7024,35.375 69.3899,57.145 19.0482,23.13 42.1782,55.784 46.2599,92.52 -40.8175,69.39 -110.2074,149.665 -206.809,126.534 -31.2935,23.131 -24.4906,82.997 -69.3899,92.52 -28.5724,-85.717 -78.914,-152.385 -69.3899,-276.199 -39.457,-53.063 -72.1111,-111.567 -161.9097,-115.649 16.3269,76.192 77.5534,106.125 115.6497,161.909 35.3753,72.112 55.7841,159.189 69.39,253.069 14.9664,23.13 47.6205,28.572 57.1446,57.145 12.2452,21.769 14.9664,54.424 23.1299,80.274 28.5723,-1.36 36.7358,17.688 46.2599,34.015 76.1928,-51.703 161.9098,10.885 242.1843,-10.884 16.3271,-25.852 28.5724,-55.784 23.1301,-103.405 51.7023,-108.847 175.5156,-146.943 311.574,-172.795 54.4232,-198.645 -99.3226,-242.184 -206.8089,-311.574 z m 1198.6757,57.145 c 31.294,122.452 34.015,273.477 57.145,402.733 61.226,89.798 97.962,201.367 219.055,229.939 28.572,-28.572 17.687,-72.111 10.884,-103.404 -10.884,-59.866 -74.832,-126.535 -57.144,-206.81 -17.688,-1.36 -42.179,4.082 -46.26,-10.884 25.851,-25.851 -10.885,-47.621 0,-92.52 -72.112,-66.669 -123.814,-152.386 -149.665,-265.314 6.803,-24.491 28.572,-74.833 -10.885,-80.275 -9.524,39.456 -6.803,73.472 -23.13,126.535 z m 3421.875,-507.5 c -44.899,-17.686 -93.88,-44.899 -149.665,-46.259 -28.573,9.524 -61.226,14.966 -103.404,10.884 0,103.405 51.702,155.108 57.144,253.07 48.982,28.572 112.928,54.423 183.679,46.26 44.9,-5.443 81.635,-36.736 115.65,-46.26 20.409,-42.178 28.573,-93.881 23.13,-161.91 -32.654,-34.015 -81.635,-40.818 -126.534,-57.145 z m -3317.11,138.78 c 80.275,-14.966 102.044,28.573 172.795,23.131 27.212,-111.569 -65.308,-191.843 -103.404,-276.199 -14.967,0 -16.328,-14.967 -34.016,-12.246 -1.36,69.391 1.361,197.285 -34.014,265.314 z m -3721.2023,-334.704 c -2.7212,-2.721 -17.6875,5.442 -10.8847,10.885 2.7213,2.721 17.6876,-5.443 10.8847,-10.885 z m -748.3224,-34.014 c -2.7211,-2.722 -17.6875,5.442 -10.8847,10.885 2.7213,2.721 17.6877,-5.443 10.8847,-10.885 z m 897.9869,-46.26 c 1.3606,-12.246 -9.5241,-29.933 -10.8847,-10.885 -1.3606,12.245 9.5242,29.933 10.8847,10.885 z m -10.8847,-57.145 c 0,-6.803 -9.5241,-13.605 -10.8847,0 0,6.803 9.5241,13.606 10.8847,0 z m 8201.6125,-34.014 c -2.721,-2.722 -17.687,5.442 -12.244,12.245 2.72,2.721 17.687,-5.442 12.244,-12.245 z m -3881.752,402.733 c -42.178,27.212 -84.357,54.423 -138.779,69.39 -59.866,78.913 -140.141,136.058 -206.81,206.809 -42.178,20.408 -84.356,57.145 -115.65,92.52 -32.654,36.736 -76.192,77.553 -69.389,149.665 -4.082,57.143 72.11,35.375 80.274,80.274 19.049,62.587 70.751,89.799 103.405,138.78 55.784,27.211 115.65,63.948 183.679,103.404 42.178,24.49 96.601,63.948 126.534,80.275 54.423,29.933 93.88,16.327 149.664,0 16.328,-21.769 25.852,-51.703 69.391,-46.26 136.058,9.524 231.299,-21.769 322.458,-57.145 8.164,-104.764 -59.866,-131.977 -80.274,-206.809 55.784,-89.798 148.304,-144.222 161.909,-276.198 54.424,-42.179 103.405,-88.439 115.651,-172.795 -20.41,-59.866 -74.832,-85.717 -115.651,-126.535 -129.255,-32.653 -302.049,-20.409 -438.108,-46.259 -29.933,-155.108 -44.899,-323.82 -126.535,-425.864 -32.654,-1.36 -74.832,6.803 -92.52,-12.245 21.77,151.025 48.982,296.608 69.391,448.993 z M 9518.5018,18350.26 c -122.4527,126.534 -270.7566,234.021 -402.7334,334.704 -50.3418,38.096 -96.6017,80.275 -138.7798,115.65 -137.4192,114.289 -295.2472,216.333 -448.9935,299.329 -54.4235,28.572 -118.371,43.538 -161.9097,92.52 -38.0964,6.803 -84.3563,8.163 -103.4046,34.014 62.587,19.049 104.7652,55.784 195.9245,46.26 54.4234,-40.818 117.0103,-63.947 172.7943,-92.52 66.6688,-34.014 129.2557,-78.914 183.6792,-103.405 4.0818,-1.36 8.1635,-20.408 10.8846,-23.129 46.26,-35.375 76.1929,-59.866 115.6499,-92.52 55.784,-46.26 115.6498,-100.683 172.7945,-126.535 4.0817,-1.36 6.8028,-20.408 10.8847,-23.13 55.784,-39.456 115.6497,-84.356 161.9096,-115.65 14.9665,-9.523 32.6542,-13.605 46.26,-23.129 137.4192,-93.881 258.5113,-191.843 391.8488,-288.445 65.3082,4.082 102.044,-20.409 172.7944,-10.885 28.5726,-95.241 -27.2116,-191.842 -92.5198,-229.938 -77.5534,25.85 -176.8762,76.192 -276.1989,69.39 -73.4717,-5.442 -127.8952,-46.26 -183.6792,-69.39 8.1635,118.371 106.1257,148.304 172.7944,206.809 z m 3778.3472,-621.788 c 16.328,23.13 23.131,62.586 34.014,92.52 12.246,29.932 27.213,62.586 34.016,92.52 39.457,14.966 66.668,42.178 80.274,80.274 4.082,23.13 -14.967,23.13 -23.13,34.014 34.015,48.981 36.736,171.435 80.275,242.185 2.721,182.319 -82.996,277.56 -242.184,299.329 21.768,65.309 123.812,76.192 195.924,57.145 8.164,14.967 24.49,21.769 46.26,23.129 -8.164,65.309 51.702,63.948 57.145,115.651 -17.688,17.688 -19.049,50.341 -23.131,80.274 -21.769,9.524 -46.26,14.967 -57.145,34.015 l 0,334.704 c 47.621,-5.442 58.506,-48.981 80.276,-80.275 36.735,-20.408 57.144,-57.145 80.274,-92.52 48.981,-8.163 66.669,-47.62 103.405,-69.389 0,-62.587 17.687,-104.765 23.129,-161.91 17.688,-39.457 69.391,-44.899 69.391,-103.405 -28.573,-70.75 -59.866,-107.486 -57.145,-172.794 2.721,-62.587 59.866,-119.732 69.39,-195.924 5.442,-38.097 -4.082,-70.751 0,-115.651 13.605,-1.36 12.245,-17.687 10.884,-34.014 10.885,-35.375 55.784,-36.736 57.145,-80.274 -2.721,-21.77 13.606,-25.852 10.885,-46.26 -6.803,-27.213 -16.328,-53.063 -10.885,-92.52 -20.408,-10.885 -29.933,-32.655 -69.39,-23.131 9.524,-47.62 -31.294,-46.259 -46.259,-69.389 -55.785,24.49 -112.929,-16.327 -172.796,-23.13 -9.524,-58.506 -35.374,-103.405 -69.389,-138.78 -106.126,-2.721 -210.891,-10.885 -288.444,-10.885 -10.885,21.77 19.047,16.327 23.129,23.131 z m -5805.6205,-23.13 c 34.0147,62.587 29.9329,161.91 80.2746,206.809 27.2117,6.803 53.0628,16.327 92.5199,10.885 80.2745,-111.568 -35.3753,-242.184 -149.6646,-265.315 0,23.131 -31.2934,14.967 -23.1299,46.26 z m -897.9868,668.047 c 10.8846,-47.62 -34.0147,-2.721 0,0 29.9328,107.487 87.0774,190.483 172.7943,242.185 51.7023,5.442 85.717,-5.443 126.5346,-10.885 44.8993,19.049 96.6016,63.948 138.7798,23.13 -1.3606,-13.606 2.7212,-20.409 10.8846,-23.13 6.803,-68.029 -72.111,-50.342 -57.1446,-126.534 92.5199,4.082 180.958,-57.145 242.1843,-46.26 -8.1634,88.438 -25.851,225.857 0,311.574 66.6688,-20.409 48.9812,-145.583 57.1447,-242.185 17.6877,-32.653 10.8847,-88.438 23.1299,-126.534 -93.8804,13.606 -238.1025,38.096 -311.5742,34.014 100.6834,-63.946 263.9537,-66.668 368.7188,-126.534 28.5723,44.9 14.9665,53.063 -23.1299,80.275 35.3753,-2.722 65.3082,-12.245 92.5199,-23.13 1.3606,-66.669 -29.9329,-100.683 -34.0147,-161.91 -44.8994,1.361 -53.0629,39.457 -103.4045,34.015 -47.6205,-69.39 -69.39,-221.776 -57.1446,-311.574 81.6352,10.884 108.8469,-58.506 103.4045,-103.405 -5.4424,-46.26 -129.2557,-126.534 -183.6791,-172.794 -34.0147,-27.213 -87.0775,-76.193 -138.7798,-23.131 -8.1635,59.866 103.4045,43.539 69.3899,92.52 -47.6206,-10.884 -80.2746,-35.375 -115.6498,-57.144 5.4423,51.703 36.7358,78.914 46.2599,126.534 -48.9811,39.457 -178.2368,69.391 -242.1843,23.131 -31.2936,50.341 -78.9141,122.452 -34.0147,183.679 88.4381,8.163 149.6644,-10.885 229.9391,-10.885 36.7358,-5.442 80.2746,-40.817 103.4045,-23.13 16.327,78.914 -54.4235,82.996 -103.4045,103.404 -130.6163,53.063 -330.6225,77.554 -472.1234,126.535 -1.3606,40.818 -42.1782,42.179 -34.0147,92.52 72.1111,31.293 163.2704,28.572 242.1843,23.13 186.4004,-13.606 378.243,-55.785 507.4986,-115.65 1.3607,32.654 21.7695,47.621 23.1301,80.275 -151.0251,87.077 -315.656,159.189 -552.398,161.909 -32.6541,-9.523 -57.1446,-27.211 -92.5199,-34.015 z m 484.3686,-874.856 c 100.6834,72.111 266.6749,58.505 438.1088,80.274 144.222,17.687 333.3436,51.703 345.5888,172.795 5.4424,48.981 -36.7358,106.126 -69.3898,172.795 -85.717,178.236 -180.958,360.555 -253.0691,529.267 -68.0293,157.828 -140.1404,312.935 -219.0544,448.994 -27.2116,47.62 -47.6205,123.813 -115.6498,126.534 -50.3417,-8.163 -61.2264,-66.668 -80.2746,-103.404 -23.1299,-44.899 -40.8175,-93.88 -57.1446,-138.781 -4.0817,-38.096 -39.457,48.981 -34.0147,-10.884 -27.2117,-4.081 -10.8846,-50.341 -34.0146,-57.144 -1.3605,74.831 28.5723,227.217 46.26,288.444 34.0146,117.01 95.241,281.641 172.7943,288.444 70.7505,5.443 103.4047,-63.948 126.5346,-103.404 46.2599,-27.212 55.784,-81.635 80.2746,-126.535 24.4905,-42.178 59.8657,-84.357 80.2745,-126.535 23.13,-46.26 35.3753,-102.044 57.1447,-149.664 23.1299,-48.982 55.784,-89.799 80.2745,-138.78 69.39,-138.78 133.3375,-289.805 206.8092,-414.979 27.2117,-46.259 59.8657,-88.438 80.2745,-138.779 36.7358,-43.539 102.0439,-59.866 115.6499,-126.534 28.5723,-40.819 6.8029,-100.684 -10.8847,-149.665 -59.8659,-157.828 -198.6456,-216.334 -402.7336,-265.315 -197.2849,-46.26 -372.8005,-82.995 -575.5279,-80.274 -6.8029,0 -13.6059,1.36 -10.8846,12.245 14.9664,0 16.3269,14.966 34.0146,10.885 z m -368.7189,-10.885 c -6.8028,9.525 -5.4423,25.851 -10.8846,34.015 -10.8847,14.966 -23.13,29.932 -34.0147,46.26 -80.2745,118.371 -152.3856,253.069 -219.0543,368.718 -31.2936,54.424 -61.2264,107.487 -92.5199,161.91 -21.7694,36.736 -47.6205,69.39 -69.3899,103.405 -21.7694,35.375 -47.6205,73.471 -57.1446,115.649 29.9329,24.491 8.1635,99.323 69.3899,92.52 32.654,-31.293 39.457,-76.192 57.1446,-115.649 76.1928,-164.632 164.631,-325.18 242.1843,-472.123 42.1781,-80.276 89.7987,-152.386 126.5346,-229.939 20.4087,-43.54 43.5387,-89.8 46.2599,-138.781 -2.7212,-9.523 -9.5241,-13.605 -23.13,-10.884 -4.0817,27.211 -27.2117,36.736 -34.0147,46.26 z m 8766.2556,-438.109 c -12.244,130.616 -88.438,195.925 -172.794,253.07 50.342,24.49 96.602,6.803 126.534,-10.885 24.491,-14.967 48.982,-70.751 57.145,-80.274 17.688,-19.049 12.246,-63.948 46.26,-57.145 28.573,82.995 21.77,200.006 115.65,219.054 54.424,12.245 74.832,-46.26 115.65,-10.885 -31.294,118.371 -159.188,140.14 -195.925,253.069 -44.899,20.409 -77.553,53.063 -126.534,69.39 48.981,-6.803 47.62,38.097 92.52,34.015 29.932,16.327 78.913,13.606 115.65,23.129 91.159,-73.471 102.044,-227.217 253.068,-242.183 258.512,151.024 13.606,525.185 -149.663,610.903 10.884,12.244 42.178,4.082 34.014,34.014 -32.655,17.688 -76.193,23.13 -103.405,46.26 78.914,6.803 136.059,-59.866 195.925,-34.014 2.721,-20.409 20.408,-25.852 46.26,-23.131 66.668,-63.947 149.664,-111.567 219.054,-172.794 4.082,-103.404 55.784,-152.386 46.26,-253.069 -4.082,-35.375 -14.966,-104.765 -23.13,-126.534 -34.014,-89.799 -137.419,-130.616 -149.664,-229.939 31.293,-61.227 103.404,-80.275 103.404,-172.795 -54.423,-25.851 -73.472,-38.096 -115.65,-34.015 -58.505,5.443 -95.241,77.553 -149.665,80.275 -32.653,1.36 -54.423,-17.687 -92.519,-23.13 -53.063,-62.587 -35.375,-115.65 -23.13,-206.809 -82.995,-80.274 -200.006,14.967 -265.315,57.145 z M 4854.4126,16807.355 c 16.327,95.241 31.2934,191.843 115.6498,219.054 -24.4906,-255.79 -130.6163,-431.305 -288.4443,-552.398 48.9811,119.732 121.0922,217.695 172.7945,334.705 z m 829.9575,-461.238 c -80.2746,107.486 -115.6498,261.232 -242.1844,322.458 -63.9475,-23.13 -123.8132,-53.063 -219.0542,-46.26 -12.2454,14.967 27.2116,51.703 34.0145,57.145 39.457,36.736 118.371,42.178 126.5346,92.52 -13.6059,55.784 -68.0293,69.389 -80.2746,126.534 -46.26,23.131 -55.7841,82.996 -103.4046,103.405 -46.2599,2.721 -77.5533,21.77 -115.6497,57.145 l 0,103.404 c -212.2515,280.281 -417.7001,564.644 -621.788,853.088 89.7987,-34.016 142.8616,-119.732 206.8092,-183.679 66.6687,-66.669 144.2221,-126.535 206.809,-195.925 14.9665,-16.327 20.4088,-40.817 34.0147,-57.145 14.9664,-17.688 42.1781,-28.572 57.1446,-46.259 34.0147,-36.736 58.5052,-78.915 92.5199,-115.651 31.2934,-34.014 73.4716,-58.504 103.4045,-92.519 6.803,-8.164 5.4424,-27.212 10.8847,-34.015 23.13,-29.932 58.5053,-54.423 92.5198,-69.39 111.5681,8.164 190.4821,47.62 288.4443,69.39 38.0965,-32.654 21.7694,-80.274 34.0147,-115.65 53.0628,-14.966 167.352,-20.408 219.0544,0 27.2117,-34.014 40.8175,-82.996 92.5198,-92.52 27.2117,34.016 88.4381,34.016 103.4045,80.275 -39.4569,4.082 -78.9139,5.443 -103.4045,23.13 68.0293,23.13 152.3856,12.245 183.6792,-34.015 9.5241,-159.188 -73.4717,-225.857 -149.6645,-299.329 -28.5724,-1.36 -55.784,-1.36 -69.3899,10.885 -62.587,-63.948 -191.8427,-61.227 -242.1844,-138.78 47.6205,-39.456 77.5534,-91.159 115.6498,-138.779 35.3753,-44.9 100.6834,-89.799 80.2746,-183.679 -43.5388,-21.77 -87.0774,-43.539 -138.7798,-57.145 z m 10079.2219,334.704 c -13.606,-1.361 -20.409,2.721 -23.13,12.244 -16.327,6.803 1.361,13.606 0,0 13.605,1.361 20.408,-2.72 23.13,-12.244 103.404,-23.131 190.482,-62.588 195.924,-183.679 -163.27,-38.097 -240.824,103.403 -334.704,172.794 -55.784,-77.553 -97.962,-171.434 -149.665,-253.069 -2.721,-72.111 -16.326,-107.486 0,-172.795 -16.326,-19.048 -32.653,-36.735 -46.26,-57.144 -91.159,-9.525 -136.058,25.851 -206.808,34.014 -16.327,6.803 -2.721,31.294 -10.885,46.26 -5.442,10.885 -29.932,13.606 -34.014,23.13 -6.803,16.328 5.441,40.818 0,57.145 -2.722,8.164 -32.655,12.245 -23.131,34.015 54.424,1.36 85.717,-21.77 126.534,-34.015 36.737,28.572 74.833,55.784 80.276,115.649 -42.178,8.164 -48.981,-19.047 -92.52,-10.883 19.047,48.981 89.798,97.961 149.664,69.389 19.048,23.13 38.097,47.62 46.26,80.274 -24.491,17.688 -58.505,25.852 -69.39,57.145 -17.688,1.361 -43.539,-5.443 -46.26,10.885 36.736,9.524 68.03,24.49 92.52,46.26 46.26,-4.082 84.356,0 92.52,34.014 -46.26,76.194 -103.405,141.501 -149.665,219.055 -27.211,10.884 -19.047,57.144 -57.145,57.144 27.213,-46.26 -20.408,-96.601 10.885,-138.78 6.803,-40.817 -40.817,-28.572 -34.014,-69.389 -2.721,-100.684 -43.539,-160.55 -23.131,-253.069 -10.884,0 -9.523,-13.607 -10.884,-23.13 -74.832,-54.424 -187.76,-1.361 -253.069,23.13 -47.62,-25.851 -152.386,-36.736 -183.679,10.884 73.471,-4.081 82.996,54.424 80.274,126.535 29.934,35.376 103.405,27.212 138.78,57.144 50.342,8.164 27.212,-58.505 80.275,-46.259 10.884,62.587 40.818,104.765 57.144,161.91 -32.654,-2.722 -58.504,2.721 -69.389,23.129 32.654,1.361 74.832,-6.803 92.52,10.885 4.082,13.606 -5.443,32.654 0,46.26 4.082,12.245 20.408,8.164 23.129,23.129 5.443,29.934 -13.605,66.67 -10.884,92.521 -28.573,-21.77 -59.866,-51.702 -92.52,-80.275 -25.851,-24.49 -51.702,-58.506 -80.275,-80.274 -9.524,-6.803 -24.49,-4.082 -34.014,-10.885 -5.443,-4.082 -5.443,-19.048 -10.885,-23.13 -8.164,-6.803 -24.49,-4.082 -34.015,-10.885 -4.081,-2.721 -8.163,-20.409 -10.884,-23.13 -62.588,-32.654 -141.501,-47.621 -206.81,-12.245 l 57.145,0 c 140.14,78.914 289.805,155.106 379.603,288.445 13.607,20.408 39.457,46.26 34.016,80.274 -9.524,32.654 -25.852,58.505 -57.145,69.389 -40.817,-34.014 -89.799,-85.716 -149.665,-126.534 -14.966,-9.524 -28.572,-12.245 -46.26,-23.129 -57.144,-36.737 -149.664,-121.093 -288.444,-92.521 -12.245,2.721 -50.342,6.803 -46.26,34.015 61.227,10.885 127.895,-1.36 183.679,12.246 31.293,6.802 61.227,32.654 92.52,46.26 20.409,9.523 40.817,2.72 57.145,12.244 14.967,8.164 20.408,25.852 34.014,34.016 55.784,36.735 125.175,72.11 138.78,138.779 -36.736,102.043 -111.567,164.631 -172.794,242.185 -38.096,14.965 -91.159,16.326 -115.65,46.26 4.081,76.192 17.688,142.861 10.885,229.939 47.62,43.538 130.616,14.965 172.794,-12.246 17.688,-106.126 -9.524,-186.4 10.884,-288.444 29.934,-23.13 28.573,-78.914 69.391,-92.52 14.966,-34.014 28.572,-70.75 69.389,-80.274 32.655,-4.082 70.751,43.538 92.52,10.884 -36.736,-9.524 -59.865,-31.294 -69.389,-69.39 29.932,-51.702 43.538,-111.568 126.534,-80.274 12.245,-43.539 -43.539,-17.688 -34.015,-57.145 62.588,-117.011 157.829,-202.728 219.054,-322.459 40.818,16.327 87.078,76.193 149.665,34.015 6.803,-63.948 -25.851,-88.438 -23.129,-149.665 19.047,-38.096 62.586,-53.063 92.519,-80.274 21.769,-21.77 48.982,-80.275 80.275,-57.145 -9.525,44.899 -42.178,65.309 -57.145,103.405 z M 10786.568,13916.11 c -13.606,1.36 -32.655,-1.361 -34.015,10.885 13.606,-1.361 32.654,1.36 34.015,-10.885 z m 1981.013,-518.384 c -93.88,20.409 -195.925,34.015 -299.329,46.26 -95.241,334.705 -176.876,683.014 -265.314,1025.882 31.293,145.583 65.308,288.444 92.52,438.109 122.452,-1.361 247.627,13.606 368.718,23.13 121.093,9.524 242.185,25.851 345.589,23.13 -93.88,-504.777 -146.943,-1050.373 -242.184,-1555.15 z m -4987.9083,-23.13 c 153.7463,53.063 326.5408,88.438 472.1234,149.665 115.6499,330.622 234.0209,657.163 345.5889,990.506 361.9159,-84.356 714.3077,-190.482 1070.7813,-288.444 356.4737,-97.962 718.3887,-190.482 1070.7807,-299.328 -619.066,80.274 -1212.2817,186.4 -1831.3484,265.313 -72.1111,-220.414 -144.222,-461.238 -206.809,-668.047 -34.0147,-112.929 -68.0293,-242.185 -103.4046,-333.344 -6.8029,-20.408 0,-59.866 -34.0146,-57.145 -263.9538,77.554 -529.268,153.747 -783.6977,242.185 z m 2948.3903,-552.398 c -2.722,-2.721 -17.688,5.443 -10.885,10.885 2.721,2.722 17.688,-5.442 10.885,-10.885 z m -8812.5164,402.733 c 1.3605,140.141 61.2263,295.248 126.5344,391.849 121.0922,176.876 314.2954,265.315 552.398,229.939 261.2325,-38.096 508.8592,-220.414 541.5133,-484.369 16.327,-136.058 -12.2453,-258.51 -46.2599,-345.588 -35.3753,-91.159 -84.3563,-141.501 -138.7798,-195.924 -21.7694,-21.77 -39.4571,-57.145 -57.1447,-69.39 -24.4905,-16.327 -61.2263,-23.13 -92.5199,-34.014 -34.0145,-13.606 -65.3081,-31.294 -103.4045,-34.015 l -126.5344,0 c -4.0818,92.52 20.4087,156.466 10.8846,253.068 74.8323,-2.721 163.2703,4.082 195.9244,23.131 51.7022,31.293 100.6834,78.913 126.5346,138.779 63.9475,141.501 14.9664,292.526 -69.39,356.474 -47.6205,36.736 -66.6687,40.818 -126.5345,69.39 -31.2935,14.966 -53.0628,36.735 -80.2745,46.26 -85.717,28.571 -186.4003,39.456 -229.9391,34.014 -65.3081,-6.802 -102.0439,-42.178 -138.7798,-69.389 -10.8846,-8.164 -25.8511,-4.082 -34.0147,-10.885 -20.4087,-16.328 -32.654,-44.9 -46.2599,-69.39 -38.0964,-70.751 -54.4234,-144.222 -46.2599,-242.184 23.13,-19.049 19.0482,-66.669 46.2599,-80.275 10.8847,-35.375 55.784,-36.736 57.1446,-80.275 -48.9811,-65.308 -82.9957,-148.304 -138.7798,-206.809 -100.6834,103.405 -185.0397,195.924 -183.6791,379.603 z M 12812.48,12856.213 c 2.722,34.014 47.621,-10.885 0,0 -87.077,-46.26 -229.939,-127.895 -345.589,-183.678 -40.817,-20.409 -95.241,-44.899 -126.534,-46.26 -51.702,-1.361 -159.189,53.062 -219.054,80.274 -31.294,14.967 -103.405,39.457 -149.665,57.144 -29.933,10.885 -59.866,19.049 -92.519,34.014 -21.77,10.885 -55.785,20.41 -92.52,34.016 -46.26,17.687 -96.602,32.653 -149.665,57.144 -23.13,10.884 -55.784,20.409 -92.52,34.015 -36.735,13.605 -136.058,57.145 -183.679,57.145 -32.654,0 -112.929,-23.131 -161.91,-34.016 -104.765,-24.49 -191.842,-50.341 -311.574,-80.274 -43.538,-10.885 -92.519,-35.375 -149.664,-23.13 205.448,97.962 398.651,208.17 610.903,299.329 330.622,-126.534 665.326,-248.988 1002.752,-368.719 151.025,28.572 299.329,62.588 461.238,80.275 z m 5217.849,-334.703 c 236.742,78.913 502.056,160.548 725.191,242.183 25.852,9.524 87.079,1.361 92.52,46.26 -293.886,-20.408 -608.182,-20.408 -897.987,-46.26 -29.932,78.914 -55.783,159.189 -80.274,242.184 114.29,68.03 223.136,145.583 334.704,219.054 114.29,74.833 228.579,146.944 334.705,229.94 38.096,16.327 77.553,29.933 92.519,69.39 -278.92,-92.52 -561.921,-182.319 -840.841,-276.199 -19.049,81.635 -55.785,144.222 -69.391,229.939 370.079,118.371 733.357,242.184 1106.157,356.474 38.096,-123.814 80.274,-242.185 115.649,-368.72 -194.563,-130.616 -406.815,-277.559 -587.772,-402.733 -28.573,-20.409 -76.194,-25.851 -80.275,-69.39 265.314,16.327 537.431,23.13 817.712,23.13 34.015,-127.895 85.718,-236.742 115.65,-368.718 -376.882,-110.208 -740.159,-234.021 -1106.157,-356.473 -19.047,81.635 -55.784,144.222 -69.389,229.939 z m -5632.827,-587.774 c -66.669,-21.769 -189.122,-68.029 -229.939,-57.145 -129.257,31.294 -259.873,85.718 -391.849,126.535 -131.977,42.178 -265.314,81.635 -402.734,115.65 -42.178,43.538 -121.092,104.765 -161.909,149.664 -6.803,8.164 -53.063,46.26 -10.885,46.26 259.872,-59.866 540.153,-118.37 794.582,-172.794 125.174,-27.212 193.203,-9.524 311.575,10.885 201.367,36.736 379.603,73.471 575.528,103.404 65.307,-27.212 96.601,-88.438 149.664,-126.534 -219.055,-54.424 -432.666,-133.338 -634.033,-195.925 z m 921.117,-92.52 c -197.285,-156.467 -405.455,-300.69 -610.904,-448.993 0,-6.803 -1.361,-13.606 -10.884,-10.885 -66.669,82.996 -165.992,133.338 -229.94,219.054 263.954,127.895 517.024,266.676 771.453,402.734 72.111,-12.245 93.88,-74.832 161.91,-92.519 -12.246,-38.098 -48.981,-50.342 -80.274,-69.391 z m -4872.2591,46.26 484.3687,0 0,-518.383 -484.3687,0 0,518.383 z m 0,-518.383 z m -219.0543,518.383 92.5199,0 0,-529.268 -92.5199,0 0,529.268 z m 0,-530.629 z m -5586.5667,0 c -281.6413,54.424 -576.8885,112.929 -840.8422,161.911 -97.9623,17.688 -202.7274,16.327 -276.199,57.144 32.6541,68.029 24.4906,175.516 57.1446,242.185 142.8616,-32.655 292.526,-61.227 448.9935,-80.276 20.4087,175.517 66.6687,325.18 80.2746,507.5 -155.1069,13.605 -278.9203,58.504 -438.1088,69.389 -12.2453,63.948 29.9328,167.353 34.0147,253.069 391.8487,-53.062 749.6829,-141.5 1140.1711,-195.924 12.2453,-63.948 -29.9329,-167.353 -34.0146,-253.069 -179.5974,16.327 -325.1802,66.669 -507.4986,80.275 -31.2936,-164.631 -58.5053,-333.344 -92.5199,-495.254 163.2703,-36.735 331.983,-68.03 507.4987,-92.52 -8.1636,-46.26 -24.4906,-82.995 -23.1301,-138.779 -25.8511,-27.213 1.3606,-108.848 -46.2599,-115.651 l -10.8847,0 z m 6509.044,0 0,414.98 c 12.2454,38.096 -25.851,125.173 23.13,126.534 l 46.26,0 c 27.2117,-141.501 4.0817,-333.344 10.8846,-495.254 -21.7693,-31.293 -48.981,-58.504 -80.2746,-80.274 l 0,34.014 z m 9423.4191,-265.313 c -4.082,0 -8.164,0 -10.885,0 -65.307,5.442 -144.221,43.538 -172.794,69.389 -8.164,8.164 -25.851,4.082 -34.014,10.885 -12.246,10.885 -9.525,29.933 -23.131,46.26 -34.014,42.178 -57.144,50.341 -80.274,103.404 -61.227,140.141 -57.145,308.854 -57.145,495.254 31.294,87.078 76.194,161.909 138.78,219.054 270.757,110.208 636.755,123.813 967.377,172.794 12.245,-84.356 27.211,-164.63 34.014,-253.068 -191.842,-14.967 -416.339,-55.784 -598.657,-80.275 -136.059,-17.687 -261.233,-29.933 -311.575,-103.404 -59.865,-87.078 -43.539,-228.579 0,-311.575 72.112,-136.058 202.728,-114.289 368.72,-92.52 205.447,28.572 434.026,63.948 610.903,80.275 17.687,-78.914 31.293,-160.549 34.014,-253.069 -248.988,-29.933 -614.985,-80.275 -863.972,-103.404 z M 1489.683,10918.738 c -6.8028,99.323 20.4089,164.632 10.8848,265.315 379.6035,-34.014 774.1734,-54.423 1163.3011,-80.274 -2.7212,-85.718 -19.0483,-157.828 -10.8847,-253.069 -394.5699,16.327 -763.2888,58.505 -1163.3012,69.389 z m 7879.1543,23.131 195.9244,0 0,-448.994 -195.9244,0 0,448.994 z m -219.0544,-472.123 0,368.718 c 10.8848,31.294 -23.1299,107.487 23.13,103.405 l 46.26,0 c 27.2117,-119.731 4.0817,-288.444 10.8846,-425.864 -21.7693,-31.293 -48.981,-58.505 -80.2746,-80.274 l 0,34.015 z m 610.9033,-172.794 c -24.4906,13.605 -44.8994,31.293 -69.3899,46.259 l 0,575.527 c -20.4088,85.718 46.2599,84.358 80.2746,115.651 -8.1636,-242.185 14.9664,-514.302 -10.8847,-737.437 z m 8524.0718,-425.8648 c 1.36,325.1808 19.048,634.0338 10.885,967.3768 l 195.924,0 c 16.328,-250.348 -34.014,-495.253 0,-725.192 99.323,8.163 229.939,-14.966 311.574,10.885 -4.082,219.054 20.409,409.536 10.885,634.033 l 195.924,0 c -14.966,-204.088 -12.245,-425.864 -10.885,-644.918 88.438,5.442 186.401,-32.654 265.315,0 -2.721,236.741 1.361,468.042 12.245,691.178 62.587,-2.721 111.568,-19.049 183.68,-10.885 8.163,-326.541 -13.606,-624.509 -12.246,-944.2466 -390.488,5.4424 -783.698,6.803 -1163.301,23.1294 z M 1512.813,9536.3835 c -21.7693,58.5052 -8.1635,153.7462 -10.8846,229.9394 248.9872,19.0476 523.8255,13.6051 760.5676,46.2599 -261.2325,164.6303 -525.1863,327.9012 -794.5823,484.3692 -6.803,81.634 13.6059,190.482 -10.8847,253.068 390.4882,16.327 783.6976,29.933 1163.3011,57.145 9.5241,-74.832 14.9664,-153.747 10.8847,-242.185 -243.5449,-17.688 -514.3016,-8.163 -737.4377,-46.26 247.6267,-163.269 507.4987,-314.295 760.5676,-472.1229 19.0483,-72.1105 9.5242,-175.5156 10.8848,-265.3142 -393.2094,-6.803 -757.8465,-40.8177 -1152.4165,-46.2599 z m 11197.623,829.9575 c -1.36,13.606 2.721,20.409 10.885,23.13 6.803,16.327 13.606,-1.36 0,0 1.361,-13.606 -2.721,-20.409 -10.885,-23.13 -80.274,-180.958 -182.318,-340.147 -265.314,-518.3833 -4.082,-72.1105 -5.442,-163.2703 -10.885,-242.1843 -2.721,-34.0146 -5.442,-82.9958 -10.885,-115.6498 -4.081,-23.13 -1.36,-81.6352 -46.259,-69.3899 -27.212,149.6644 -4.082,349.671 -10.884,518.3832 115.649,141.5011 219.054,295.2471 345.588,425.8631 z m 853.089,-1462.6301 0,149.6645 115.649,0 c 29.932,-69.3899 55.784,-142.8615 92.52,-206.8091 -10.885,-28.5723 51.702,-59.8657 0,-57.1446 -65.308,42.1781 -137.419,77.5534 -206.81,115.6498 z m 4562.045,-92.5198 c 55.783,289.8049 93.88,597.2973 149.664,887.102 55.784,-17.6875 133.338,-12.2451 183.679,-34.0145 -32.654,-213.6121 -63.947,-427.2241 -103.404,-634.0331 314.295,-50.3417 619.066,-110.2075 944.246,-149.6645 1.361,-96.6017 -24.491,-167.3521 -34.014,-253.0691 -389.128,53.0629 -766.01,117.0105 -1140.171,183.6792 z m -4642.321,-334.7042 c -20.408,2.7211 -57.144,-12.2452 -46.26,23.13 l 0,161.9097 c 31.295,10.8847 107.487,-23.1299 103.405,23.13 l 0,23.1299 c -12.245,25.8512 -72.11,4.0819 -103.405,12.2453 l 0,138.7798 c 129.256,2.7212 156.468,-97.9622 253.07,-126.5345 9.524,-104.7652 35.375,-195.9244 34.014,-311.5742 -66.668,-48.9811 -107.486,-123.8133 -183.679,-161.9098 l -57.145,0 0,219.0544 z M 1699.2133,8465.6022 c -16.3271,91.1593 -35.3753,179.5974 -57.1446,265.3144 151.025,111.568 306.1319,213.612 461.2387,322.4588 151.025,106.1258 296.6078,229.9391 461.2387,322.4589 5.4423,32.6541 48.9811,27.2117 57.1446,57.1447 20.4088,0 29.9329,9.5241 34.0147,23.1299 14.9664,2.7212 23.1299,17.6876 23.1299,-10.8847 23.13,-80.2746 36.7358,-171.4338 57.1446,-253.0689 -88.438,-46.2601 -168.7126,-99.3228 -242.1843,-161.9098 27.2117,-77.5534 38.0964,-165.9915 57.1446,-253.069 19.0482,-87.0776 31.2935,-182.3186 69.3899,-253.0691 97.9622,-6.803 178.2368,-28.5723 265.3144,-46.2599 23.1299,-84.3563 40.8175,-174.1551 57.1446,-265.3142 -424.5029,74.8322 -827.2364,170.0732 -1243.5758,253.0689 z m 7499.5508,-472.1233 c 17.6876,59.8657 -73.4716,10.8846 -46.2599,80.2745 l 0,1900.7385 c 4.0817,42.1781 -20.4088,112.9291 46.2599,92.5201 38.0964,12.245 38.0964,-16.327 34.0146,-46.26 l 0,-92.52 0,-2661.3062 c -2.7212,-9.5241 -9.5241,-13.6058 -23.1299,-10.8846 -27.2118,223.1361 -4.0817,495.2533 -10.8847,737.4377 z M 17849.37,7890.0743 c 10.885,91.1592 70.751,277.5596 115.65,322.459 9.525,9.5241 13.606,24.4904 23.131,34.0145 58.504,59.8659 136.058,151.0252 206.808,185.0397 269.397,126.5346 662.605,-31.2934 771.453,-195.9243 19.048,-28.5723 29.932,-47.6205 46.26,-80.2746 27.211,-57.1446 34.014,-85.7169 57.144,-149.6645 13.607,-198.6455 -21.769,-311.5743 -80.275,-438.1087 -76.192,-161.9098 -141.501,-248.9873 -299.328,-311.5742 -65.309,-25.8512 -246.266,-57.1446 -322.459,-23.1301 -326.541,53.0629 -561.923,273.4779 -518.384,657.1632 z m -9054.7,-680.2931 c 0,16.3271 -5.4424,25.8512 -10.8847,34.0147 -59.8658,159.1886 -144.2221,344.2283 -206.809,495.2533 -10.8848,25.8512 -25.8512,54.4235 -34.0147,80.2746 -8.1635,24.4906 -29.9329,62.587 0,80.2746 36.7358,-8.1635 35.3752,-54.4234 46.2599,-80.2746 27.2117,-62.587 59.8658,-122.4527 80.2746,-172.7945 13.6058,-31.2934 21.7694,-62.5869 34.0146,-92.5198 19.0482,-44.8994 44.8994,-99.3228 57.1446,-126.5344 8.1635,-17.6877 5.4424,-42.1783 10.8848,-57.1447 9.5241,-23.13 36.7358,-53.0628 46.2599,-80.2746 10.8847,-31.2935 39.457,-81.6351 0,-80.2746 l -23.13,0 z m 840.8422,92.5199 c 38.0964,96.6016 80.2746,189.1214 115.6499,276.199 13.6058,35.3752 21.7693,72.1111 34.0146,103.4045 10.8847,27.2117 35.3752,54.4235 46.2599,80.2746 13.6059,32.654 4.0818,82.9958 46.2599,92.5199 -51.7022,-232.6602 -146.9433,-421.7818 -206.809,-644.9179 -23.13,-19.0482 -4.0818,-80.2746 -46.2599,-80.2746 -65.3082,42.1782 -8.1636,123.8134 10.8846,172.7945 z M 8459.9658,7002.9722 c -161.9098,179.5973 -344.2282,338.7859 -507.4986,518.3833 61.2264,-19.0482 95.241,-76.1929 138.7798,-115.6499 47.6205,-42.1781 104.7651,-70.7504 138.7798,-126.5345 77.5533,-53.0628 144.2221,-117.0104 206.809,-185.0397 23.13,-23.13 58.5053,-34.0146 69.39,-69.3899 -31.2936,8.1635 -23.1301,-23.13 -46.26,-23.13 z m 1934.7532,356.4735 c -23.131,-25.8512 -46.26,-46.2599 -69.39,-69.3899 -114.289,-114.2893 -236.742,-243.5449 -345.5882,-345.5889 -16.3273,-14.9664 -68.0297,-77.5534 -69.3903,-34.0146 -13.6058,1.3606 -8.1634,13.6058 0,23.1299 70.751,82.9958 168.7135,164.631 253.0695,253.069 40.817,43.5388 82.995,82.9958 126.534,126.5346 44.899,44.8993 78.914,104.7652 138.779,126.5345 24.491,-31.2935 -17.687,-61.2264 -34.014,-80.2746 z M 7883.0773,6851.947 c -84.3564,34.0147 -172.7944,61.2265 -242.1844,92.5199 -21.7693,9.5241 -62.5869,14.9665 -69.3898,46.2599 42.1781,10.8847 85.7169,-23.1299 115.6498,-34.0146 155.1068,-61.2264 314.2954,-123.8134 448.9934,-183.6791 23.13,-10.8847 68.0293,-9.5241 69.3899,-46.2599 -114.2892,23.1299 -219.0543,85.7169 -322.4589,126.5344 z m 2235.4437,-276.199 c 44.899,36.7359 103.404,44.8994 161.909,69.39 53.062,23.1299 107.486,58.5052 161.909,80.2746 16.328,6.8029 34.015,6.8029 46.26,10.8847 29.933,12.2452 57.145,24.4905 80.275,34.0146 46.259,19.0482 81.635,40.8176 126.535,57.1447 14.966,5.4422 73.471,46.2599 80.274,0 -220.415,-102.044 -447.633,-197.2851 -680.293,-288.4444 1.361,17.6876 -1.361,39.4571 23.131,34.0147 z m -3767.4637,-57.1446 0,3502.1486 c -17.6876,65.308 40.8176,50.342 69.3899,46.26 57.1446,-9.524 35.3752,0 46.2599,-57.144 6.803,-40.8186 0,-68.0298 0,-115.6504 1.3606,-227.2178 0,-491.1716 0,-657.1631 l 0,-2661.3065 c -9.5241,-28.5723 21.7694,-99.3227 -23.1299,-92.5198 l -80.2746,0 c -13.6059,1.3606 -12.2453,17.6876 -10.8847,34.0147 z m 1681.6845,-80.2746 c -250.3478,-14.9663 -512.941,12.2454 -748.3224,0 -13.6059,1.3607 -12.2453,17.6877 -10.8847,34.0147 -200.0061,27.2118 -448.9934,4.0818 -668.0478,10.8847 l 0,3582.4228 2326.6023,0 0,-2039.5181 c -4.0818,-29.9329 63.9476,10.8846 46.2599,-34.0146 -2.7211,-175.5156 4.0818,-376.8824 0,-541.5133 -1.3605,-55.7841 17.6877,-123.8133 -23.13,-161.9097 -14.9664,6.8028 -43.5387,-8.1636 -57.1446,0 -14.9664,8.1634 -1.3605,31.2934 -10.8846,46.2599 -17.6877,24.4905 -38.0964,59.8657 -46.26,80.2745 -10.8846,28.5723 -12.2452,63.9476 -23.1299,92.5199 -12.2453,29.9328 -35.3752,53.0628 -46.2599,80.2746 -10.8848,27.2117 -12.2454,63.9475 -23.13,92.5198 -31.2935,85.7169 -89.7987,180.9579 -103.4046,265.3144 -42.1782,10.8846 65.3082,23.1299 23.13,34.0145 -9.5241,29.933 -10.8847,65.3082 -34.0146,80.2747 -102.044,-36.7359 -201.3668,-74.8323 -299.329,-115.6499 -28.5723,-21.7694 -87.0775,-13.6058 -92.5199,-57.1446 16.3271,-17.6876 14.9665,-54.4235 34.0147,-69.3899 9.5241,-28.5723 40.8175,32.6541 57.1446,0 63.9475,-216.3332 160.5492,-400.0122 229.9391,-610.9031 13.6059,-21.7695 44.8993,-70.7505 -10.8847,-69.39 -17.6876,-47.6205 -55.784,1.3606 -69.39,10.8847 -21.7693,16.3271 -43.5386,55.784 -57.1446,69.39 -127.8951,127.8951 -273.4777,265.3143 -391.8487,379.6035 -31.2936,31.2934 29.9329,28.5723 23.1299,69.3898 -29.9329,12.2454 -39.457,46.2599 -69.3898,57.1447 -63.9476,-39.4571 -108.847,-97.9622 -161.9098,-149.6645 -50.3417,-50.3417 -118.3711,-91.1592 -149.6645,-161.9097 24.4906,-13.6059 43.5388,-34.0147 57.1446,-57.1446 44.8994,20.4087 35.3753,19.0482 69.3899,0 32.6541,-19.0482 63.9476,-76.1929 103.4046,-115.6499 114.2892,-114.2892 242.1843,-234.0208 345.5888,-334.7042 29.933,-35.3752 35.3753,-36.7358 10.8847,-80.2746 -61.2263,-25.8511 -121.0922,24.4906 -172.7944,46.2599 -175.5156,72.1111 -352.3918,133.3375 -518.3833,206.8092 -29.933,9.5241 21.7693,50.3416 -10.8848,69.3898 -42.1781,-8.1635 -43.5387,24.4906 -80.2745,23.1301 -39.457,-121.0922 -100.6834,-247.6267 -138.7798,-356.4737 -5.4424,-16.327 -27.2117,-28.5723 -10.8846,-46.2599 17.6876,-13.6058 47.6205,-14.9665 57.1446,-34.0147 50.3416,-16.3269 24.4904,44.8994 69.3898,34.0147 40.8176,-24.4906 82.9958,-44.8993 115.6499,-57.1446 40.8175,-16.327 65.3081,-23.13 92.5198,-34.0147 14.9664,-6.8028 27.2118,-4.0817 46.26,-10.8846 27.2117,-12.2453 53.0628,-35.3753 80.2746,-46.26 27.2116,-10.8846 62.5869,-10.8846 92.5198,-23.1299 28.5723,-10.8848 54.4234,-35.3752 80.2745,-46.2599 48.9812,-20.4089 141.5011,-19.0483 149.6645,-92.5199 -13.6058,-36.7358 -54.4234,-21.7694 -80.2745,-23.13 z m 6462.7842,0 c -44.9,161.9098 -107.487,321.0984 -161.91,484.3688 -27.212,84.3563 -43.539,170.0732 -69.39,253.0689 -24.491,78.9141 -80.275,157.828 -69.39,242.1845 40.817,-14.9665 44.899,-69.39 57.145,-103.4047 104.765,-291.1654 185.039,-604.1002 288.444,-887.1021 -16.327,-2.7212 -19.049,-19.0482 -34.014,-23.1299 0,16.327 -5.443,25.8511 -10.885,34.0145 z m 357.833,-23.1299 0,1106.1566 0,80.2745 c 5.443,21.7694 -16.326,69.3899 23.131,57.1447 38.096,6.8028 21.769,-40.8177 23.129,-57.1447 1.361,-23.1299 0,-61.2263 0,-80.2745 6.803,-349.6707 16.328,-740.1589 0,-1070.7813 -1.36,-14.9665 16.328,-74.8322 -23.129,-69.39 l -23.131,0 0,34.0147 z m -737.437,-80.2746 c -24.491,32.6541 -55.784,61.2264 -80.274,92.5199 -25.852,34.0147 -43.539,70.7505 -69.39,103.4045 -24.49,31.2935 -55.785,61.2264 -80.275,92.5198 -25.851,32.6542 -55.784,63.9476 -69.39,103.4047 -55.784,57.1446 -136.059,151.025 -172.794,206.809 -19.049,28.5723 -44.899,54.4235 -57.145,80.2746 -6.803,14.9664 -34.014,29.9329 -34.014,46.26 -1.361,27.2117 19.047,24.4905 34.014,57.1446 32.654,-12.2453 48.981,-44.8994 69.39,-69.39 16.327,-20.4087 36.736,-44.8992 46.26,-57.1446 17.687,-25.8511 28.572,-47.6205 46.26,-69.3898 4.082,-5.4424 19.048,-5.4424 23.13,-10.8847 8.163,-9.5241 4.082,-25.8511 10.885,-34.0147 111.568,-141.5009 224.496,-276.199 334.704,-414.9787 14.967,-42.1783 58.505,-57.1446 69.389,-103.4046 -13.605,-21.7694 -29.932,-39.4569 -46.26,-57.1446 -2.721,16.327 -19.047,19.0482 -23.129,34.0146 z M 2504.6803,7405.7056 c 172.7944,46.2599 345.5889,212.2514 564.6432,149.6645 24.4906,-6.8029 61.2264,-39.457 69.39,-46.26 9.5241,-6.8028 25.8511,-5.4423 34.0146,-10.8846 5.4423,-4.0818 5.4423,-19.0482 10.8847,-23.13 10.8847,-8.1635 25.8512,-2.7212 34.0146,-10.8846 48.9812,-46.2599 88.4381,-129.2557 126.5345,-206.8092 40.8177,-82.9957 82.9958,-165.9915 92.5199,-242.1843 39.457,-348.3101 -235.3814,-421.7817 -448.9934,-518.3833 -176.8763,-80.2746 -302.0501,-133.3375 -461.2387,-219.0544 l -23.13,0 c -50.3416,65.3081 -70.7505,159.1886 -115.6498,229.9391 145.5827,62.587 273.4778,121.0921 438.1087,195.9244 107.4864,48.981 365.9977,137.4192 391.8488,253.069 25.8512,117.0104 -55.784,235.3814 -92.5199,276.1989 -5.4422,6.803 -5.4422,17.6877 -10.8846,23.1301 -9.5241,8.1635 -23.1299,4.0817 -34.0146,10.8846 -12.2454,8.1636 -21.7695,28.5723 -34.0147,34.0147 -14.9665,6.803 -53.0629,10.8847 -69.3899,10.8847 -55.7841,1.3606 -141.501,-40.8176 -206.8091,-69.39 -31.2934,-13.6058 -59.8657,-31.2934 -92.5199,-46.2599 -165.9915,-77.5534 -357.8341,-161.9097 -495.2533,-229.939 -35.3752,80.2746 -80.2746,151.0251 -103.4046,242.1844 145.5828,61.2263 288.4443,126.5345 425.8635,195.9243 z M 13736.319,6242.4045 c -153.747,53.0628 -333.344,84.3563 -495.254,126.5345 -55.784,14.9665 -121.092,28.5723 -149.665,57.1446 50.342,27.2117 115.651,10.8847 172.795,0 121.092,-23.1299 236.742,-55.784 356.473,-80.2746 58.506,-12.2453 127.896,-12.2453 172.796,-46.2599 -32.655,1.3606 13.605,-74.8323 -34.016,-57.1446 l -23.129,0 z m -853.088,-103.4046 -1957.883,0 c -9.525,2.7212 -13.606,9.5241 -10.885,23.13 -21.769,72.111 61.226,39.457 103.404,46.26 l 1877.609,0 c 42.179,-4.0818 112.929,21.7693 92.52,-46.26 4.081,-46.2599 -72.111,-12.2453 -103.404,-23.13 z m 5264.108,783.6977 c 171.434,53.0628 299.329,-57.1446 356.474,-149.6645 84.356,-136.0586 13.605,-307.4925 -46.26,-425.8634 -78.915,-156.4675 -221.776,-412.2577 -276.2,-518.3835 0,-6.8028 -1.36,-13.6058 -10.884,-10.8846 -13.606,5.4424 -25.852,12.2453 -34.015,23.13 -151.025,82.9957 -330.623,157.828 -461.239,242.1843 -10.885,6.803 -24.49,17.6876 -34.014,23.13 -81.635,43.5387 -170.074,82.9958 -253.069,126.5345 -80.275,42.1782 -170.073,80.2746 -242.185,138.7797 53.063,61.2265 77.554,152.3857 126.535,219.0544 134.698,-84.3563 284.363,-152.3857 425.864,-229.939 32.654,77.5533 81.635,127.8951 80.274,206.809 0,88.4382 -69.39,182.3186 -115.65,276.199 -47.621,97.9623 -92.52,189.1215 -115.649,276.199 43.538,87.0776 87.077,174.1551 138.779,253.0691 95.241,-191.8427 220.415,-356.4736 253.07,-610.9032 57.143,69.3899 126.534,136.0586 206.808,161.9097 z M 12906.361,5875.0463 c 159.189,70.7504 356.474,172.7943 507.499,242.1843 5.442,2.7211 51.702,57.1446 57.144,12.2452 -180.958,-122.4527 -379.604,-227.2179 -564.643,-345.5888 l 0,92.5198 z M 9300.8081,5725.3817 c -130.6163,164.631 27.2117,370.0794 206.809,345.589 91.1593,-12.2454 194.5638,-107.4864 172.7945,-253.0691 -17.6876,-118.3709 -140.1404,-182.3185 -253.069,-161.9097 -65.3082,12.2452 -96.6017,29.9328 -126.5345,69.3898 z M 7572.8637,5552.5873 c 65.3081,28.5723 152.3856,70.7505 206.809,92.5199 17.6877,6.8029 28.5723,4.0817 46.26,10.8847 31.2935,13.6058 53.0628,34.0146 80.2746,46.2599 29.9328,12.2452 62.587,10.8847 92.5198,23.1299 29.9329,12.2454 53.0629,35.3753 80.2746,46.2599 28.5723,12.2454 62.5869,25.8512 92.5199,34.0147 20.4088,6.803 68.0293,40.8176 80.2745,0 -223.1361,-99.3228 -461.2387,-185.0397 -680.293,-288.4442 l -34.0147,0 c -2.7211,24.4905 9.5241,36.7358 34.0147,34.0146 z m 5091.3123,345.5889 c 6.803,61.2264 -8.163,140.1403 34.016,149.6644 21.768,-77.5533 -12.246,-170.0732 -23.131,-265.3143 -5.442,-47.6205 -4.082,-100.6833 -10.885,-149.6644 -5.442,-42.1782 0,-100.6834 -34.014,-126.5345 13.606,125.1739 21.77,269.3961 34.014,391.8488 z M 3287.0173,5045.0887 c -2.7211,-1.3606 -8.1635,1.3606 -10.8846,0 -40.8177,66.6687 -88.4382,126.5345 -126.5346,195.9244 97.9623,51.7022 194.5638,133.3374 276.199,183.6791 47.6205,29.9329 76.1928,54.4235 115.6499,80.2746 47.6205,32.6541 87.0775,55.784 126.5344,80.2746 36.7359,23.13 54.4235,38.0964 80.2746,57.1446 10.8847,8.1635 44.8994,10.8846 34.0147,34.0146 l -933.3621,0 c -35.3752,74.8323 -95.2411,127.8952 -126.5345,206.8091 57.1446,47.6206 122.4527,93.8805 172.7945,126.5345 23.1299,14.9665 47.6205,20.4088 69.3898,34.0147 16.3271,10.8847 28.5723,34.0146 46.2599,46.26 21.7694,14.9663 48.9811,20.4087 69.39,34.0145 20.4088,13.606 38.0964,32.6542 57.1446,46.26 20.4088,13.6059 48.9811,20.4088 69.3898,34.0147 17.6877,12.2452 29.933,34.0146 46.26,46.2599 46.2599,34.0147 87.0775,53.0629 126.5345,80.2746 32.6541,21.7693 66.6687,42.1781 92.5198,57.1446 54.4235,34.0147 104.7651,74.8322 149.6645,103.4045 23.13,14.9665 39.457,34.0147 69.3899,34.0147 32.6541,-74.8322 88.4381,-126.5345 126.5345,-195.9244 -165.9915,-85.717 -322.4588,-238.1026 -484.3686,-311.5742 -4.0817,-1.3606 -6.803,-20.4088 -10.8847,-23.13 -43.5388,-28.5723 -104.7652,-38.0964 -115.6499,-92.5199 302.0502,-1.3606 613.6244,6.803 897.9869,-10.8847 48.9811,-70.7504 104.7652,-133.3374 138.7797,-219.0543 -325.18,-204.088 -631.3119,-424.5028 -956.492,-634.0331 z m 4654.5652,-80.2746 c 164.631,174.155 327.9012,348.3101 495.2533,518.3833 17.6876,31.2935 40.8177,58.5052 69.39,23.13 24.4904,-32.6541 -17.6877,-61.2264 -34.0147,-80.2746 -57.1446,-66.6687 -148.3039,-125.174 -219.0544,-195.9244 l -138.7798,-138.7798 c -59.8657,-59.8658 -84.3563,-126.5345 -172.7944,-126.5345 -6.8029,-16.3271 -13.6059,1.3606 0,0 z m 9457.4345,-242.1843 c -54.424,29.9329 -92.52,76.1928 -149.665,103.4045 59.866,121.0922 156.468,205.4485 219.054,322.4589 -262.593,182.3186 -511.58,379.6036 -771.452,564.6433 32.654,82.9957 100.684,129.2557 138.78,206.809 74.832,-31.2934 134.698,-92.5198 195.925,-138.7798 66.668,-50.3416 141.5,-87.0774 195.924,-149.6644 148.303,-78.914 254.429,-198.6455 402.733,-276.199 78.914,97.9622 141.501,210.8909 229.939,299.329 35.375,-53.0629 112.929,-63.9476 138.78,-126.5345 -200.006,-268.0355 -394.57,-542.8739 -598.658,-806.8276 z m -8835.6466,-34.0147 c -1.3606,13.6059 2.7211,20.4088 10.8846,23.13 -1.3605,13.6058 2.7213,20.4088 10.8847,23.1299 16.3271,77.5534 58.5053,160.5492 92.5199,242.1843 9.5241,23.1301 25.8511,46.26 34.0146,69.39 10.8847,27.2117 10.8847,61.2263 23.1301,92.5198 9.5241,24.4905 25.851,47.6205 34.0145,69.3899 16.3271,36.7358 29.9329,136.0586 92.5199,103.4046 9.5241,-48.9812 -24.4905,-107.4863 -46.2599,-149.6645 -24.4905,-47.6205 -55.7841,-91.1593 -80.2745,-138.7798 -50.3418,-95.241 -93.8806,-200.0061 -149.6646,-288.4443 1.3607,-13.6058 -2.7211,-20.4087 -10.8847,-23.1299 1.3606,-13.6059 -2.7211,-20.4089 -10.8846,-23.13 -6.803,-16.3271 -13.6059,1.3606 0,0 z m -5034.1688,57.1446 c 73.4717,59.8658 145.5828,122.4528 219.0544,185.0397 38.0964,31.2936 77.5534,59.8659 115.6498,92.5199 36.7358,31.2935 68.0294,73.4716 103.4046,103.4046 8.1635,6.8029 25.8511,5.4423 34.0146,10.8847 9.5241,8.1635 13.6059,27.2117 23.13,34.0146 9.5241,8.1635 23.13,4.0818 34.0146,10.8847 9.5241,6.8029 13.6059,27.2118 23.13,34.0146 38.0964,32.6541 77.5534,61.2264 115.6498,92.5199 38.0965,31.2935 77.5535,59.8658 115.6499,92.5198 36.7358,31.2936 66.6687,76.1928 115.6498,92.5199 40.8176,-70.7504 100.6833,-121.0922 149.6645,-183.6792 1.3606,-32.654 -32.6541,-28.5723 -46.2599,-46.2599 -14.9665,-20.4088 -24.4906,-44.8992 -57.1446,-46.2599 -121.0923,-115.6498 -251.7085,-225.8573 -379.6036,-334.7042 -129.2557,-108.8469 -257.1507,-219.0544 -391.8488,-322.4589 0,-6.8029 -1.3606,-13.6058 -10.8847,-10.8847 -47.6205,70.7505 -110.2075,127.8951 -161.9098,195.9244 z m 5679.0866,-288.4442 c 5.4423,231.2996 -6.803,508.8592 0,725.1924 1.3606,21.7694 -19.0482,85.7169 23.1299,92.5199 27.2117,-261.2326 4.0818,-572.8068 10.8848,-853.0876 l -34.0147,0 0,34.0147 z m 7925.4138,-46.26 c -193.203,-198.6455 -395.93,-375.5218 -575.527,-575.5279 -14.967,0 -16.328,-14.9665 -34.016,-10.8846 -138.779,134.6979 -250.347,238.1025 -425.863,414.9786 -54.424,54.4235 -127.895,127.8952 -195.925,195.9245 -44.899,44.8994 -197.284,185.0397 -195.924,206.8091 0,4.0818 65.308,53.0629 92.521,80.2746 213.611,213.612 409.536,416.3393 598.657,610.9032 34.014,-58.5052 102.044,-81.6352 126.534,-149.6645 -131.976,-121.0922 -257.15,-248.9873 -379.603,-379.6035 -29.933,-54.4235 -95.241,-73.4717 -115.649,-138.7798 38.096,-29.933 69.389,-61.2264 115.649,-103.4046 16.327,-16.327 100.683,-104.7651 115.65,-103.4046 12.246,0 78.914,91.1593 103.405,115.6499 114.288,114.2892 257.15,240.8237 334.704,334.7042 59.865,-31.2935 106.125,-77.5534 138.78,-138.7798 -140.141,-155.1069 -297.969,-293.8866 -438.109,-448.9935 20.409,-36.7358 54.423,-54.4234 92.52,-92.5198 21.769,-21.7694 61.226,-93.8805 92.519,-92.5199 -9.524,0 40.818,39.4571 57.145,57.1446 66.668,68.0294 133.337,133.3375 185.04,183.6792 102.044,102.0439 176.876,202.7273 253.069,242.1844 40.818,-39.4571 69.389,-91.1593 126.534,-115.6499 -12.245,-36.7358 -43.538,-65.3081 -69.39,-92.5199 z M 4703.3875,3547.0834 c -16.3271,6.8029 -28.5723,17.6875 -34.0146,34.0146 -48.9812,5.4424 -53.0629,54.4234 -92.5199,69.3899 -14.9665,39.457 -63.9475,43.5387 -69.3899,92.5199 117.0104,228.5784 205.4485,485.7292 322.4589,714.3077 -4.0817,39.4569 50.3417,80.2746 23.1299,103.4045 -274.8383,-129.2557 -541.5132,-263.9537 -817.7122,-391.8488 -28.5723,40.8176 -66.6687,72.1111 -103.4045,103.4046 -27.2117,29.9328 -99.3228,63.9475 -80.2746,103.4045 102.0439,24.4906 183.6791,84.3563 276.199,126.5345 21.7693,10.8847 43.5388,12.2453 69.3898,23.1299 259.872,112.9288 508.8593,247.6267 771.4524,356.4736 72.1111,-62.5869 149.6645,-119.7315 206.8091,-195.9243 -170.0733,-367.3583 -307.4925,-767.3706 -472.1234,-1140.1713 z m 9642.4735,2960.6354 c 16.327,-6.803 -1.361,-13.6058 0,0 -34.014,47.6205 -95.241,106.1256 -138.78,161.9098 -141.501,183.679 -306.132,387.7669 -461.238,575.5279 -25.852,32.654 -44.899,82.9957 -92.52,92.5198 -54.423,-23.13 -119.732,-34.0146 -149.664,-80.2746 -50.342,-25.8511 -93.881,-59.8657 -103.405,-126.5345 24.49,-55.784 68.03,-102.044 103.405,-149.6645 54.423,-73.4716 104.765,-142.8615 161.909,-219.0543 10.885,-13.6059 10.885,-31.2935 23.13,-46.2599 16.328,-20.4089 35.375,-36.7358 57.145,-69.3899 20.408,-29.9329 55.784,-66.6687 80.274,-103.4046 0,-23.13 31.293,-14.9665 23.131,-46.2599 17.687,0 38.096,-31.2935 0,-23.13 l -183.68,0 c -224.497,95.2411 -457.157,180.958 -691.178,265.3143 -68.029,-62.587 -108.847,-152.3856 -126.535,-265.3143 l -1923.868,0 c -42.178,10.8847 -5.442,-55.784 -57.145,-34.0146 -200.006,13.6058 -429.945,-19.0482 -644.917,0 -14.967,1.3606 -63.948,-16.327 -57.145,23.1299 -9.524,47.6205 46.26,46.2599 69.39,57.1446 16.327,8.1635 31.294,17.6876 46.26,23.13 10.885,4.0817 29.933,5.4423 46.259,10.8847 27.212,10.8847 51.703,34.0147 80.275,46.2599 27.212,10.8847 65.308,12.2453 92.52,23.1299 27.212,10.8848 51.703,35.3753 80.275,46.2601 29.932,12.2452 65.308,12.2452 92.519,23.1299 29.934,12.2452 51.703,34.0147 80.275,46.2599 27.212,10.8847 62.587,8.1635 80.275,34.0147 50.342,16.327 29.932,-39.4571 69.389,-34.0147 9.525,24.4906 50.342,19.0482 69.391,34.0147 -27.213,119.7316 -88.438,202.7273 -115.651,322.4589 -34.014,10.8847 -9.524,82.9958 -57.145,80.2745 -14.965,-19.0482 -51.701,-17.6876 -69.389,-34.0145 -27.211,6.8028 32.654,-69.39 -23.13,-57.1447 -195.924,-92.5199 -408.175,-167.3521 -610.903,-253.069 -19.048,-1.3606 -72.11,-48.9811 -69.389,0 -48.9814,14.9665 0,58.5051 23.129,69.3899 123.814,133.3374 253.07,262.5931 391.849,391.8488 17.688,16.327 48.981,27.2117 46.26,57.1446 38.096,12.2452 50.341,35.3752 80.274,0 12.246,29.9329 46.26,39.457 57.145,69.3899 -10.885,35.3752 -39.457,62.5869 -69.39,92.5199 -48.981,50.3416 -103.404,107.4862 -161.91,161.9097 -21.77,19.0482 -50.341,61.2264 -80.274,46.2599 -8.163,-34.0147 -62.587,-21.7693 -57.144,-69.3898 47.62,-25.8512 25.85,-29.933 10.885,-57.1447 -19.049,-34.0146 -88.438,-77.5534 -138.78,-126.5345 -34.016,-34.0147 -62.587,-68.0293 -103.405,-103.4045 -21.77,-19.0482 -43.5385,-28.5723 -69.3902,-57.1447 -9.5243,-10.8847 -16.3264,-39.457 -23.1295,-46.2599 -10.8849,-10.8847 -36.7361,-14.9664 -46.2602,-23.1299 -9.5241,-9.5241 -13.6058,-24.4906 -23.1299,-34.0147 -40.8177,-40.8176 -85.717,-111.5681 -138.7798,-69.3899 -13.6059,57.1446 25.851,108.8468 46.2599,161.9097 9.5241,25.8512 24.4905,53.0629 34.0146,80.2746 10.8848,27.2118 12.2453,63.9476 23.13,92.5199 42.1781,111.568 102.0442,217.6937 126.5342,334.7042 19.0487,25.8511 29.9336,43.5387 69.3909,23.13 -6.804,46.2599 29.932,46.2599 23.129,92.5198 -61.2257,36.7359 -134.6979,53.0628 -206.8089,80.2745 -62.5869,24.4906 -129.2556,74.8323 -195.9243,57.1447 -16.3271,-17.6876 -14.9665,-54.4234 -34.0147,-69.3899 8.1635,-27.2117 59.8658,-8.1635 46.2599,-57.1446 -48.9811,-96.6017 -92.5199,-224.4967 -138.7798,-345.5889 -20.4088,-53.0628 -47.6205,-117.0104 -69.3898,-172.7944 -17.6877,-46.2599 -23.13,-151.0251 -103.4046,-115.6499 -42.1782,-10.8846 -16.327,44.8994 -23.13,69.39 l 0,634.033 c -17.6876,48.9812 63.9476,-2.7211 46.26,46.26 l 0,2027.2729 c 170.0732,5.443 365.9977,-13.605 518.3833,10.885 17.6876,23.131 50.3421,39.457 69.3897,69.39 69.3902,108.847 34.0143,359.195 34.0143,564.643 0,219.054 5.4425,429.946 -23.1294,564.644 -28.5719,39.456 -63.9476,73.471 -115.6499,92.519 l -484.3686,0 0,518.384 288.4442,0 c 58.5052,125.173 129.2557,239.463 195.9244,356.474 l 495.2532,0 0,-657.164 c 269.395,-134.698 537.432,-269.396 806.827,-402.733 503.417,72.11 1028.603,123.813 1544.266,183.679 62.586,-156.468 119.731,-318.377 183.679,-472.124 -119.732,-88.438 -228.578,-185.039 -334.704,-288.444 -53.063,-12.245 -59.866,-70.751 -115.65,-80.274 -62.587,-76.194 -146.944,-130.617 -219.054,-195.925 -35.375,-13.606 -47.621,-57.144 -80.276,-80.275 -10.884,-8.163 -24.49,-2.721 -34.014,-10.884 -17.687,-14.967 -28.572,-42.178 -46.26,-57.145 -16.326,-14.966 -58.505,-12.245 -46.26,-46.259 21.77,-274.8386 38.096,-553.7593 46.26,-840.8429 127.895,-182.3185 266.676,-355.113 402.734,-530.6286 73.471,-25.8511 123.813,-76.1928 195.925,-103.4045 14.965,-89.7987 16.326,-190.4821 34.014,-276.199 -106.126,39.457 -179.597,111.5681 -288.444,149.6645 -43.539,140.1403 -85.717,283.0019 -149.665,402.7335 19.049,-191.8427 66.669,-356.4736 92.52,-541.5133 130.616,-92.5199 258.512,-186.4003 391.849,-276.199 25.85,-349.6707 62.587,-689.8172 80.274,-1047.6513 24.491,-25.8512 35.375,-63.9476 69.39,-80.2746 -8.163,-27.2117 24.49,-34.0147 34.015,-46.2599 9.524,-10.8847 9.524,-44.8994 34.014,-34.0147 -28.572,353.7524 -68.029,721.1106 -103.404,1106.1565 -16.327,176.8762 -25.851,367.3583 -46.26,552.398 -32.654,291.1654 -100.683,576.8885 34.015,783.6977 36.735,-108.847 107.486,-183.6792 149.665,-288.4444 16.326,-740.1588 28.571,-1484.3994 69.389,-2200.0678 17.688,20.4088 32.655,35.3753 46.26,57.1446 14.967,25.8512 16.327,36.7359 23.13,69.39 10.885,53.0629 8.164,125.174 10.885,183.6791 16.326,351.0312 36.736,745.6013 46.26,1093.9112 27.211,27.2118 31.293,-17.6876 57.144,-23.1299 55.784,-47.6205 102.044,-104.7652 172.795,-138.7798 87.077,6.8029 153.746,-6.8029 229.939,-10.8846 69.39,35.3751 125.173,91.1592 183.679,138.7798 58.505,47.6205 122.453,93.8804 172.794,149.6644 -29.933,146.9433 -38.096,315.656 -57.144,472.1234 -48.981,70.7505 -92.52,145.5827 -149.665,206.809 17.687,62.587 51.703,110.2075 69.39,172.7945 -63.947,16.3271 -160.549,0 -219.054,23.1299 43.538,21.7695 110.208,20.4089 126.534,69.39 -112.928,-21.7694 -253.068,-16.3271 -368.719,-34.0147 -43.538,152.3857 -87.077,304.7713 -149.664,438.1085 -27.212,-165.9912 -25.851,-370.0791 -57.145,-552.3977 -2.721,-17.6876 17.688,-63.9476 -23.13,-57.1446 -36.735,6.8028 -47.62,-10.8847 -69.39,0 -20.408,9.5241 -46.26,104.7651 -57.144,138.7798 -63.948,179.5973 -134.699,374.1611 -195.924,575.5278 24.49,46.2599 59.865,88.438 92.52,126.5342 31.293,36.7369 63.946,74.8329 103.404,103.4049 118.371,-65.308 228.579,-140.1405 368.719,-183.6792 137.419,42.1781 257.15,104.7653 391.849,149.6642 34.014,-34.014 72.111,-68.0293 103.404,-103.4043 29.933,-35.375 58.505,-74.8318 80.275,-115.6492 -43.539,-102.0441 -87.077,-205.449 -115.65,-322.4594 307.493,-44.8993 616.345,-89.7987 910.232,-149.6645 -142.862,-9.5241 -292.526,-31.2935 -438.109,-46.2599 -145.583,-14.9664 -289.805,-14.9664 -414.978,-57.1446 278.92,-9.5241 541.513,-34.0146 829.956,-34.0146 36.737,-171.4339 42.18,-357.8342 57.145,-541.5134 16.328,-186.4002 34.016,-370.0794 46.26,-552.3979 125.175,-51.7023 263.954,-96.6016 402.734,-149.6645 36.736,-13.6058 74.832,-53.0629 115.649,-34.0147 -39.456,118.371 -117.009,183.6792 -206.808,253.0691 -32.655,25.8512 -66.669,50.3416 -103.405,80.2745 -14.967,12.2454 -47.62,19.0482 -46.26,46.2599 76.193,235.3815 138.78,483.0082 206.81,725.1925 -161.91,564.6432 -327.902,1122.483 -484.369,1693.929 -225.857,161.91 -446.273,329.262 -668.048,495.254 -78.915,-68.03 -160.549,-129.255 -242.184,-195.925 -39.457,-32.653 -76.194,-72.11 -115.651,-103.404 -36.735,-29.933 -92.519,-48.981 -103.404,-103.405 55.784,-125.174 130.617,-229.939 172.795,-368.719 -39.457,-14.965 -73.472,-34.014 -103.405,-57.144 -59.866,5.442 -92.52,65.308 -126.534,103.404 -104.765,114.29 -231.3,227.218 -334.704,356.474 78.913,63.947 153.745,130.616 229.939,195.925 42.178,31.293 73.471,72.11 115.649,103.404 31.294,38.097 88.439,50.341 103.405,103.404 -61.226,145.583 -121.092,322.46 -183.679,495.254 -20.409,57.145 -50.342,110.208 -57.145,161.909 -21.769,155.107 0,321.099 0,484.369 l 0,472.123 c 10.885,31.294 -23.13,108.847 23.13,103.405 57.145,2.72 39.457,-68.03 69.39,-92.521 111.568,-278.919 238.102,-552.396 356.474,-829.956 118.37,-274.839 220.414,-556.48 356.473,-817.712 -55.784,546.955 -122.453,1084.387 -183.679,1624.539 -102.044,70.75 -201.366,144.222 -299.329,219.054 -25.851,31.294 -77.554,36.736 -92.519,80.275 l 0,806.828 c 9.523,28.572 -21.77,99.323 23.129,92.519 l 80.274,0 c 44.9,-74.832 48.981,-167.352 69.391,-253.069 38.096,-163.27 82.995,-338.786 126.534,-518.383 20.409,-82.996 31.294,-168.712 69.39,-242.185 31.293,179.598 53.063,368.719 80.274,552.398 -97.962,485.729 -195.924,971.459 -276.198,1474.875 277.559,31.295 556.479,78.915 829.957,126.536 220.415,38.096 468.042,77.553 691.178,138.779 24.49,6.803 74.832,-8.163 80.274,34.015 -560.561,-70.75 -1186.431,-82.996 -1785.088,-57.145 -107.487,4.082 -217.695,-5.442 -322.459,0 -635.394,28.573 -1249.018,73.472 -1843.595,138.78 -587.774,63.947 -1149.695,156.467 -1693.9291,276.199 -948.3285,208.169 -1827.2672,470.763 -2625.9313,829.957 -43.5387,19.049 -82.9957,39.457 -126.5344,57.145 -58.5053,24.491 -142.8616,53.063 -195.9245,103.405 959.2132,542.873 2001.4222,927.919 3445.0043,990.506 137.418,5.443 285.722,6.803 425.863,0 1112.959,-48.981 2046.321,-306.132 2844.986,-678.932 785.058,-365.998 1470.793,-863.973 2062.648,-1462.63 118.371,-121.092 232.66,-244.906 345.589,-379.604 2.721,-2.721 21.77,-8.163 23.13,-10.885 28.572,-62.586 99.323,-131.976 149.664,-195.924 32.655,-40.818 59.866,-84.356 92.521,-126.534 21.769,-28.572 57.144,-58.506 80.274,-92.52 5.443,-8.164 4.082,-24.491 10.885,-34.015 14.966,-21.769 42.178,-35.376 57.144,-57.144 13.606,-20.41 20.409,-48.981 34.015,-69.391 2.721,-4.082 21.769,-8.162 23.13,-10.884 2.721,-5.442 -4.082,-17.688 0,-23.13 2.721,-4.082 21.77,-8.164 23.13,-10.885 2.721,-5.442 -4.082,-17.687 0,-23.129 2.721,-4.082 21.769,-8.164 23.13,-10.885 2.721,-5.443 -4.082,-17.688 0,-23.131 2.721,-4.081 21.769,-8.162 23.13,-10.884 2.721,-5.442 -4.082,-17.688 0,-23.13 2.721,-4.082 21.769,-8.164 23.129,-10.885 2.722,-5.442 -4.081,-17.687 0,-23.13 2.722,-4.081 21.77,-8.163 23.131,-10.884 50.342,-111.569 140.14,-238.103 206.808,-356.473 92.52,-163.271 183.68,-325.181 265.315,-507.5 10.885,-23.129 24.49,-44.899 34.015,-69.389 365.997,-816.351 634.033,-1813.661 634.033,-2891.245 0,-1972.8501 -681.654,-3465.413 -1589.165,-4585.1754 -97.962,-121.0921 -191.843,-238.1026 -299.329,-356.4736 -115.649,-126.5345 -253.068,-273.4778 -391.848,-391.8487 -36.737,-31.2936 -72.112,-66.6688 -115.65,-103.4047 -50.342,-43.5387 -111.569,-99.3227 -172.795,-149.6644 -39.456,-32.654 -76.193,-72.1111 -115.65,-103.4046 -81.635,-65.3081 -168.712,-121.0921 -253.068,-183.6791 -4.082,-2.7211 -8.164,-21.7693 -10.885,-23.1299 -5.442,-2.7213 -17.688,4.0817 -23.13,0 -4.082,-2.7213 -8.164,-21.7695 -10.885,-23.13 -29.933,-13.6058 -70.75,-38.0964 -103.404,-69.3899 -4.082,-4.0818 -29.934,-23.13 -46.26,-34.0146 -21.77,-14.9665 -47.621,-20.4088 -69.39,-34.0147 -4.082,-2.7212 -8.164,-21.7694 -10.885,-23.1299 -5.443,-2.7212 -17.687,4.0817 -23.13,0 -4.082,-2.7212 -8.163,-21.7695 -10.885,-23.1301 -63.948,-28.5723 -146.943,-82.9957 -219.054,-126.5344 -536.071,-325.1802 -1148.334,-608.182 -1843.595,-794.5823 -466.68,-125.174 -974.179,-217.6938 -1508.889,-242.1844 -793.221,-35.3752 -1571.4769,59.8658 -2223.1977,229.9391 -23.13,5.4423 -42.1782,16.327 -69.3899,23.13 -19.0482,5.4423 -48.9812,5.4423 -69.3899,10.8846 -40.8176,12.2453 -76.1928,34.0147 -115.6498,46.26 -46.2599,13.6058 -93.8804,20.4087 -138.7798,34.0146 -74.8322,24.4905 -156.4674,61.2264 -242.1843,92.5199 -39.4571,13.6058 -88.4381,20.4088 -126.5345,34.0146 -38.0964,14.9665 -77.5535,42.1782 -115.6499,57.1447 -114.2892,47.6205 -238.1025,93.8804 -356.4735,149.6644 -442.1905,206.8091 -865.3328,473.484 -1243.5758,760.5677 -1034.0454,779.6158 -1828.6277,1776.9254 -2338.8475,3030.0253 -127.8951,314.2954 -248.9873,655.8025 -334.7042,1013.6367 -63.9476,272.1172 -115.6499,557.8403 -149.6644,853.0875 -12.2454,99.3231 -27.2118,200.0066 -34.0147,299.3284 -57.1446,808.1882 32.654,1693.9302 229.939,2430.0072 225.8573,840.842 578.2491,1559.231 1013.6366,2189.183 12.2454,17.687 23.13,29.932 34.0147,46.26 6.803,8.163 4.0818,24.49 10.8847,34.014 4.0818,5.442 19.0482,6.803 23.13,10.885 8.1635,10.885 4.0817,24.49 10.8847,34.014 31.2934,40.818 87.0774,108.847 126.5345,161.91 20.4088,25.851 38.0964,50.342 57.1446,80.275 19.0482,27.211 63.9476,69.39 92.5199,103.404 14.9665,17.687 19.0482,38.097 34.0147,57.145 8.1635,9.524 14.9663,12.245 23.1299,23.13 19.0482,27.212 62.587,69.39 92.5198,103.404 99.3228,115.651 208.1698,231.3 322.4589,345.59 54.4235,53.063 99.3229,126.534 172.7945,161.909 601.3791,-216.333 1247.6575,-387.768 1946.9987,-507.499 l 0,-990.506 c -144.2221,-51.702 -285.723,-106.126 -414.9787,-172.795 10.8847,-227.218 13.6058,-462.599 10.8847,-703.423 -48.9812,-81.635 -126.5345,-134.698 -183.6791,-206.808 -54.4235,-72.112 -130.6163,-122.454 -172.7945,-206.81 l 0,-1047.65 c 397.2911,-24.491 839.4816,-5.443 1255.821,-10.885 l 0,-817.713 c 31.2934,-44.899 58.5052,-93.88 115.6499,-115.65 246.266,-25.85 541.5132,-4.081 806.8275,-10.884 l 0,-448.994 c -887.1021,-8.163 -1804.1372,14.967 -2672.1911,-10.885 -27.2118,-29.932 -63.9476,-51.702 -80.2746,-92.519 -27.2118,-1382.3555 -4.0818,-2815.0527 -10.8847,-4216.4563 31.2934,-44.8994 58.5052,-93.8806 115.6498,-115.6499 303.4107,-25.8512 655.8025,-4.0817 979.622,-10.8847 25.8511,4.0817 -5.4423,68.0293 46.2599,46.26 189.1215,-5.4424 439.4694,8.1635 657.1632,0 53.0628,-1.3606 172.7944,29.9328 149.6644,-69.39 36.7359,-25.851 -47.6205,-28.5723 -57.1446,-46.2599 -204.088,-84.3563 -414.9787,-160.5491 -610.9032,-253.069 -46.26,-28.5723 -35.3752,21.7693 -69.3899,34.0147 -21.7693,-16.3271 -50.3417,-27.2117 -80.2746,-34.0147 36.7358,-112.9286 88.4382,-210.8909 126.5346,-322.4589 25.8511,-20.4088 9.5241,-82.9958 57.1446,-80.2746 9.5241,24.4906 50.3417,19.0482 69.3899,34.0147 12.2452,29.9328 -39.4571,59.8657 10.8847,57.1446 208.1696,92.5198 429.9451,168.7126 634.0331,265.3143 38.0963,2.7211 65.3081,38.0964 80.2746,0 31.2934,-35.3753 14.9664,-61.2264 -23.13,-80.2746 -119.7315,-125.1739 -287.0836,-296.6078 -425.8635,-438.1087 -35.3752,-35.3753 -69.3898,-74.8323 -92.5199,-69.39 -16.3269,4.0818 -16.3269,24.4906 -46.2599,23.13 -12.2452,-29.9328 -46.2599,-39.4569 -57.1446,-69.3899 77.5535,-77.5534 145.5828,-163.2703 229.9391,-242.1843 24.4906,-23.1299 53.0629,-59.8658 92.5198,-57.1446 6.803,31.2934 47.6205,28.5723 46.26,69.3898 -44.8994,48.9812 32.6541,78.9141 80.2746,126.5346 106.1257,104.7651 232.6602,232.6602 345.5888,345.5889 44.8994,44.8993 80.2746,126.5345 149.6645,103.4045 31.2935,-24.4905 13.6059,-55.784 -10.8847,-80.2746 -77.5534,-234.0208 -176.8762,-444.9116 -265.3142,-668.0477 -5.4424,-53.0629 -48.9812,17.6876 -57.1447,-12.2454 -14.9664,-23.1299 -21.7694,-54.4233 -34.0146,-80.2745 92.5198,-57.1446 210.8909,-88.4381 311.5741,-138.7798 36.7359,5.4423 68.0294,-54.4234 92.5199,-23.13 2.7212,35.3753 24.4906,51.7023 34.0147,80.2746 -24.4906,21.7694 -59.8658,13.6058 -34.0147,57.1446 92.5199,214.9726 183.6791,431.3059 265.3143,657.1631 23.13,19.0482 9.5241,74.8322 69.39,57.1446 36.7358,-2.7211 39.4569,-38.0964 34.0146,-80.2745 l 0,-725.1925 c 10.8847,-42.1781 -50.3417,-12.2452 -57.1446,-34.0145 l 0,-92.52 c 145.5827,8.1635 322.4589,-14.9664 448.9934,10.8848 -6.8029,24.4905 13.6058,76.1928 -10.8847,80.2745 -4.0818,25.8511 -68.0293,-5.4423 -46.2599,46.2599 l 0,783.6976 c 470.7628,106.1258 757.847,394.57 863.973,863.9723 l 702.061,0 c 48.981,17.6876 -2.721,-63.9476 46.26,-46.2599 l 1393.241,0 0,-1002.7521 c 46.26,6.803 122.452,-14.9664 149.664,10.8847 14.966,276.199 -19.048,602.7397 0,897.9869 1.36,20.4088 -23.13,100.6833 34.015,92.5199 47.62,1.3606 12.245,-80.2746 23.129,-115.6499 l 0,-783.6976 c 10.885,-31.2935 -23.129,-107.4863 23.131,-103.4045 76.192,-25.8512 54.423,38.0964 69.389,69.3899 39.458,85.7169 57.145,159.1886 103.405,242.1843 13.606,23.1299 35.375,48.9811 57.144,80.2745 23.131,32.6541 59.867,74.8324 92.52,115.6499 53.063,65.3081 103.405,126.5345 172.795,183.6791 25.851,21.7694 43.539,32.654 80.275,57.1446 10.885,8.1636 21.768,27.2118 34.014,34.0147 31.293,20.4088 69.39,28.5723 103.405,46.2599 34.014,17.6877 59.866,31.2935 92.519,46.26 129.256,55.784 280.281,112.9286 438.109,126.5344 240.824,20.4089 511.581,0 771.453,0 223.136,0 436.747,-13.6058 668.048,0 16.326,1.3607 69.389,-17.6876 69.389,23.13 l 0,57.1446 c -425.863,27.2118 -902.068,4.0817 -1348.341,10.8847 l -92.52,0 c -39.457,-9.5241 -54.422,6.803 -46.26,46.2599 4.082,42.1782 58.506,21.7695 80.276,23.13 440.829,17.6877 949.689,-13.6059 1405.485,0 l 0,265.3143 -149.665,0 c -8.164,429.9452 14.967,891.1839 -10.884,1302.0809 -97.962,34.0147 -314.296,44.8994 -379.605,-23.1299 l 0,-634.0332 c 0,-208.1696 9.525,-414.9788 -10.883,-610.9032 -82.997,293.8867 -178.238,571.4462 -276.199,863.9723 -31.294,93.8804 -58.506,189.1214 -103.405,276.199 -82.996,8.1634 -152.386,-12.2454 -206.809,-34.0147 -57.145,-23.13 -114.29,-48.9811 -138.78,-103.4045 106.126,-334.7043 223.136,-659.8844 322.459,-1002.7521 z m 1325.211,-2511.642 c 96.601,8.1635 185.039,-4.0818 229.939,-23.13 69.39,-29.9329 81.636,-47.6206 126.535,-103.4046 24.49,-29.9329 59.865,-68.0293 69.389,-92.5198 47.621,-118.371 12.246,-259.872 -46.26,-322.4589 -8.163,-8.1635 -4.082,-24.4905 -10.885,-34.0146 -16.326,-19.0482 -46.26,-25.8512 -69.389,-46.26 -9.524,-8.1635 -13.606,-25.8511 -23.13,-34.0147 -14.966,-13.6058 -31.294,-10.8846 -46.26,-23.1299 -9.524,-8.1635 -13.605,-27.2117 -23.13,-34.0147 -12.245,-9.5241 -35.375,-13.6059 -46.26,-23.13 -114.289,-91.1592 -265.315,-205.4485 -356.474,-265.3142 0,-6.803 -1.36,-13.6059 -10.884,-10.8847 -225.858,315.656 -462.6,619.0667 -691.178,933.3621 70.751,48.9811 131.977,106.1257 206.81,149.6645 91.159,-111.5681 167.351,-240.8238 265.313,-345.589 136.059,97.9623 259.873,208.1698 425.864,276.199 z M 5706.1395,2820.5304 c -16.3271,6.8029 -28.5723,17.6876 -34.0147,34.0146 -81.6352,42.1782 -164.6309,104.7651 -229.9391,149.6645 -35.3752,24.4905 -62.5869,47.6205 -92.5198,69.3898 -20.4088,13.606 -34.0146,25.8512 -46.2599,34.0147 -123.8133,85.7169 -259.872,160.5492 -368.7189,265.3144 85.717,112.9286 171.4339,228.5784 253.0691,345.5888 84.3563,121.0921 155.1067,248.9873 253.069,356.4736 19.0482,46.2599 42.1782,88.438 80.2746,115.6498 23.1299,44.8993 38.0964,99.3228 92.5198,115.6498 53.0629,-35.3752 118.3711,-88.4381 161.9097,-115.6498 10.8847,-6.803 13.606,-16.3271 23.1301,-23.1299 16.327,-12.2454 39.4569,-10.8847 57.1446,-23.1301 5.4423,-2.7211 6.8029,-19.0482 10.8846,-23.1299 9.5241,-8.1635 23.13,-4.0818 34.0147,-10.8846 5.4423,-4.0819 5.4423,-19.0483 10.8847,-23.1301 9.5241,-6.8029 25.8511,-5.4423 34.0147,-10.8846 27.2117,-19.0482 53.0628,-43.5388 69.3898,-57.1446 9.5241,-8.1636 23.13,-4.0818 34.0147,-10.8848 5.4423,-4.0817 5.4423,-19.0482 10.8847,-23.1299 9.5241,-6.803 25.8511,-5.4424 34.0147,-10.8847 28.5723,-19.0482 51.7022,-44.8993 69.3898,-57.1446 9.5241,-8.1635 23.13,-4.0818 34.0147,-10.8848 5.4424,-4.0817 5.4424,-19.0482 10.8847,-23.1299 9.5241,-6.8029 25.8511,-5.4424 34.0146,-10.8846 53.0629,-38.0964 93.8805,-81.6352 149.6645,-103.4046 -2.7212,-43.5388 -43.5388,-48.9811 -46.2599,-92.5198 -36.7359,-9.5241 -25.8512,-66.6688 -69.39,-69.39 -198.6455,131.9769 -383.6852,277.5596 -587.7731,402.7336 -51.7023,-93.8806 -126.5346,-164.631 -172.7945,-265.3144 174.155,-118.371 340.1466,-243.5448 518.3833,-356.4736 -2.7211,-43.5386 -36.7358,-55.784 -46.2599,-92.5198 -28.5723,-17.6876 -29.9329,-62.5869 -69.3899,-69.3899 -69.3899,47.6205 -140.1403,108.847 -206.8091,138.7798 -4.0817,1.3606 -6.8029,20.4088 -10.8847,23.1299 -5.4423,4.0819 -17.6876,-2.7211 -23.1299,0 -4.0818,1.3606 -6.803,20.4089 -10.8847,23.1301 -88.4381,61.2263 -178.2368,123.8133 -276.199,172.7944 -40.8176,-74.8323 -95.2411,-134.698 -138.7797,-206.8091 187.7608,-130.6163 371.4399,-266.6749 564.6432,-391.8488 -28.5723,-63.9476 -66.6687,-118.371 -115.6499,-161.9098 z m 1474.8753,-299.3289 c -13.6058,-85.717 -92.5198,-172.7945 -149.6644,-206.8092 -57.1446,-34.0147 -123.8133,-57.1446 -219.0543,-46.2599 -274.8385,85.7169 -489.8112,231.2996 -748.3224,334.7041 168.7126,357.8342 336.0647,715.6684 518.3833,1059.8967 65.3081,-46.26 146.9433,-74.8323 219.0543,-115.6498 -62.5869,-156.4674 -149.6645,-288.4443 -206.8091,-448.9935 80.2746,-23.13 134.6981,-72.1111 253.069,-57.1446 165.9915,76.1928 318.3772,165.9915 484.3687,242.1843 100.6834,-38.0964 200.0061,-76.1928 276.199,-138.7797 -201.3667,-85.7169 -346.9495,-228.5785 -598.6579,-265.3144 97.9622,-85.7169 197.285,-191.8426 172.7945,-356.4735 z m 6197.4692,668.0477 c 77.554,34.0146 149.665,73.4717 229.94,103.4045 48.981,-112.9286 114.289,-235.3813 161.909,-333.3436 17.688,-36.7358 23.131,-88.4381 57.145,-115.6498 151.025,87.0775 323.819,152.3857 484.369,229.939 9.524,-74.8322 61.226,-107.4862 69.389,-183.6791 -161.909,-76.1928 -333.344,-142.8615 -484.368,-229.939 53.062,-70.7505 70.75,-174.155 126.534,-242.1844 89.799,47.6205 186.401,84.3564 276.199,126.5346 95.241,44.8993 183.679,96.6015 288.444,126.5345 19.049,-65.3081 55.785,-114.2893 80.275,-172.7945 -274.838,-115.6497 -536.07,-247.6267 -806.828,-368.7188 -156.466,357.8342 -329.262,699.3413 -484.369,1059.8966 z M 8171.5216,1830.0237 c -329.2619,-38.0964 -597.2974,76.1928 -714.3078,288.4442 -59.8657,238.1026 97.9622,382.3247 299.329,402.7336 221.7756,23.1299 536.0709,-89.7988 564.6432,80.2745 10.8847,66.6687 -35.3752,127.8951 -80.2746,161.9098 -76.1928,57.1446 -182.3185,76.1928 -299.3289,69.3898 -69.3899,-34.0146 -122.4528,-84.3563 -161.9098,-149.6645 -63.9475,40.8176 -144.222,62.587 -219.0544,92.5199 -13.6058,31.2934 20.4089,44.8994 34.0147,69.3899 12.2454,20.4088 19.0482,51.7023 34.0147,69.3899 13.6058,14.9665 38.0964,31.2934 57.1446,46.2599 80.2746,63.9476 198.6456,97.9623 356.4736,80.2746 157.828,-17.6876 390.4882,-129.2557 461.2387,-219.0544 8.1634,-10.8846 12.2453,-38.0964 23.1299,-57.1446 10.8847,-19.0482 29.9329,-31.2935 34.0147,-46.2599 50.3417,-163.2704 -21.7694,-265.3143 -80.2746,-356.4736 -80.2746,-57.1446 -172.7945,-89.7986 -311.5742,-92.5199 -190.482,-2.7211 -435.3876,95.2411 -495.2533,-80.2745 36.7358,-99.3228 209.5302,-190.4821 345.5888,-161.9098 72.1111,16.3271 80.2746,77.5534 138.7798,103.4046 65.3081,-35.3753 149.6644,-50.3417 219.0544,-80.2746 -27.2118,-114.2893 -117.0105,-167.3521 -206.8092,-219.0544 z m 3974.2714,691.1778 c 5.443,38.0964 28.573,92.5198 46.26,126.5344 123.814,251.7084 531.989,421.7817 840.843,311.5742 44.899,-16.327 72.11,-46.2599 103.404,-69.3899 9.524,-8.1634 25.851,-4.0817 34.015,-10.8847 40.817,-31.2934 87.077,-89.7986 103.405,-126.5344 1.36,-4.0818 20.408,-6.803 23.129,-10.8848 16.328,-25.851 23.131,-63.9475 34.014,-92.5198 42.18,-102.044 77.555,-227.2179 69.391,-345.5889 -8.164,-119.7316 -68.03,-221.7755 -115.65,-288.4442 -36.736,-50.3418 -89.799,-93.8804 -138.78,-115.6499 -4.082,-1.3606 -6.803,-20.4088 -10.884,-23.1299 -111.568,-66.6688 -338.786,-122.4528 -461.239,-115.6499 -149.665,9.5241 -235.382,78.9141 -345.59,149.6645 -133.337,160.5492 -219.054,393.2094 -183.679,610.9033 z M 8643.645,1657.2292 c 54.4234,284.3625 108.8469,604.1002 161.9097,874.8569 17.6876,95.241 36.7358,189.1214 69.3899,276.199 70.7504,-25.8511 153.7462,-38.0965 242.1843,-46.2599 -81.6352,-379.6035 -141.5009,-779.6159 -229.939,-1152.4165 -72.1111,23.1299 -149.6645,42.1781 -242.1844,46.2599 z m 1738.828,-161.9098 c 136.059,213.6121 269.397,436.7482 402.734,657.1632 2.722,175.5156 -12.245,333.3436 -23.13,495.2533 91.159,-2.7211 175.516,1.3606 253.069,10.8847 12.246,-153.7462 24.49,-306.1319 23.13,-472.1234 77.554,-118.371 171.434,-220.415 253.069,-334.7042 44.899,-51.7023 84.356,-107.4863 126.534,-161.9097 43.54,-54.4234 95.241,-107.4863 126.535,-172.7944 -103.404,8.1635 -172.795,-19.0482 -276.198,-12.2453 -127.896,130.6163 -213.613,300.6895 -334.705,438.1087 -95.241,-153.7463 -183.679,-315.656 -276.199,-472.1234 -95.241,2.7212 -212.251,-32.6541 -299.329,0 13.605,1.3606 16.327,13.6058 23.13,23.1299 z m -1220.4447,57.1447 c -8.1635,77.5534 12.2452,126.5345 10.8846,195.9244 129.2557,-8.1635 255.7903,-20.4088 379.6036,-34.0147 34.0147,318.3772 55.784,650.3602 92.5198,967.3768 85.7169,-6.803 165.9915,-17.6876 253.069,-23.13 -36.7357,-317.0166 -57.1446,-648.9996 -92.5198,-967.3767 129.2561,-8.1635 255.7905,-20.4089 379.6035,-34.0147 -1.361,-70.7505 -5.443,-140.1403 -23.13,-195.9244 -325.18,39.457 -661.2447,68.0293 -1002.7519,92.5199 z M 17329.626,3430.073 c 48.981,46.2599 102.044,89.7987 149.665,138.7797 46.26,46.26 81.636,102.044 126.535,149.6645 65.307,70.7505 138.78,131.9768 206.808,206.809 21.77,24.4906 35.375,55.7842 57.145,80.2747 29.933,35.3752 69.391,63.9475 103.405,103.4045 28.572,32.6541 58.505,74.8322 92.52,115.6499 21.769,25.8511 35.375,54.4234 57.145,80.2746 39.456,47.6205 82.995,93.8804 126.534,149.6644 50.341,65.3082 100.683,127.8951 149.664,195.9244 20.409,28.5723 34.015,47.6205 57.145,80.2746 19.048,27.2117 35.375,48.9811 57.144,80.2745 19.049,27.2118 35.376,50.3418 57.145,80.2746 58.505,81.6352 136.058,193.2033 195.924,288.4443 35.375,55.784 65.309,112.9286 103.405,172.7945 8.164,12.2452 13.606,31.2934 23.131,46.2599 21.768,35.3752 51.701,76.1928 80.274,126.5345 47.62,85.7169 97.962,170.0732 149.664,265.3142 191.843,349.6707 375.522,740.1589 529.269,1140.1713 25.85,68.0293 43.538,138.7798 69.389,206.809 10.885,29.9329 36.735,63.9476 46.26,92.5199 23.13,68.0294 44.899,133.3375 69.39,206.8092 74.832,227.2178 146.944,508.8592 206.809,760.5676 25.851,111.568 59.866,225.8572 80.275,334.7041 23.129,117.0105 38.096,236.7421 57.144,356.4736 25.851,156.4675 50.341,319.7377 69.39,484.3687 121.092,1070.7808 54.424,2151.0868 -138.78,3076.2848 -156.467,752.404 -401.373,1451.745 -691.178,2085.778 -58.504,127.895 -110.207,258.511 -172.794,379.604 -31.293,59.866 -72.111,112.928 -103.405,172.794 -32.654,59.866 -57.145,125.175 -92.52,183.679 -133.337,229.94 -273.477,458.518 -425.863,680.293 -27.211,39.457 -48.981,80.275 -80.274,126.534 -16.328,24.492 -35.375,47.621 -57.145,80.276 -20.409,31.293 -63.948,77.553 -92.52,115.649 -80.274,108.847 -157.828,219.055 -242.184,322.46 -160.55,201.366 -333.344,398.651 -518.384,587.772 -91.159,92.52 -182.318,182.319 -276.198,276.199 -92.52,92.52 -178.238,187.761 -276.199,276.2 -25.852,23.129 -54.424,35.375 -80.275,57.144 -23.13,20.409 -44.9,47.62 -69.39,69.39 -95.241,82.995 -194.564,170.073 -299.329,253.069 -63.948,50.342 -129.255,100.683 -195.924,149.664 -13.607,9.524 -32.654,12.245 -46.26,23.13 -24.49,17.688 -44.9,51.703 -69.39,69.39 -14.966,10.885 -31.294,12.245 -46.26,23.13 -24.491,17.688 -46.261,32.654 -80.275,57.145 -12.245,8.164 -21.769,25.851 -34.014,34.014 -16.328,10.885 -43.539,12.246 -57.145,23.131 -17.688,13.605 -17.688,23.129 -34.014,34.014 -39.457,27.211 -80.275,48.981 -126.536,80.274 -12.244,8.164 -19.047,24.492 -34.014,34.015 -27.211,17.688 -63.947,27.212 -92.52,46.261 -12.245,8.162 -23.129,27.211 -34.014,34.014 -13.606,8.164 -34.015,14.966 -46.26,23.13 -53.063,34.015 -108.847,65.308 -172.795,103.404 -29.933,17.688 -51.701,40.818 -80.274,57.145 -58.506,35.375 -125.174,59.866 -183.679,92.52 -10.885,5.442 -23.131,28.572 -34.015,34.014 -39.457,21.77 -88.438,43.539 -138.779,69.391 -353.753,187.76 -737.439,365.997 -1140.172,518.383 -232.661,87.077 -477.565,170.073 -725.192,242.184 -92.52,27.212 -228.579,65.308 -334.704,92.52 -145.583,38.096 -299.33,73.471 -448.994,103.405 -983.704,197.285 -2179.659,246.266 -3306.2241,103.404 -77.5533,-9.524 -151.025,-32.654 -229.939,-46.259 -156.4674,-25.852 -318.3771,-47.621 -472.1234,-80.276 -884.381,-191.842 -1718.4203,-503.416 -2442.2521,-874.856 -61.2264,-31.294 -121.0921,-62.587 -172.7944,-103.405 -236.7421,-119.732 -468.0417,-254.43 -691.1778,-402.734 -6.803,-5.442 -16.3271,-19.047 -23.1299,-23.129 -8.1636,-5.443 -24.4906,-4.082 -34.0147,-12.246 -17.6876,-12.245 -28.5723,-34.014 -46.2599,-46.26 -10.8847,-8.163 -24.4906,-5.442 -34.0147,-10.884 -8.1636,-5.443 -16.327,-17.687 -23.1299,-23.13 -8.1636,-5.442 -25.8512,-4.082 -34.0147,-10.885 -13.6058,-10.885 -43.5388,-40.817 -69.3899,-57.145 -81.6352,-55.784 -178.2368,-130.616 -265.3143,-195.924 -32.6541,-24.49 -70.7505,-43.539 -103.4045,-69.389 -16.3271,-13.607 -27.2118,-31.295 -46.26,-46.26 -34.0146,-25.852 -65.3081,-50.342 -103.4045,-80.276 -8.1635,-6.803 -14.9665,-17.687 -23.13,-23.129 -8.1635,-6.803 -25.8511,-4.082 -34.0147,-12.246 -34.0146,-27.211 -59.8657,-63.948 -92.5198,-92.519 -16.327,-14.967 -40.8176,-20.41 -57.1446,-34.015 -13.6058,-12.245 -20.4088,-34.015 -34.0147,-46.26 -17.6875,-14.966 -38.0964,-17.688 -57.1446,-34.015 -42.1781,-36.736 -88.4381,-93.881 -138.7798,-138.78 -32.654,-29.932 -72.1111,-50.342 -103.4045,-80.274 -29.9329,-27.211 -51.7023,-63.948 -80.2746,-92.52 -62.5869,-61.227 -138.7798,-110.208 -195.9244,-172.794 -31.2935,-34.015 -50.3417,-72.112 -80.2746,-103.405 -25.8511,-27.212 -63.9475,-51.702 -92.5199,-80.275 -59.8657,-62.586 -112.9286,-130.616 -172.7944,-195.923 -28.5723,-31.295 -62.5869,-58.506 -92.5198,-92.52 -8.1635,-8.164 -5.4424,-25.852 -10.8847,-34.016 -10.8848,-14.965 -29.933,-23.129 -46.2599,-46.26 -21.7695,-31.293 -72.1111,-76.192 -103.4046,-115.649 -51.7023,-62.587 -106.1257,-134.699 -161.9097,-206.809 -6.803,-8.164 -17.6877,-14.967 -23.1301,-23.131 -12.2452,-14.965 -20.4087,-35.375 -34.0145,-57.143 -10.8848,-16.328 -39.4571,-44.9 -57.1447,-69.391 -114.2892,-152.386 -248.9872,-333.343 -356.4735,-507.498 -10.8847,-17.688 -21.7694,-34.016 -34.0147,-57.145 -5.4423,-9.524 -5.4423,-24.491 -10.8847,-34.014 -10.8847,-17.688 -35.3753,-29.934 -46.2599,-46.26 -8.1636,-10.885 -5.4424,-24.491 -10.8847,-34.016 -12.2452,-19.047 -40.8176,-51.702 -57.1446,-80.274 -25.8512,-42.178 -53.0629,-89.798 -80.2746,-138.78 -153.7463,-265.313 -311.5743,-563.282 -448.9935,-863.972 -304.7713,-666.687 -545.595,-1382.355 -714.30771,-2189.182 -172.79437,-831.319 -232.66022,-1825.907 -161.90976,-2695.3212 92.51991,-1136.0894 372.80067,-2129.3173 725.19247,-2994.65 29.9329,-73.4717 77.5534,-164.631 115.6499,-253.0691 164.6308,-386.4065 380.9641,-766.01 598.6578,-1117.0412 371.4401,-600.0185 790.5006,-1145.6136 1266.7057,-1635.4246 809.5488,-835.3998 1742.9108,-1533.3805 2844.9856,-2050.4033 119.7316,-55.784 234.0209,-115.6497 368.7188,-172.7943 42.1782,-17.6877 103.4046,-46.26 161.9098,-69.39 36.7359,-14.9664 77.5534,-19.0482 115.6498,-34.0147 5.4424,-2.7211 19.0482,-21.7693 23.13,-23.1299 27.2117,-8.1635 50.3417,-10.8847 80.2745,-23.13 170.0734,-65.3081 368.7189,-136.0585 564.6434,-195.9244 605.4607,-183.67909 1299.3597,-334.70423 2039.5185,-402.73346 394.5698,-36.7358 806.8268,-35.37529 1232.6908,-23.12995 1344.259,40.81754 2514.363,363.27641 3489.903,783.69761 1156.499,497.9745 2134.76,1185.0705 2937.506,1957.8835 z"
   class="fil0" /><path
   style="fill:#274563"
   inkscape:connector-curvature="0"
   id="path3119"
   d="m 12672.34,1993.2939 c 235.381,-50.3416 401.373,66.6688 461.239,229.9391 14.966,153.7463 -14.966,254.4297 -69.39,356.4736 -46.26,88.4381 -72.112,133.3374 -161.91,172.7945 -28.572,12.2452 -77.553,32.654 -126.534,34.0146 -131.977,4.0818 -308.854,-92.5199 -356.474,-219.0543 -62.587,-164.631 10.885,-349.6707 115.65,-507.4987 50.342,-17.6876 69.39,-69.3899 138.78,-69.3899 z"
   class="fil0" /><path
   style="fill:#274563"
   inkscape:connector-curvature="0"
   id="path3121"
   d="m 6498.0007,2937.5408 c -24.4906,-103.4046 -85.717,-167.3522 -115.6499,-265.3143 110.2075,-63.9476 227.2179,-100.6834 345.5888,-172.7945 13.6059,-8.1635 76.1929,5.4424 115.6499,0 47.6205,39.457 92.5199,73.4717 92.5199,138.7798 0,85.7169 -88.4382,134.6981 -183.6792,183.6791 -91.1593,47.6205 -187.7608,97.9623 -253.069,115.6499 z"
   class="fil0" /><path
   style="fill:#274563"
   inkscape:connector-curvature="0"
   id="path3123"
   d="m 15552.701,3295.3749 c 103.405,85.717 229.939,146.9433 299.329,265.3143 14.966,156.4674 -89.799,229.9391 -195.924,195.9244 -110.208,-35.3753 -232.661,-152.3856 -299.329,-195.9244 65.307,-88.4381 133.337,-172.7945 195.924,-265.3143 z"
   class="fil0" /><path
   style="fill:#274563"
   inkscape:connector-curvature="0"
   id="path3125"
   d="m 8560.6492,4688.6151 c -13.6059,1.3606 -6.8029,-16.3271 0,0 z"
   class="fil0" /><path
   style="fill:#274563"
   inkscape:connector-curvature="0"
   id="path3127"
   d="m 8560.6492,4688.6151 c 9.5241,2.7211 13.6058,9.5241 10.8847,23.13 -9.5241,-2.7212 -13.6059,-9.5241 -10.8847,-23.13 z"
   class="fil0" /><path
   style="fill:#274563"
   inkscape:connector-curvature="0"
   id="path3129"
   d="m 8571.5339,4711.7451 c 9.5241,2.7212 13.6058,9.5241 10.8847,23.1299 -9.5241,-2.7211 -13.6059,-9.5241 -10.8847,-23.1299 z"
   class="fil0" /><path
   style="fill:#274563"
   inkscape:connector-curvature="0"
   id="path3131"
   d="m 7937.5007,4964.8141 c -13.6058,1.3606 -6.8028,-16.3271 0,0 z"
   class="fil0" /><path
   style="fill:#274563"
   inkscape:connector-curvature="0"
   id="path3133"
   d="m 17868.419,6266.895 c 76.192,-43.5387 165.992,-70.7505 229.938,-126.5345 19.049,-2.7211 20.41,10.8847 34.016,10.8847 16.326,50.3417 63.947,115.6498 103.404,195.9245 34.015,68.0292 88.438,160.5491 80.275,219.0542 -10.885,85.717 -130.617,163.2704 -242.185,92.5199 -76.193,-123.8133 -157.828,-242.1843 -206.809,-391.8488 z"
   class="fil0" /><path
   style="fill:#274563"
   inkscape:connector-curvature="0"
   id="path3135"
   d="m 14343.14,6509.0793 c -1.361,-13.6058 16.327,-6.8029 0,0 z"
   class="fil0" /><path
   style="fill:#274563"
   inkscape:connector-curvature="0"
   id="path3137"
   d="m 18858.925,7925.4495 c -69.389,204.088 -287.084,319.7378 -564.643,276.199 -161.909,-57.1446 -253.069,-185.0397 -242.184,-414.9788 9.524,-28.5723 25.851,-57.1446 46.259,-92.5199 25.852,-46.2599 39.457,-63.9475 80.276,-103.4045 46.26,-43.5388 204.087,-108.8469 288.443,-115.6498 250.348,-19.0481 412.258,159.1886 391.849,448.9934 z"
   class="fil0" /><path
   style="fill:#274563"
   inkscape:connector-curvature="0"
   id="path3139"
   d="m 13502.298,8432.9481 c 31.293,10.8848 107.487,-23.1299 103.405,23.13 l -103.405,0 0,-23.13 z"
   class="fil0" /><path
   style="fill:#274563"
   inkscape:connector-curvature="0"
   id="path3141"
   d="m 2384.9487,8582.6127 c -13.6058,121.0921 -40.8175,228.5784 -69.3898,334.7041 -97.9623,-57.1446 -191.8427,-129.2556 -288.4443,-195.9243 -28.5723,-20.4089 -74.8322,-25.8512 -80.2746,-69.39 156.4674,-12.2452 281.6413,-55.784 438.1087,-69.3898 z"
   class="fil0" /><path
   style="fill:#274563"
   inkscape:connector-curvature="0"
   id="path3143"
   d="m 12707.715,10367.701 c 9.524,2.722 13.606,9.525 10.885,23.131 -9.524,-2.721 -13.606,-9.524 -10.885,-23.131 z"
   class="fil0" /><path
   style="fill:#274563"
   inkscape:connector-curvature="0"
   id="path3145"
   d="m 12718.6,10390.832 c 13.606,-1.361 6.803,16.326 0,0 z"
   class="fil0" /><path
   style="fill:#274563"
   inkscape:connector-curvature="0"
   id="path3147"
   d="m 10714.456,12833.083 c -5.442,-5.442 8.164,-14.966 10.885,-10.885 5.443,5.443 -8.163,14.967 -10.885,10.885 z"
   class="fil0" /><path
   style="fill:#274563"
   inkscape:connector-curvature="0"
   id="path3149"
   d="m 12811.12,12856.213 c 47.62,-10.885 2.721,34.014 0,0 z"
   class="fil0" /><path
   style="fill:#274563"
   inkscape:connector-curvature="0"
   id="path3151"
   d="m 10748.472,13926.995 c 1.36,-13.607 20.408,-9.525 34.014,-10.885 -1.361,13.606 -20.409,9.524 -34.014,10.885 z"
   class="fil0" /><path
   style="fill:#274563"
   inkscape:connector-curvature="0"
   id="path3153"
   d="m 15494.196,15355.61 c -25.852,35.375 -73.472,-13.606 0,0 z"
   class="fil0" /><path
   style="fill:#274563"
   inkscape:connector-curvature="0"
   id="path3155"
   d="m 15517.325,15378.739 c -5.441,-5.442 8.164,-14.966 10.885,-10.884 5.443,5.442 -8.163,14.966 -10.885,10.884 z"
   class="fil0" /><path
   style="fill:#274563"
   inkscape:connector-curvature="0"
   id="path3157"
   d="m 9688.5751,16105.293 0,853.087 -242.1843,0 0,-541.513 c -84.3564,34.015 -141.501,96.601 -253.0691,103.404 l 0,-183.679 c 130.6163,-46.26 238.1026,-115.65 299.329,-229.939 l 195.9244,0 z"
   class="fil0" /><path
   style="fill:#274563"
   inkscape:connector-curvature="0"
   id="path3159"
   d="m 10126.684,16322.986 c -17.688,144.222 28.572,214.973 115.649,206.81 115.65,-9.525 131.977,-193.204 46.26,-265.315 -76.192,-29.933 -133.337,6.803 -161.909,57.144 z m -206.8092,438.109 c 77.553,0 138.7792,-14.967 206.8092,-23.129 32.654,-1.361 32.654,28.572 34.015,57.143 13.606,17.688 43.538,17.688 57.144,34.016 100.684,-10.885 121.092,-100.684 126.534,-206.81 -14.967,-32.653 -24.489,36.736 -57.144,23.13 -39.457,47.62 -161.909,39.458 -229.939,23.13 -74.8319,-43.538 -127.8949,-110.208 -161.9098,-195.924 l 0,-149.665 c 27.2118,-19.047 13.6057,-48.981 23.13,-69.389 2.7212,-5.443 21.7698,-6.803 23.1294,-10.885 44.9003,-97.962 167.3524,-156.468 345.5894,-138.78 42.177,4.082 89.798,16.328 126.535,34.014 129.255,65.309 200.005,263.955 172.794,507.499 -21.77,187.762 -137.419,330.623 -356.474,334.704 -96.602,1.361 -186.4,-34.014 -253.0684,-80.274 -14.9668,-44.9 -77.5536,-95.241 -57.1448,-138.78 z"
   class="fil0" /><path
   style="fill:#274563"
   inkscape:connector-curvature="0"
   id="path3161"
   d="m 11947.147,16484.896 c 31.294,34.015 84.357,46.26 115.651,80.275 40.817,78.914 36.735,174.155 0,253.069 -42.178,91.159 -153.747,157.828 -299.33,161.909 -175.515,4.082 -326.54,-78.914 -368.718,-229.939 8.163,-42.178 87.077,-12.244 115.65,-34.014 54.423,9.524 74.832,-17.688 126.534,-10.885 16.328,74.833 46.26,123.814 103.405,126.535 115.649,5.441 161.909,-182.319 46.26,-242.184 -44.9,-2.722 -84.357,0 -115.65,12.244 1.36,-59.865 -6.804,-130.616 12.245,-172.794 69.389,8.164 104.765,-17.688 126.534,-57.145 40.818,-161.909 -187.761,-140.14 -172.794,0 -70.751,-21.769 -160.549,-23.129 -229.939,-46.26 25.851,-156.467 198.646,-246.266 414.979,-219.054 50.342,6.803 121.091,25.851 149.664,46.26 104.766,74.832 117.01,270.757 -23.13,334.704 z"
   class="fil0" /><path
   style="fill:#274563"
   inkscape:connector-curvature="0"
   id="path3163"
   d="m 11302.23,16116.178 0,195.923 -356.474,0 c -39.457,6.803 -14.966,77.554 -34.014,103.405 24.491,8.164 59.866,-17.687 115.65,-23.13 24.49,-2.721 58.504,-2.721 80.274,0 59.866,6.804 134.698,39.457 172.794,80.275 8.164,9.524 4.082,24.491 10.885,34.014 5.442,6.803 39.457,36.737 46.26,57.145 6.803,20.409 10.885,61.227 12.245,80.275 10.885,202.727 -160.549,330.623 -345.589,334.703 -74.831,1.361 -185.039,-28.572 -229.939,-57.143 -50.341,-31.295 -117.01,-95.241 -126.534,-183.679 73.471,-6.803 141.501,-20.41 219.054,-23.131 38.096,0 23.131,53.063 46.26,69.391 21.77,25.85 46.26,43.538 69.39,46.259 149.664,14.966 176.876,-262.593 34.015,-288.444 -72.112,-13.606 -95.241,35.375 -149.665,57.144 -72.11,0 -123.813,-23.13 -195.924,-23.13 34.014,-146.943 44.899,-315.655 80.274,-461.238 l 552.399,0 z"
   class="fil0" /><path
   style="fill:#274563"
   inkscape:connector-curvature="0"
   id="path3165"
   d="m 15736.38,16691.706 c 2.722,-9.525 9.525,-13.606 23.13,-12.246 -2.721,9.524 -9.524,13.605 -23.13,12.246 z"
   class="fil0" /><path
   style="fill:#274563"
   inkscape:connector-curvature="0"
   id="path3167"
   d="m 15736.38,16691.706 c 1.361,13.605 -16.327,6.802 0,0 z"
   class="fil0" /><path
   style="fill:#274563"
   inkscape:connector-curvature="0"
   id="path3169"
   d="m 5541.5086,16830.485 c 46.2599,19.048 84.3563,46.26 126.5345,69.39 -59.8658,36.735 -157.828,34.014 -229.9391,57.145 32.654,-43.539 69.3899,-84.357 103.4046,-126.535 z"
   class="fil0" /><path
   style="fill:#274563"
   inkscape:connector-curvature="0"
   id="path3171"
   d="m 7108.9038,17936.641 c 1.3606,-25.851 48.9811,-5.442 69.3899,-10.884 10.8846,73.471 29.9328,138.78 23.13,229.939 -38.0964,-2.721 -32.6541,-76.193 -46.2599,-115.65 -13.606,-40.818 -31.2936,-73.471 -46.26,-103.405 z"
   class="fil0" /><path
   style="fill:#274563"
   inkscape:connector-curvature="0"
   id="path3173"
   d="m 7119.7885,18132.566 c -89.7987,78.914 -265.3143,73.472 -414.9788,92.519 34.0147,-50.341 114.2892,-42.178 172.7945,-57.144 73.4716,-20.409 146.9432,-47.621 195.9244,-80.275 39.4569,-8.163 19.0482,42.178 46.2599,46.26 z"
   class="fil0" /><path
   style="fill:#274563"
   inkscape:connector-curvature="0"
   id="path3175"
   d="m 15656.106,18200.595 c -5.442,-5.442 8.163,-14.966 12.245,-12.245 5.442,5.442 -8.164,14.967 -12.245,12.245 z"
   class="fil0" /><path
   style="fill:#274563"
   inkscape:connector-curvature="0"
   id="path3177"
   d="m 7454.4927,18223.725 c 2.7211,-13.605 12.2452,-6.803 10.8846,0 -2.7211,13.606 -12.2452,6.803 -10.8846,0 z"
   class="fil0" /><path
   style="fill:#274563"
   inkscape:connector-curvature="0"
   id="path3179"
   d="m 7465.3773,18269.985 c 2.7212,-17.687 13.6059,0 10.8847,10.885 -2.7211,17.688 -13.6058,0 -10.8847,-10.885 z"
   class="fil0" /><path
   style="fill:#274563"
   inkscape:connector-curvature="0"
   id="path3181"
   d="m 6567.3905,18339.375 c -5.4424,-5.442 8.1635,-14.967 10.8847,-10.885 5.4424,5.443 -8.1636,14.967 -10.8847,10.885 z"
   class="fil0" /><path
   style="fill:#274563"
   inkscape:connector-curvature="0"
   id="path3183"
   d="m 6590.5205,18373.389 c -34.0147,-2.721 10.8847,-47.62 0,0 z"
   class="fil0" /><path
   style="fill:#274563"
   inkscape:connector-curvature="0"
   id="path3185"
   d="m 7315.7129,18373.389 c -5.4424,-5.442 8.1635,-14.966 10.8846,-10.884 5.4424,5.442 -8.1635,14.966 -10.8846,10.884 z"
   class="fil0" /><path
   style="fill:#274563"
   inkscape:connector-curvature="0"
   id="path3187"
   d="m 12326.751,18731.224 c -6.802,53.063 -34.015,106.125 -57.144,149.665 -17.688,34.014 -36.737,58.504 -57.145,92.52 -5.442,9.523 -4.082,24.49 -12.245,34.014 -2.722,4.082 -21.77,8.164 -23.13,12.246 -6.803,16.326 -8.163,27.211 -23.13,46.259 -19.049,24.49 -34.015,44.9 -57.145,69.39 -1.361,1.36 -10.885,10.885 -10.885,10.885 -14.966,21.768 -25.851,61.226 -69.389,69.389 -50.342,-12.245 -61.227,-74.832 -57.145,-115.649 4.082,-53.063 58.505,-80.274 69.39,-115.651 19.048,-43.538 39.457,-84.356 57.144,-126.534 -12.245,-95.241 -96.602,-118.371 -103.404,-219.054 134.698,-34.015 296.607,2.722 345.588,92.52 z"
   class="fil0" /><path
   style="fill:#274563"
   inkscape:connector-curvature="0"
   id="path3189"
   d="m 11774.353,18674.079 c 42.178,38.097 14.967,145.583 23.13,219.054 -27.212,27.213 -91.16,16.328 -115.65,46.26 16.328,82.997 91.16,108.847 149.665,149.665 9.524,47.62 20.408,93.88 34.014,138.78 -9.524,20.409 -36.735,28.572 -46.259,57.144 -9.525,28.572 4.081,55.785 -10.885,80.275 -17.687,27.212 -40.818,21.769 -57.145,46.26 -34.015,-14.966 -88.438,-12.245 -138.78,-10.884 -76.192,-50.342 -155.106,-97.963 -206.808,-172.795 -35.376,-100.684 17.687,-180.958 23.129,-276.199 36.736,-24.49 61.227,-62.588 115.65,-69.391 69.39,-65.307 145.583,-123.813 195.925,-206.808 l 34.014,0 z"
   class="fil0" />
</svg>