<?xml version="1.0" encoding="UTF-8" standalone="no"?>
<!-- Created with Inkscape (http://www.inkscape.org/) -->

<svg
   width="83.621452mm"
   height="83.619316mm"
   viewBox="0 0 83.621452 83.619316"
   version="1.1"
   id="svg1"
   xmlns="http://www.w3.org/2000/svg"
   xmlns:svg="http://www.w3.org/2000/svg">
  <defs
     id="defs1">
    <clipPath
       clipPathUnits="userSpaceOnUse"
       id="clipPath102">
      <path
         d="M 0,841.89 H 595.276 V 0 H 0 Z"
         transform="translate(-247.95411,-673.74572)"
         id="path102" />
    </clipPath>
    <clipPath
       clipPathUnits="userSpaceOnUse"
       id="clipPath104">
      <path
         d="M 0,841.89 H 595.276 V 0 H 0 Z"
         transform="translate(-247.9849,-683.02312)"
         id="path104" />
    </clipPath>
    <clipPath
       clipPathUnits="userSpaceOnUse"
       id="clipPath106">
      <path
         d="M 0,841.89 H 595.276 V 0 H 0 Z"
         transform="translate(-244.29051,-689.57681)"
         id="path106" />
    </clipPath>
    <clipPath
       clipPathUnits="userSpaceOnUse"
       id="clipPath108">
      <path
         d="M 0,841.89 H 595.276 V 0 H 0 Z"
         transform="translate(-243.82711,-708.74432)"
         id="path108" />
    </clipPath>
    <clipPath
       clipPathUnits="userSpaceOnUse"
       id="clipPath110">
      <path
         d="M 0,841.89 H 595.276 V 0 H 0 Z"
         transform="translate(-261.46441,-717.65492)"
         id="path110" />
    </clipPath>
    <clipPath
       clipPathUnits="userSpaceOnUse"
       id="clipPath112">
      <path
         d="M 0,841.89 H 595.276 V 0 H 0 Z"
         transform="translate(-262.34961,-725.42352)"
         id="path112" />
    </clipPath>
    <clipPath
       clipPathUnits="userSpaceOnUse"
       id="clipPath114">
      <path
         d="M 0,841.89 H 595.276 V 0 H 0 Z"
         transform="translate(-274.68021,-741.04462)"
         id="path114" />
    </clipPath>
    <clipPath
       clipPathUnits="userSpaceOnUse"
       id="clipPath116">
      <path
         d="M 0,841.89 H 595.276 V 0 H 0 Z"
         transform="translate(-294.16651,-737.68182)"
         id="path116" />
    </clipPath>
    <clipPath
       clipPathUnits="userSpaceOnUse"
       id="clipPath118">
      <path
         d="M 0,841.89 H 595.276 V 0 H 0 Z"
         transform="translate(-302.66111,-749.35612)"
         id="path118" />
    </clipPath>
    <clipPath
       clipPathUnits="userSpaceOnUse"
       id="clipPath120">
      <path
         d="M 0,841.89 H 595.276 V 0 H 0 Z"
         transform="translate(-325.12501,-747.32342)"
         id="path120" />
    </clipPath>
    <clipPath
       clipPathUnits="userSpaceOnUse"
       id="clipPath122">
      <path
         d="M 0,841.89 H 595.276 V 0 H 0 Z"
         transform="translate(-333.34371,-732.97962)"
         id="path122" />
    </clipPath>
    <clipPath
       clipPathUnits="userSpaceOnUse"
       id="clipPath124">
      <path
         d="M 0,841.89 H 595.276 V 0 H 0 Z"
         transform="translate(-348.11041,-735.86492)"
         id="path124" />
    </clipPath>
    <clipPath
       clipPathUnits="userSpaceOnUse"
       id="clipPath126">
      <path
         d="M 0,841.89 H 595.276 V 0 H 0 Z"
         transform="translate(-360.02641,-727.02402)"
         id="path126" />
    </clipPath>
    <clipPath
       clipPathUnits="userSpaceOnUse"
       id="clipPath128">
      <path
         d="M 0,841.89 H 595.276 V 0 H 0 Z"
         transform="translate(-365.20801,-719.19742)"
         id="path128" />
    </clipPath>
    <clipPath
       clipPathUnits="userSpaceOnUse"
       id="clipPath130">
      <path
         d="M 0,841.89 H 595.276 V 0 H 0 Z"
         transform="translate(-363.48731,-705.18762)"
         id="path130" />
    </clipPath>
    <clipPath
       clipPathUnits="userSpaceOnUse"
       id="clipPath132">
      <path
         d="M 0,841.89 H 595.276 V 0 H 0 Z"
         transform="translate(-366.80271,-692.11151)"
         id="path132" />
    </clipPath>
    <clipPath
       clipPathUnits="userSpaceOnUse"
       id="clipPath134">
      <path
         d="M 0,841.89 H 595.276 V 0 H 0 Z"
         transform="translate(-368.31841,-682.15882)"
         id="path134" />
    </clipPath>
    <clipPath
       clipPathUnits="userSpaceOnUse"
       id="clipPath136">
      <path
         d="M 0,841.89 H 595.276 V 0 H 0 Z"
         transform="translate(-378.83591,-669.96982)"
         id="path136" />
    </clipPath>
    <clipPath
       clipPathUnits="userSpaceOnUse"
       id="clipPath138">
      <path
         d="M 0,841.89 H 595.276 V 0 H 0 Z"
         transform="translate(-308.11721,-602.84291)"
         id="path138" />
    </clipPath>
    <clipPath
       clipPathUnits="userSpaceOnUse"
       id="clipPath140">
      <path
         d="M 0,841.89 H 595.276 V 0 H 0 Z"
         transform="translate(-354.03811,-638.66561)"
         id="path140" />
    </clipPath>
    <clipPath
       clipPathUnits="userSpaceOnUse"
       id="clipPath142">
      <path
         d="M 0,841.89 H 595.276 V 0 H 0 Z"
         transform="translate(-267.02931,-637.84241)"
         id="path142" />
    </clipPath>
    <clipPath
       clipPathUnits="userSpaceOnUse"
       id="clipPath144">
      <path
         d="M 0,841.89 H 595.276 V 0 H 0 Z"
         transform="translate(-278.82081,-629.65832)"
         id="path144" />
    </clipPath>
    <clipPath
       clipPathUnits="userSpaceOnUse"
       id="clipPath146">
      <path
         d="M 0,841.89 H 595.276 V 0 H 0 Z"
         transform="translate(-285.7822,-627.43271)"
         id="path146" />
    </clipPath>
    <clipPath
       clipPathUnits="userSpaceOnUse"
       id="clipPath148">
      <path
         d="M 0,841.89 H 595.276 V 0 H 0 Z"
         transform="translate(-348.71971,-629.04992)"
         id="path148" />
    </clipPath>
    <clipPath
       clipPathUnits="userSpaceOnUse"
       id="clipPath150">
      <path
         d="M 0,841.89 H 595.276 V 0 H 0 Z"
         transform="translate(-303.64161,-618.58901)"
         id="path150" />
    </clipPath>
    <clipPath
       clipPathUnits="userSpaceOnUse"
       id="clipPath152">
      <path
         d="M 0,841.89 H 595.276 V 0 H 0 Z"
         transform="translate(-325.37401,-612.23842)"
         id="path152" />
    </clipPath>
    <clipPath
       clipPathUnits="userSpaceOnUse"
       id="clipPath154">
      <path
         d="M 0,841.89 H 595.276 V 0 H 0 Z"
         transform="translate(-321.54591,-623.27362)"
         id="path154" />
    </clipPath>
    <clipPath
       clipPathUnits="userSpaceOnUse"
       id="clipPath156">
      <path
         d="M 0,841.89 H 595.276 V 0 H 0 Z"
         transform="translate(-346.47461,-622.41032)"
         id="path156" />
    </clipPath>
    <clipPath
       clipPathUnits="userSpaceOnUse"
       id="clipPath158">
      <path
         d="M 0,841.89 H 595.276 V 0 H 0 Z"
         transform="translate(-308.10641,-632.34442)"
         id="path158" />
    </clipPath>
    <clipPath
       clipPathUnits="userSpaceOnUse"
       id="clipPath160">
      <path
         d="M 0,841.89 H 595.276 V 0 H 0 Z"
         transform="translate(-305.22851,-657.59002)"
         id="path160" />
    </clipPath>
    <clipPath
       clipPathUnits="userSpaceOnUse"
       id="clipPath162">
      <path
         d="M 0,841.89 H 595.276 V 0 H 0 Z"
         transform="translate(-328.07031,-653.73652)"
         id="path162" />
    </clipPath>
  </defs>
  <g
     id="layer1"
     transform="translate(-91.412445,-82.946141)">
    <path
       id="path101"
       d="M 0,0 0.637,-5.315 0.05,-5.386 c -0.107,0.197 -0.22,0.421 -0.34,0.673 -0.119,0.252 -0.214,0.509 -0.288,0.772 l -8.777,-1.051 0.215,-1.793 2.761,-0.672 0.075,-0.634 c -0.2,-0.066 -0.458,-0.138 -0.773,-0.218 -0.314,-0.08 -0.64,-0.155 -0.976,-0.227 -0.336,-0.071 -0.67,-0.138 -1.003,-0.198 -0.332,-0.061 -0.616,-0.105 -0.854,-0.134 l -1.177,9.828 c 0.247,0.03 0.537,0.054 0.869,0.073 0.332,0.019 0.67,0.033 1.013,0.043 0.344,0.01 0.676,0.013 0.995,0.009 0.319,-0.003 0.589,-0.013 0.811,-0.028 l 0.075,-0.634 -2.524,-1.305 0.215,-1.792 8.777,1.051 c 0.02,0.274 0.05,0.547 0.09,0.818 0.041,0.272 0.1,0.516 0.179,0.735 z"
       style="fill:#6e2772;fill-opacity:1;fill-rule:nonzero;stroke:none"
       transform="matrix(0.5333647,0,0,-0.5333647,101.1335,127.12697)"
       clip-path="url(#clipPath102)" />
    <path
       id="path103"
       d="m 0,0 -0.19,-4.852 -0.591,0.023 c -0.212,0.423 -0.346,0.85 -0.402,1.277 l -8.802,0.345 c -0.039,-0.207 -0.104,-0.422 -0.197,-0.647 -0.091,-0.225 -0.193,-0.423 -0.303,-0.595 l -0.591,0.023 0.19,4.852 0.591,-0.023 c 0.107,-0.191 0.194,-0.4 0.264,-0.626 0.069,-0.226 0.114,-0.443 0.137,-0.652 l 8.803,-0.344 c 0.049,0.205 0.115,0.419 0.196,0.638 0.082,0.221 0.183,0.422 0.304,0.604 z"
       style="fill:#6e2772;fill-opacity:1;fill-rule:nonzero;stroke:none"
       transform="matrix(0.5333647,0,0,-0.5333647,101.14992,122.17873)"
       clip-path="url(#clipPath104)" />
    <path
       id="path105"
       d="M 0,0 0.564,2.696 -2.553,2.314 -3.924,2.299 -3.93,2.269 -2.66,1.653 Z M 4.445,-0.866 3.659,-4.629 3.08,-4.508 C 3.013,-4.324 2.96,-4.13 2.923,-3.926 2.886,-3.723 2.867,-3.525 2.864,-3.334 L -6.14,2.651 -5.904,3.778 4.722,5.547 C 4.804,5.742 4.905,5.933 5.024,6.12 5.143,6.308 5.269,6.466 5.402,6.598 L 5.981,6.477 4.984,1.708 4.405,1.83 C 4.354,2.042 4.312,2.268 4.277,2.508 4.242,2.749 4.226,2.975 4.228,3.187 L 1.621,2.809 0.914,-0.573 3.148,-1.979 c 0.158,0.455 0.398,0.866 0.719,1.234 z"
       style="fill:#6e2772;fill-opacity:1;fill-rule:nonzero;stroke:none"
       transform="matrix(0.5333647,0,0,-0.5333647,99.179461,118.68324)"
       clip-path="url(#clipPath106)" />
    <path
       id="path107"
       d="M 0,0 1.574,3.524 2.129,3.276 C 2.19,3.033 2.227,2.778 2.238,2.512 2.25,2.245 2.241,2.005 2.213,1.79 l 8.939,-3.993 -0.539,-1.208 -9.488,-1.779 -1.348,-0.08 -0.019,-0.042 1.194,-0.38 5.926,-2.647 c 0.132,0.168 0.304,0.344 0.517,0.527 0.212,0.184 0.411,0.331 0.597,0.441 l 0.54,-0.241 -1.568,-3.51 -0.54,0.241 c -0.037,0.221 -0.06,0.456 -0.069,0.704 -0.008,0.248 0.004,0.496 0.035,0.743 l -7.746,3.46 c -0.161,-0.155 -0.331,-0.307 -0.51,-0.454 -0.179,-0.147 -0.354,-0.274 -0.526,-0.378 l -0.54,0.241 1.371,3.069 7.733,1.438 1.514,0.108 0.025,0.057 L 6.46,-1.419 1.724,0.696 C 1.547,0.502 1.356,0.323 1.153,0.158 0.949,-0.006 0.75,-0.142 0.555,-0.248 Z"
       style="fill:#6e2772;fill-opacity:1;fill-rule:nonzero;stroke:none"
       transform="matrix(0.5333647,0,0,-0.5333647,98.932311,108.45996)"
       clip-path="url(#clipPath108)" />
    <path
       id="path109"
       d="m 0,0 c -0.039,-0.229 -0.104,-0.495 -0.198,-0.799 -0.094,-0.305 -0.204,-0.615 -0.333,-0.932 -0.129,-0.318 -0.27,-0.625 -0.423,-0.924 -0.154,-0.3 -0.308,-0.553 -0.461,-0.763 -0.525,-0.722 -1.088,-1.296 -1.689,-1.724 -0.602,-0.428 -1.239,-0.703 -1.91,-0.823 -0.672,-0.12 -1.369,-0.077 -2.092,0.129 -0.724,0.206 -1.462,0.585 -2.216,1.134 -0.822,0.6 -1.427,1.237 -1.815,1.911 -0.387,0.674 -0.609,1.356 -0.665,2.045 -0.056,0.689 0.028,1.364 0.251,2.023 0.224,0.658 0.54,1.269 0.95,1.83 0.403,0.554 0.82,1.046 1.25,1.477 0.43,0.431 0.82,0.738 1.17,0.919 0.126,-0.092 0.284,-0.216 0.471,-0.372 0.188,-0.156 0.386,-0.33 0.594,-0.52 0.208,-0.19 0.411,-0.386 0.61,-0.589 0.199,-0.203 0.372,-0.397 0.52,-0.582 L -6.362,2.925 -8.787,3.615 C -8.896,3.553 -9.028,3.437 -9.184,3.268 -9.339,3.099 -9.484,2.922 -9.619,2.738 -9.87,2.394 -10.044,2.014 -10.142,1.598 c -0.098,-0.417 -0.087,-0.855 0.033,-1.315 0.121,-0.46 0.366,-0.934 0.735,-1.422 0.37,-0.488 0.895,-0.98 1.574,-1.475 0.553,-0.403 1.106,-0.707 1.657,-0.91 0.552,-0.203 1.077,-0.307 1.575,-0.31 0.498,-0.004 0.959,0.09 1.381,0.283 0.423,0.193 0.778,0.486 1.065,0.88 0.092,0.126 0.177,0.263 0.253,0.412 0.077,0.15 0.141,0.295 0.194,0.437 0.052,0.142 0.089,0.272 0.112,0.391 0.021,0.119 0.028,0.207 0.019,0.264 L -3.908,0.558 C -4.084,0.352 -4.275,0.177 -4.483,0.033 -4.691,-0.111 -4.902,-0.233 -5.117,-0.333 L -5.594,0.015 -3.091,3.448 -2.613,3.1 C -2.593,2.969 -2.597,2.818 -2.626,2.647 -2.655,2.475 -2.718,2.277 -2.817,2.054 Z"
       style="fill:#6e2772;fill-opacity:1;fill-rule:nonzero;stroke:none"
       transform="matrix(0.5333647,0,0,-0.5333647,108.33941,103.70735)"
       clip-path="url(#clipPath110)" />
    <path
       id="path111"
       d="m 0,0 c 0.443,-0.495 0.892,-0.918 1.347,-1.27 0.455,-0.352 0.902,-0.605 1.341,-0.762 0.44,-0.156 0.867,-0.205 1.282,-0.147 0.414,0.058 0.803,0.25 1.166,0.575 0.332,0.298 0.536,0.638 0.613,1.02 0.076,0.381 0.05,0.79 -0.077,1.227 C 5.545,1.08 5.327,1.538 5.015,2.018 4.703,2.498 4.326,2.985 3.882,3.48 3.439,3.974 2.992,4.399 2.542,4.754 2.09,5.11 1.649,5.369 1.217,5.532 0.785,5.695 0.362,5.748 -0.052,5.689 -0.467,5.632 -0.86,5.436 -1.231,5.104 -1.586,4.785 -1.806,4.432 -1.89,4.043 -1.973,3.654 -1.95,3.244 -1.819,2.811 -1.688,2.377 -1.463,1.924 -1.144,1.451 -0.824,0.978 -0.443,0.494 0,0 m -1.97,-1.766 c -0.541,0.602 -0.956,1.237 -1.246,1.903 -0.291,0.666 -0.438,1.335 -0.442,2.008 -0.004,0.672 0.145,1.331 0.445,1.976 0.299,0.645 0.766,1.251 1.4,1.819 0.633,0.568 1.287,0.966 1.96,1.193 C 0.821,7.361 1.49,7.435 2.154,7.354 2.819,7.274 3.466,7.053 4.097,6.692 4.727,6.33 5.312,5.849 5.853,5.246 6.393,4.643 6.808,4.008 7.099,3.342 7.389,2.676 7.538,2.009 7.545,1.34 7.553,0.67 7.407,0.013 7.107,-0.631 6.808,-1.276 6.341,-1.883 5.708,-2.451 5.074,-3.019 4.42,-3.416 3.746,-3.644 3.073,-3.871 2.402,-3.947 1.734,-3.87 c -0.669,0.077 -1.317,0.296 -1.948,0.658 -0.631,0.361 -1.216,0.843 -1.756,1.446"
       style="fill:#6e2772;fill-opacity:1;fill-rule:nonzero;stroke:none"
       transform="matrix(0.5333647,0,0,-0.5333647,108.81155,99.56387)"
       clip-path="url(#clipPath112)" />
    <path
       id="path113"
       d="M 0,0 3.363,1.895 3.661,1.366 C 3.566,1.133 3.443,0.907 3.294,0.686 3.144,0.465 2.994,0.277 2.844,0.121 l 4.805,-8.53 -1.152,-0.65 -8.683,4.22 -1.13,0.738 -0.041,-0.023 0.733,-1.016 3.186,-5.654 c 0.206,0.056 0.449,0.095 0.729,0.116 0.28,0.02 0.527,0.02 0.742,-0.002 l 0.29,-0.515 -3.349,-1.887 -0.29,0.516 c 0.102,0.199 0.223,0.401 0.364,0.606 0.141,0.204 0.297,0.396 0.47,0.577 l -4.164,7.391 c -0.222,-0.029 -0.448,-0.05 -0.68,-0.062 -0.232,-0.011 -0.447,-0.008 -0.648,0.01 l -0.29,0.515 2.929,1.65 7.069,-3.449 1.281,-0.815 0.054,0.031 L 4.345,-4.986 1.8,-0.467 C 1.542,-0.517 1.283,-0.548 1.021,-0.559 0.759,-0.569 0.518,-0.56 0.298,-0.529 Z"
       style="fill:#6e2772;fill-opacity:1;fill-rule:nonzero;stroke:none"
       transform="matrix(0.5333647,0,0,-0.5333647,115.38827,91.232121)"
       clip-path="url(#clipPath114)" />
    <path
       id="path115"
       d="m 0,0 c -0.167,-0.161 -0.38,-0.335 -0.636,-0.523 -0.257,-0.188 -0.531,-0.372 -0.824,-0.549 -0.292,-0.178 -0.589,-0.341 -0.891,-0.489 -0.302,-0.147 -0.577,-0.26 -0.824,-0.337 -0.853,-0.265 -1.648,-0.389 -2.386,-0.373 -0.738,0.015 -1.412,0.174 -2.023,0.479 -0.61,0.305 -1.145,0.756 -1.601,1.353 -0.457,0.597 -0.824,1.341 -1.101,2.233 -0.301,0.971 -0.406,1.843 -0.314,2.616 0.091,0.772 0.32,1.452 0.687,2.038 0.367,0.587 0.836,1.077 1.409,1.472 0.572,0.395 1.191,0.696 1.855,0.902 0.654,0.203 1.282,0.349 1.884,0.438 0.602,0.09 1.098,0.102 1.488,0.038 0.046,-0.149 0.098,-0.341 0.155,-0.579 0.058,-0.238 0.113,-0.495 0.166,-0.771 0.054,-0.277 0.1,-0.556 0.138,-0.838 0.038,-0.281 0.062,-0.54 0.07,-0.777 L -3.357,6.145 -4.891,8.146 C -5.016,8.161 -5.191,8.147 -5.417,8.104 -5.642,8.062 -5.864,8.007 -6.082,7.939 -6.488,7.812 -6.855,7.612 -7.182,7.336 -7.51,7.061 -7.762,6.703 -7.94,6.262 -8.119,5.821 -8.206,5.294 -8.2,4.682 -8.195,4.07 -8.067,3.363 -7.818,2.56 c 0.203,-0.654 0.464,-1.227 0.786,-1.72 0.321,-0.492 0.68,-0.888 1.078,-1.189 0.397,-0.3 0.824,-0.499 1.277,-0.597 0.454,-0.098 0.914,-0.075 1.38,0.07 0.149,0.045 0.298,0.105 0.449,0.18 0.151,0.073 0.29,0.152 0.416,0.235 0.127,0.082 0.234,0.165 0.323,0.247 0.089,0.081 0.147,0.148 0.174,0.2 L -2.802,2.781 C -3.066,2.72 -3.324,2.694 -3.577,2.703 -3.83,2.711 -4.072,2.739 -4.304,2.787 l -0.175,0.565 4.058,1.259 0.175,-0.565 C -0.307,3.93 -0.401,3.811 -0.526,3.691 -0.652,3.57 -0.821,3.45 -1.034,3.33 Z"
       style="fill:#6e2772;fill-opacity:1;fill-rule:nonzero;stroke:none"
       transform="matrix(0.5333647,0,0,-0.5333647,125.78157,93.025718)"
       clip-path="url(#clipPath116)" />
    <path
       id="path117"
       d="M 0,0 4.794,0.004 V -0.587 C 4.452,-0.805 4.058,-0.956 3.612,-1.04 L 3.617,-7.031 C 3.618,-7.54 3.676,-7.965 3.79,-8.308 3.904,-8.649 4.07,-8.927 4.289,-9.14 c 0.218,-0.212 0.48,-0.365 0.786,-0.458 0.306,-0.093 0.651,-0.139 1.035,-0.139 0.342,0 0.656,0.049 0.942,0.149 0.285,0.098 0.534,0.257 0.746,0.475 0.213,0.218 0.376,0.504 0.49,0.856 0.113,0.353 0.17,0.789 0.169,1.308 L 8.452,-1.113 C 8.214,-1.062 7.967,-0.989 7.713,-0.896 7.458,-0.803 7.248,-0.699 7.082,-0.585 L 7.081,0.006 10.941,0.01 V -0.582 C 10.755,-0.716 10.548,-0.826 10.319,-0.909 10.091,-0.992 9.868,-1.06 9.65,-1.112 l 0.006,-5.852 c 10e-4,-1.328 -0.347,-2.337 -1.048,-3.027 -0.7,-0.691 -1.687,-1.037 -2.963,-1.038 -1.391,-0.002 -2.465,0.309 -3.223,0.93 -0.758,0.622 -1.138,1.618 -1.139,2.988 l -0.006,6.069 c -0.208,0.031 -0.425,0.085 -0.653,0.163 -0.228,0.078 -0.437,0.173 -0.623,0.287 z"
       style="fill:#6e2772;fill-opacity:1;fill-rule:nonzero;stroke:none"
       transform="matrix(0.5333647,0,0,-0.5333647,130.31228,86.799057)"
       clip-path="url(#clipPath118)" />
    <path
       id="path119"
       d="M 0,0 3.77,-0.833 3.639,-1.425 C 3.412,-1.535 3.17,-1.622 2.911,-1.687 2.652,-1.751 2.415,-1.792 2.199,-1.808 l -2.112,-9.56 -1.291,0.286 -3.653,8.935 -0.349,1.305 -0.046,0.01 -0.132,-1.246 -1.399,-6.338 c 0.191,-0.095 0.398,-0.229 0.62,-0.399 0.223,-0.172 0.406,-0.337 0.552,-0.497 l -0.127,-0.577 -3.754,0.828 0.128,0.579 c 0.209,0.08 0.433,0.15 0.676,0.208 0.241,0.058 0.485,0.097 0.734,0.116 l 1.83,8.284 c -0.185,0.126 -0.367,0.262 -0.548,0.408 -0.181,0.146 -0.339,0.292 -0.476,0.44 l 0.127,0.577 3.283,-0.725 2.965,-7.286 0.411,-1.461 0.06,-0.014 0.212,1.322 1.119,5.064 C 0.804,-1.415 0.59,-1.264 0.388,-1.097 0.186,-0.93 0.013,-0.762 -0.131,-0.593 Z"
       style="fill:#6e2772;fill-opacity:1;fill-rule:nonzero;stroke:none"
       transform="matrix(0.5333647,0,0,-0.5333647,142.29374,87.883233)"
       clip-path="url(#clipPath120)" />
    <path
       id="path121"
       d="m 0,0 -4.487,1.855 0.226,0.547 c 0.471,0.052 0.916,0.031 1.338,-0.065 l 3.366,8.141 c -0.18,0.108 -0.359,0.244 -0.539,0.408 -0.179,0.164 -0.33,0.327 -0.454,0.491 L -0.323,11.923 4.164,10.067 3.938,9.521 C 3.722,9.486 3.495,9.476 3.26,9.49 3.023,9.503 2.804,9.535 2.601,9.586 L -0.766,1.445 C -0.59,1.328 -0.413,1.192 -0.234,1.041 -0.056,0.888 0.098,0.723 0.227,0.546 Z"
       style="fill:#6e2772;fill-opacity:1;fill-rule:nonzero;stroke:none"
       transform="matrix(0.5333647,0,0,-0.5333647,146.6773,95.533704)"
       clip-path="url(#clipPath122)" />
    <path
       id="path123"
       d="m 0,0 c -0.184,0.177 -0.347,0.36 -0.491,0.549 -0.145,0.189 -0.27,0.366 -0.374,0.53 L -0.55,1.58 2.794,-0.53 2.479,-1.03 C 2.328,-1.034 2.146,-1.017 1.931,-0.979 1.715,-0.941 1.502,-0.886 1.29,-0.813 l -8.284,-6.424 -1.402,0.664 1.959,10.633 c -0.149,0.154 -0.29,0.32 -0.423,0.497 -0.134,0.176 -0.243,0.345 -0.324,0.507 l 0.316,0.5 L -2.484,2.8 -2.801,2.299 C -2.994,2.323 -3.205,2.358 -3.434,2.404 -3.662,2.45 -3.891,2.515 -4.121,2.599 L -5.549,-3.75 -6.026,-5.179 -6,-5.195 l 1.087,1.081 z"
       style="fill:#6e2772;fill-opacity:1;fill-rule:nonzero;stroke:none"
       transform="matrix(0.5333647,0,0,-0.5333647,154.55334,93.994786)"
       clip-path="url(#clipPath124)" />
    <path
       id="path125"
       d="M 0,0 C -0.337,-0.323 -0.696,-0.647 -1.077,-0.972 -1.459,-1.296 -1.83,-1.588 -2.19,-1.846 l -0.462,0.44 0.749,1.823 -2.106,2.009 -2.632,-2.759 1.374,-1.311 1.323,0.395 0.36,-0.344 c -0.313,-0.404 -0.685,-0.83 -1.114,-1.281 -0.43,-0.45 -0.85,-0.853 -1.26,-1.207 l -0.36,0.344 0.353,1.362 -1.374,1.311 -2.793,-2.929 2.195,-2.094 1.962,0.86 0.461,-0.44 c -0.105,-0.171 -0.229,-0.361 -0.371,-0.57 -0.142,-0.209 -0.295,-0.418 -0.459,-0.627 -0.164,-0.21 -0.333,-0.417 -0.508,-0.623 -0.175,-0.206 -0.341,-0.392 -0.499,-0.557 l -6.092,5.812 0.409,0.428 c 0.191,-0.054 0.394,-0.127 0.609,-0.217 0.216,-0.09 0.424,-0.203 0.625,-0.337 l 6.081,6.373 c -0.122,0.173 -0.24,0.369 -0.355,0.586 -0.115,0.218 -0.201,0.425 -0.257,0.622 l 0.408,0.427 z"
       style="fill:#6e2772;fill-opacity:1;fill-rule:nonzero;stroke:none"
       transform="matrix(0.5333647,0,0,-0.5333647,160.90892,98.710221)"
       clip-path="url(#clipPath126)" />
    <path
       id="path127"
       d="m 0,0 c -0.187,0.265 -0.362,0.46 -0.527,0.586 l -3.551,-2.498 0.531,-0.755 c 0.306,-0.436 0.722,-0.698 1.247,-0.787 0.527,-0.088 1.095,0.081 1.706,0.511 0.314,0.221 0.553,0.453 0.718,0.697 0.165,0.244 0.266,0.493 0.302,0.748 0.036,0.255 0.016,0.509 -0.06,0.761 C 0.289,-0.484 0.167,-0.238 0,0 m -7.785,-4.52 c 0.095,-0.225 0.162,-0.438 0.203,-0.638 0.04,-0.2 0.077,-0.395 0.111,-0.587 l -0.484,-0.34 -2.758,3.92 0.484,0.34 c 0.233,-0.114 0.437,-0.238 0.611,-0.369 0.175,-0.131 0.339,-0.269 0.492,-0.415 l 7.204,5.069 c -0.205,0.49 -0.326,0.925 -0.365,1.303 l 0.484,0.341 0.949,-1.35 c 0.12,-0.169 0.26,-0.359 0.42,-0.569 C -0.272,1.974 -0.103,1.754 0.078,1.526 0.258,1.297 0.44,1.064 0.626,0.827 0.812,0.59 0.985,0.356 1.146,0.127 c 0.33,-0.466 0.579,-0.934 0.75,-1.404 0.17,-0.47 0.25,-0.921 0.237,-1.356 C 2.119,-3.067 2.008,-3.475 1.799,-3.857 1.59,-4.239 1.271,-4.58 0.846,-4.88 0.231,-5.312 -0.377,-5.518 -0.978,-5.496 c -0.601,0.021 -1.181,0.221 -1.742,0.6 -0.293,-0.712 -0.58,-1.455 -0.864,-2.225 -0.283,-0.77 -0.532,-1.548 -0.748,-2.334 l 0.025,-0.896 -0.433,-0.304 -1.495,2.126 0.032,0.841 c 0.189,0.716 0.483,1.44 0.883,2.171 0.398,0.732 0.812,1.419 1.242,2.063 l -0.726,1.031 z"
       style="fill:#6e2772;fill-opacity:1;fill-rule:nonzero;stroke:none"
       transform="matrix(0.5333647,0,0,-0.5333647,163.67259,102.88464)"
       clip-path="url(#clipPath128)" />
    <path
       id="path129"
       d="m 0,0 c -0.057,-0.151 -0.088,-0.341 -0.093,-0.571 -0.005,-0.229 0.063,-0.5 0.203,-0.813 0.234,-0.52 0.563,-0.893 0.988,-1.117 0.424,-0.225 0.879,-0.228 1.361,-0.012 0.351,0.157 0.594,0.4 0.73,0.729 0.137,0.328 0.229,0.708 0.275,1.138 0.046,0.43 0.078,0.882 0.099,1.357 0.019,0.476 0.084,0.943 0.197,1.403 0.112,0.46 0.301,0.883 0.565,1.269 0.265,0.386 0.666,0.7 1.206,0.942 C 5.995,4.533 6.436,4.628 6.853,4.611 7.27,4.594 7.656,4.486 8.013,4.288 8.369,4.089 8.693,3.811 8.984,3.453 9.276,3.095 9.528,2.679 9.741,2.206 10,1.628 10.201,1.073 10.344,0.54 10.486,0.007 10.562,-0.497 10.569,-0.971 10.376,-1.046 10.15,-1.127 9.894,-1.214 9.638,-1.301 9.38,-1.379 9.121,-1.45 8.863,-1.521 8.618,-1.583 8.386,-1.635 8.153,-1.688 7.958,-1.728 7.799,-1.753 l -0.261,0.581 1.65,1.53 C 9.194,0.498 9.17,0.689 9.117,0.934 9.064,1.179 8.984,1.42 8.878,1.658 8.699,2.057 8.443,2.348 8.111,2.53 7.779,2.712 7.414,2.714 7.017,2.535 6.657,2.374 6.402,2.123 6.255,1.783 6.105,1.442 6.004,1.055 5.949,0.619 5.895,0.184 5.856,-0.281 5.834,-0.776 5.811,-1.271 5.744,-1.749 5.633,-2.209 5.521,-2.67 5.339,-3.095 5.086,-3.482 4.834,-3.869 4.446,-4.18 3.927,-4.413 2.979,-4.838 2.105,-4.847 1.303,-4.439 c -0.803,0.407 -1.483,1.231 -2.039,2.47 -0.136,0.303 -0.254,0.617 -0.355,0.942 -0.1,0.325 -0.179,0.639 -0.235,0.943 -0.058,0.304 -0.096,0.58 -0.115,0.827 -0.021,0.247 -0.011,0.442 0.027,0.584 0.222,0.089 0.467,0.17 0.734,0.244 0.268,0.075 0.537,0.148 0.807,0.218 0.27,0.069 0.529,0.132 0.778,0.187 0.248,0.054 0.468,0.097 0.66,0.125 L 1.826,1.519 Z"
       style="fill:#6e2772;fill-opacity:1;fill-rule:nonzero;stroke:none"
       transform="matrix(0.5333647,0,0,-0.5333647,162.75483,110.35698)"
       clip-path="url(#clipPath130)" />
    <path
       id="path131"
       d="m 0,0 -1.305,4.677 0.57,0.159 C -0.404,4.498 -0.146,4.133 0.038,3.743 L 8.523,6.111 C 8.497,6.319 8.493,6.544 8.513,6.787 8.531,7.028 8.566,7.249 8.619,7.446 L 9.188,7.605 10.494,2.928 9.925,2.769 C 9.764,2.918 9.616,3.09 9.481,3.284 9.347,3.478 9.236,3.671 9.15,3.862 L 0.666,1.495 C 0.682,1.284 0.685,1.061 0.675,0.826 0.664,0.592 0.63,0.37 0.57,0.159 Z"
       style="fill:#6e2772;fill-opacity:1;fill-rule:nonzero;stroke:none"
       transform="matrix(0.5333647,0,0,-0.5333647,164.52316,117.33131)"
       clip-path="url(#clipPath132)" />
    <path
       id="path133"
       d="m 0,0 -0.595,5.321 0.588,0.065 C 0.099,5.189 0.21,4.964 0.326,4.711 0.443,4.458 0.538,4.2 0.609,3.936 L 9.395,4.918 9.193,6.712 6.438,7.407 6.367,8.041 c 0.202,0.064 0.46,0.135 0.776,0.212 0.314,0.077 0.64,0.15 0.977,0.219 0.337,0.069 0.672,0.132 1.004,0.191 0.333,0.058 0.618,0.1 0.855,0.127 l 1.1,-9.838 C 10.832,-1.075 10.542,-1.097 10.21,-1.113 9.877,-1.13 9.54,-1.142 9.196,-1.148 8.853,-1.155 8.521,-1.156 8.201,-1.15 7.883,-1.144 7.612,-1.132 7.391,-1.115 L 7.32,-0.481 9.854,0.804 9.654,2.599 0.869,1.616 C 0.847,1.342 0.814,1.07 0.772,0.799 0.729,0.528 0.668,0.284 0.588,0.065 Z"
       style="fill:#6e2772;fill-opacity:1;fill-rule:nonzero;stroke:none"
       transform="matrix(0.5333647,0,0,-0.5333647,165.33157,122.63973)"
       clip-path="url(#clipPath134)" />
    <path
       id="path135"
       d="m 0,0 -0.354,-3.796 -0.588,0.054 c -0.079,0.163 -0.153,0.345 -0.223,0.544 -0.07,0.199 -0.111,0.399 -0.124,0.598 L -6.278,0.896 -9.781,1.222 C -9.821,1.017 -9.895,0.818 -10.001,0.625 -10.107,0.431 -10.22,0.251 -10.34,0.085 l -0.589,0.056 0.444,4.772 0.589,-0.055 C -9.819,4.674 -9.75,4.47 -9.688,4.245 -9.625,4.021 -9.584,3.788 -9.565,3.546 l 3.487,-0.324 5.575,2.639 c 0.064,0.234 0.147,0.453 0.249,0.657 0.102,0.204 0.208,0.39 0.317,0.556 L 0.652,7.02 0.18,1.937 -0.409,1.992 c -0.07,0.152 -0.137,0.325 -0.202,0.519 -0.066,0.193 -0.113,0.416 -0.141,0.669 l -4.359,-1.83 3.957,-2.494 c 0.074,0.233 0.162,0.455 0.264,0.664 0.104,0.209 0.203,0.387 0.301,0.535 z"
       style="fill:#6e2772;fill-opacity:1;fill-rule:nonzero;stroke:none"
       transform="matrix(0.5333647,0,0,-0.5333647,170.94124,129.14091)"
       clip-path="url(#clipPath136)" />
    <path
       id="path137"
       d="m 0,0 c -41.5,0 -75.349,33.849 -75.349,75.352 0,41.501 33.849,75.349 75.349,75.349 41.5,0 75.352,-33.848 75.352,-75.349 C 75.352,33.849 41.5,0 0,0 m 0,153.737 c -43.173,0 -78.389,-35.212 -78.389,-78.385 0,-43.177 35.216,-78.392 78.389,-78.392 43.177,0 78.392,35.215 78.392,78.389 0,43.176 -35.211,78.388 -78.392,78.388"
       style="fill:#6e2772;fill-opacity:1;fill-rule:evenodd;stroke:none"
       transform="matrix(0.5333647,0,0,-0.5333647,133.22237,164.94403)"
       clip-path="url(#clipPath138)" />
    <path
       id="path139"
       d="m 0,0 c 0.078,-0.216 0.011,-0.351 0,-0.399 -0.008,-0.045 -0.026,-0.287 -0.127,-0.325 -0.104,-0.048 -0.205,-0.026 -0.295,0.079 -0.093,0.108 -0.093,0.063 -0.104,0.198 -0.007,0.137 0.022,0.276 0.048,0.35 0.031,0.078 0.045,0.142 0.049,0.228 0.003,0.078 -0.045,0.048 0.003,0.156 0.049,0.109 0.061,0.191 0.146,0.276 0.093,0.086 0.059,0.101 0.12,0.153 C -0.101,0.765 -0.026,0.69 0,0.66 0.022,0.634 0.078,0.53 0.063,0.37 0.056,0.213 -0.082,0.216 0,0 m -0.593,2.145 c -0.142,0.164 -0.063,0.183 -0.19,0.35 -0.127,0.168 -0.209,0.265 -0.34,0.403 -0.134,0.142 -0.335,0.101 -0.392,0.138 -0.055,0.037 -0.212,0.142 -0.212,0.239 -0.007,0.097 -0.06,0.071 0.071,0.208 0.127,0.127 0.108,0.038 0.205,0.262 0.097,0.22 0.1,0.38 0.164,0.488 0.063,0.108 0.004,0.25 0.168,0.168 0.164,-0.082 0.115,0 0.261,-0.138 0.145,-0.138 0.145,-0.131 0.231,-0.227 0.086,-0.098 0.146,-0.135 0.187,-0.34 0.041,-0.209 0.134,-0.578 0.201,-0.701 0.067,-0.131 0.104,-0.414 0.09,-0.563 C -0.164,2.287 -0.153,2.104 -0.157,1.932 -0.16,1.757 -0.104,1.738 -0.183,1.708 -0.262,1.679 -0.365,1.611 -0.406,1.757 -0.447,1.917 -0.451,1.977 -0.593,2.145 M -0.966,0.44 C -1.007,0.351 -1.074,0.067 -1.25,0.138 -1.421,0.209 -1.41,0.134 -1.511,0.209 c -0.093,0.078 -0.156,0.149 -0.301,0.269 -0.15,0.123 -0.326,0.085 -0.303,0.22 0.015,0.13 0.052,0.171 0.209,0.29 0.157,0.116 0.34,0.164 0.25,0.321 -0.093,0.153 -0.25,0.366 -0.324,0.463 -0.076,0.097 -0.154,0.201 -0.195,0.279 -0.041,0.079 -0.141,0.161 -0.067,0.254 0.067,0.093 0.206,0.064 0.303,-0.008 0.092,-0.074 0.127,-0.078 0.234,-0.193 0.108,-0.12 0.123,-0.124 0.262,-0.272 0.137,-0.15 0.205,-0.225 0.305,-0.336 0.101,-0.112 0.082,-0.235 0.105,-0.422 0.026,-0.19 -0.03,-0.19 0.014,-0.343 0.041,-0.16 0.097,-0.212 0.053,-0.291 m -1.775,-0.604 c -0.243,-0.257 -0.075,-0.097 -0.359,-0.369 -0.283,-0.254 -0.336,-0.302 -0.432,-0.384 -0.093,-0.079 -0.246,-0.049 -0.291,-0.026 -0.045,0.026 -0.13,0.063 -0.15,0.16 -0.018,0.108 0.031,0.287 0.027,0.473 -0.004,0.187 -0.101,0.112 0.052,0.373 0.161,0.262 0.208,0.396 0.291,0.481 0.089,0.094 0.167,0.191 0.302,0.124 C -3.167,0.601 -3.055,0.552 -2.965,0.5 -2.872,0.444 -2.727,0.392 -2.652,0.228 -2.573,0.067 -2.495,0.09 -2.741,-0.164 M 7.437,-9.619 c 0.067,0.168 0.048,0.683 -0.038,1.045 -0.093,0.354 0.038,0.507 -0.137,0.749 -0.176,0.246 -0.098,0.191 -0.25,0.369 -0.15,0.184 -0.217,0.266 -0.531,0.515 -0.312,0.247 -0.637,0.63 -0.868,0.787 -0.227,0.161 -0.145,0.105 -0.35,0.299 -0.199,0.197 -0.199,0.216 -0.326,0.354 -0.119,0.134 -0.1,0.272 -0.123,0.396 -0.022,0.123 0.139,0.372 0.281,0.506 0.141,0.131 0.029,0.273 0.342,0.246 0.314,-0.033 0.15,-0.07 0.452,0.172 0.295,0.25 0.157,0.179 0.116,0.328 -0.034,0.15 0.044,0.265 0.056,0.362 0.014,0.097 0.085,0.187 0.287,0.373 0.209,0.187 -0.041,0.172 0.131,0.407 0.17,0.234 -0.098,0.25 -0.109,0.358 C 6.352,-2.245 6.311,-2.189 6.105,-2.04 5.903,-1.883 5.841,-1.977 5.624,-1.906 5.415,-1.835 5.333,-1.969 5.15,-2.145 4.964,-2.32 5.038,-2.334 4.986,-2.555 4.927,-2.775 4.759,-2.969 4.632,-3.147 4.509,-3.327 4.523,-3.353 4.416,-3.61 4.308,-3.853 4.304,-3.864 3.994,-4.162 3.688,-4.472 3.849,-4.394 3.651,-4.419 c -0.202,-0.023 -0.25,0.234 -0.328,0.443 -0.075,0.209 0.03,0.243 0.023,0.511 -0.012,0.273 0.037,0.302 0.07,0.437 0.033,0.141 0.008,0.179 0.012,0.399 0.007,0.22 -0.075,0.339 -0.094,0.525 -0.026,0.184 -0.231,0.221 -0.355,0.303 -0.119,0.082 -0.182,0.015 -0.328,0.164 -0.152,0.153 -0.104,0.16 -0.171,0.313 -0.063,0.142 0.015,0.19 0.034,0.261 0.022,0.063 0.096,0.187 0.213,0.291 0.115,0.108 0.066,0.209 0.119,0.321 0.048,0.104 0.145,0.223 0.223,0.407 0.082,0.186 0,0.134 0.015,0.223 C 3.092,0.261 3.129,0.418 3.159,0.552 3.192,0.683 3.2,0.813 3.182,1.015 3.162,1.22 3.278,1.212 3.301,1.332 3.323,1.458 3.33,1.525 3.371,1.746 3.408,1.962 3.39,1.977 3.449,2.145 3.51,2.305 3.461,2.324 3.558,2.469 3.655,2.615 3.658,2.689 3.61,2.861 3.558,3.036 3.588,3.07 3.621,3.193 3.658,3.319 3.58,3.319 3.51,3.383 3.442,3.442 3.371,3.532 3.26,3.614 3.151,3.688 3.084,3.637 2.92,3.629 2.748,3.629 2.764,3.674 2.424,3.606 2.085,3.532 2.237,3.417 1.965,3.174 1.697,2.92 1.805,2.749 1.73,2.629 1.659,2.521 1.614,2.331 1.536,2.078 1.458,1.828 1.466,1.884 1.376,1.757 1.29,1.634 1.249,1.585 1.111,1.481 0.977,1.373 0.974,1.44 0.917,1.462 0.857,1.481 0.831,1.559 0.769,1.619 0.705,1.689 0.693,1.798 0.671,1.884 0.646,1.958 0.687,2.04 0.601,2.223 0.519,2.413 0.634,2.581 0.664,2.674 0.693,2.768 0.693,2.831 0.589,3.073 0.488,3.331 0.492,3.487 0.462,3.555 0.437,3.622 0.437,3.774 0.425,3.999 0.41,4.226 0.525,4.241 0.525,4.509 0.521,4.782 0.439,4.785 0.421,4.983 0.406,5.173 0.388,5.27 0.365,5.445 0.347,5.628 0.433,5.822 0.377,6.072 0.316,6.314 0.398,6.244 0.339,6.59 0.279,6.937 0.238,6.87 0.253,7.112 0.265,7.344 0.224,7.266 0.22,7.433 0.216,7.605 0.183,7.542 0.056,7.706 -0.078,7.862 -0.06,7.829 -0.291,7.851 -0.522,7.87 -0.5,7.911 -0.735,7.765 -0.966,7.624 -0.873,7.601 -1.045,7.415 -1.212,7.232 -1.086,7.359 -1.265,7.112 -1.443,6.863 -1.351,6.945 -1.589,6.74 -1.824,6.527 -1.82,6.195 -1.895,5.945 -1.974,5.703 -1.865,5.684 -1.917,5.516 -1.966,5.345 -1.988,5.222 -2.011,4.979 -2.029,4.733 -2.104,4.71 -2.145,4.573 -2.186,4.435 -2.275,4.401 -2.529,4.174 -2.775,3.938 -2.618,3.834 -2.618,3.834 c 0,0 -0.012,-0.123 0.089,-0.22 0.101,-0.1 0.101,-0.067 0.243,-0.186 0.141,-0.109 0.238,-0.123 0.107,-0.295 -0.13,-0.16 -0.182,-0.145 -0.339,-0.235 -0.157,-0.093 -0.301,-0.089 -0.428,0.011 -0.123,0.105 -0.176,0.202 -0.217,0.284 -0.037,0.078 -0.06,0.362 -0.056,0.421 0,0.056 0.156,0.228 0.235,0.358 0.071,0.131 0.075,0.183 0.075,0.265 0,0.078 0.026,0.231 0.049,0.369 0.021,0.138 0.025,0.127 -0.023,0.254 -0.056,0.123 0.033,0.306 0.007,0.403 -0.022,0.096 0.131,0.346 0.135,0.496 0.011,0.153 0.141,0.257 0.082,0.38 C -2.723,6.266 -2.786,6.352 -2.95,6.531 -3.114,6.71 -3.264,6.863 -3.417,6.975 -3.573,7.083 -3.569,7.061 -3.644,7.09 -3.719,7.116 -3.83,7.008 -3.983,7.075 -4.137,7.143 -4.215,7.194 -4.285,7.262 -4.356,7.321 -4.572,7.471 -4.666,7.478 -4.756,7.478 -4.8,7.452 -4.935,7.545 -5.068,7.635 -5.113,7.579 -5.3,7.459 -5.482,7.344 -5.479,7.243 -5.468,7.116 -5.453,7 -5.416,7.053 -5.371,6.967 -5.326,6.877 -5.382,6.885 -5.345,6.77 c 0.033,-0.112 0.037,-0.172 0.119,-0.28 0.082,-0.105 0.262,-0.567 0.363,-0.676 0.1,-0.111 0.189,-0.178 0.246,-0.357 0.055,-0.172 0.041,-0.407 0.041,-0.56 0,-0.156 0.074,-0.436 0.123,-0.641 0.052,-0.213 0.033,-0.381 0.175,-0.534 0.141,-0.149 0.223,-0.496 0.223,-0.734 0,-0.25 0.064,-0.228 -0.059,-0.422 C -4.237,2.369 -4.222,2.365 -4.338,2.26 -4.453,2.152 -4.572,2.078 -4.711,2.021 -4.849,1.966 -4.972,1.816 -5.15,1.648 -5.334,1.477 -5.386,1.421 -5.476,1.294 -5.554,1.171 -5.33,1.048 -5.267,1.003 -5.199,0.966 -5.08,0.921 -4.949,0.888 c 0.13,-0.034 0.223,0.007 0.436,0.015 0.22,0.011 0.216,-0.12 0.198,-0.228 -0.015,-0.108 0.052,-0.16 0.007,-0.257 -0.041,-0.105 0.007,-0.276 -0.015,-0.492 -0.022,-0.209 0.108,-0.202 0.045,-0.527 -0.06,-0.331 -0.417,-0.246 -0.481,-0.16 -0.063,0.09 -0.213,0.269 -0.272,0.437 -0.053,0.167 -0.135,0.212 -0.258,0.444 -0.119,0.231 -0.156,0.264 -0.201,0.373 -0.037,0.108 -0.072,0.182 -0.172,0.342 -0.105,0.157 -0.115,0.198 -0.19,0.303 -0.075,0.104 -0.06,0.141 -0.202,0.35 C -6.191,1.693 -6.079,1.619 -6.21,1.757 -6.341,1.902 -6.37,1.891 -6.505,1.895 -6.639,1.91 -6.766,1.932 -6.937,1.939 -7.102,1.943 -7.098,1.932 -7.217,1.91 -7.344,1.884 -7.399,1.843 -7.504,1.835 -7.608,1.832 -7.762,1.843 -7.889,1.768 -8.022,1.705 -8.217,1.73 -8.399,1.686 -8.578,1.637 -8.608,1.559 -8.861,1.294 -9.111,1.037 -8.97,0.944 -8.981,0.869 -8.996,0.791 -9.015,0.701 -8.97,0.649 c 0.045,-0.048 0.101,0.011 0.201,0.026 0.105,0.015 0.09,-0.007 0.258,-0.086 0.183,-0.086 0.242,-0.156 0.298,-0.197 0.056,-0.034 0.127,-0.022 0.254,-0.146 0.123,-0.123 0.187,-0.164 0.265,-0.205 0.078,-0.048 0.227,-0.119 0.339,-0.208 0.104,-0.09 0.224,-0.049 0.339,-0.124 0.116,-0.074 0.295,-0.276 0.384,-0.365 0.09,-0.082 0.18,-0.179 0.273,-0.284 0.096,-0.101 0.268,-0.179 0.395,-0.306 0.123,-0.127 0.277,-0.175 0.455,-0.391 0.183,-0.213 0.306,-0.407 0.359,-0.511 0.051,-0.104 0.092,-0.276 0.29,-0.452 0.19,-0.19 0.25,-0.238 0.354,-0.395 0.109,-0.172 0.101,-0.16 -0.018,-0.358 -0.116,-0.201 -0.06,-0.048 -0.183,-0.112 -0.131,-0.052 -0.175,-0.041 -0.269,0.034 -0.092,0.082 -0.153,0.175 -0.197,0.257 -0.041,0.09 -0.056,0.224 -0.198,0.418 -0.146,0.194 -0.224,0.265 -0.351,0.444 -0.123,0.167 -0.242,0.309 -0.301,0.373 -0.06,0.067 -0.228,0.16 -0.422,0.242 -0.187,0.075 -0.246,0.008 -0.448,0.049 -0.201,0.041 -0.477,-0.09 -0.668,-0.291 -0.189,-0.209 -0.07,-0.384 0.143,-0.601 0.216,-0.22 0.511,-0.265 0.611,-0.298 0.105,-0.03 0.265,-0.134 0.5,-0.172 0.235,-0.037 0.294,-0.145 0.347,-0.205 0.052,-0.056 0.201,-0.25 0.316,-0.406 0.117,-0.165 0.105,-0.261 0.098,-0.47 -0.008,-0.209 -0.016,-0.235 -0.016,-0.537 -0.006,-0.306 -0.018,-0.463 -0.037,-0.686 -0.014,-0.221 0.123,-0.262 0.34,-0.295 0.213,-0.034 0.287,0.041 0.515,-0.03 0.22,-0.071 0.343,0.246 0.511,0.399 0.171,0.164 0.321,0.388 0.336,0.463 0.01,0.078 0.152,0.473 0.16,0.69 0.004,0.223 -0.086,0.208 -0.16,0.369 -0.079,0.164 -0.165,0.391 -0.183,0.462 -0.019,0.064 -0.108,0.351 -0.146,0.463 -0.041,0.108 0.007,0.253 0.011,0.578 0.004,0.324 0.082,0.25 0.116,0.309 0.026,0.056 -0.004,0.094 -0.101,0.123 -0.101,0.027 -0.187,-0.052 -0.253,-0.063 -0.064,-0.008 -0.008,0.034 0.059,0.246 0.068,0.209 0.146,0.093 0.183,0.075 0.037,-0.023 0.164,-0.056 0.164,-0.056 0,0 0.086,0.093 0.16,0.16 0.075,0.067 0.075,0.067 0.209,0.056 0.138,-0.008 0.265,0 0.265,0 0,0 0.142,0.067 0.321,-0.127 0.183,-0.197 0.108,-0.216 0.004,-0.373 -0.098,-0.149 -0.098,-0.179 -0.153,-0.399 -0.056,-0.22 0.018,-0.406 0.078,-0.485 0.067,-0.063 0.254,-0.205 0.399,-0.291 0.146,-0.089 0.366,0.105 0.478,0.239 0.104,0.131 0.186,0.433 0.209,0.511 0.014,0.082 0.003,0.407 0.119,0.601 0.115,0.186 0.168,0.193 0.324,0.264 0.156,0.068 0.09,0.049 0.362,-0.018 0.272,-0.064 0.366,-0.008 0.544,-0.019 0.183,-0.015 0.183,-0.194 0.116,-0.354 -0.063,-0.153 -0.003,-0.145 -0.071,-0.291 -0.074,-0.153 -0.108,-0.231 -0.264,-0.481 -0.157,-0.25 -0.224,-0.261 -0.463,-0.485 -0.235,-0.22 -0.373,-0.343 -0.582,-0.537 -0.212,-0.198 -0.25,-0.235 -0.447,-0.463 -0.202,-0.231 -0.03,-0.104 -0.101,-0.358 -0.067,-0.261 -0.071,-0.302 -0.06,-0.469 0.011,-0.172 0.045,-0.221 0.265,-0.277 0.22,-0.052 0.523,-0.026 0.72,-0.026 0.198,0 0.302,0.139 0.611,0.448 0.307,0.298 0.411,0.388 0.557,0.824 0.144,0.433 0.219,0.645 0.343,0.813 0.119,0.164 0.152,0.354 0.182,0.481 0.026,0.135 0.097,0.31 0.175,0.537 0.079,0.239 -0.126,0.209 0.157,0.504 0.283,0.298 0.168,0.264 0.265,0.298 0.096,0.034 0.201,0.027 0.391,0.153 0.191,0.12 0.318,0.366 0.343,0.485 0.027,0.123 0.02,0.395 -0.033,0.645 C 1.324,0.231 1.439,0.478 1.454,0.522 1.47,0.578 1.54,0.683 1.7,0.828 1.857,0.974 1.846,0.895 1.98,0.947 2.11,1 2.219,0.88 2.305,0.798 2.379,0.709 2.387,0.724 2.356,0.53 2.327,0.328 2.376,0.396 2.432,0.138 2.491,-0.119 2.305,-0.522 2.237,-0.693 2.167,-0.873 2.227,-0.951 2.028,-1.216 1.835,-1.484 1.872,-1.727 1.675,-1.947 1.473,-2.159 1.648,-2.167 1.458,-2.361 1.264,-2.547 1.425,-2.499 1.402,-2.689 1.38,-2.879 1.402,-2.838 1.365,-3.054 1.324,-3.274 1.35,-3.271 1.249,-3.438 1.152,-3.603 1.193,-3.599 0.933,-3.837 0.671,-4.087 0.876,-3.931 0.72,-4.162 0.566,-4.394 0.578,-4.408 0.556,-4.505 0.541,-4.61 0.761,-4.666 0.888,-4.718 c 0.127,-0.048 0.32,0.187 0.521,0.373 0.205,0.183 0.273,0.239 0.437,0.258 0.157,0.022 0.168,-0.131 0.328,-0.307 0.161,-0.186 0.038,-0.104 0.045,-0.208 0.004,-0.116 -0.082,-0.552 -0.082,-0.552 0,0 -0.22,-0.105 -0.074,-0.269 0.141,-0.167 0.152,-0.167 0.264,-0.242 0.101,-0.067 0.06,0.019 0.209,-0.146 0.146,-0.156 0.052,-0.16 0.048,-0.231 C 2.573,-6.113 2.569,-6.109 2.491,-6.225 2.417,-6.333 2.391,-6.389 2.338,-6.452 2.282,-6.516 2.032,-6.806 1.842,-7.012 1.648,-7.206 1.704,-7.25 1.507,-7.444 1.309,-7.638 1.413,-7.575 1.242,-7.821 1.07,-8.067 1.111,-8.067 0.999,-8.205 0.884,-8.339 0.898,-8.339 0.701,-8.496 0.492,-8.652 0.533,-8.727 0.437,-8.847 0.347,-8.958 0.231,-9.066 0.134,-9.22 0.033,-9.376 0.004,-9.48 -0.015,-9.585 c -0.019,-0.101 0.261,-0.272 0.388,-0.392 0.119,-0.119 0.273,-0.111 0.56,-0.082 0.294,0.026 0.443,0.045 0.547,0.108 0.109,0.072 0.247,-0.003 0.485,0.161 0.247,0.171 0.426,0.28 0.426,0.533 0,0.261 0.145,0.466 0.215,0.593 0.072,0.131 0.076,0.395 0.217,0.679 0.142,0.298 0.198,0.459 0.41,0.738 0.213,0.284 0.254,0.146 0.407,0.105 C 3.793,-7.179 3.856,-7.239 3.965,-7.351 4.072,-7.466 4.248,-7.548 4.509,-7.705 4.767,-7.858 4.811,-7.88 4.886,-7.948 4.96,-8.022 5.102,-8.146 5.21,-8.313 5.322,-8.474 5.229,-8.458 5.263,-8.615 5.296,-8.779 5.173,-8.742 5.064,-9.052 4.956,-9.369 4.874,-9.398 4.777,-9.473 4.685,-9.548 4.371,-9.742 4.129,-9.891 3.89,-10.04 3.863,-10.01 3.658,-10.122 c -0.197,-0.112 -0.264,-0.201 -0.205,-0.269 0.06,-0.063 0.023,-0.048 0.224,-0.048 0.206,-0.004 0.455,0.048 0.649,0.064 0.195,0.018 0.515,-0.008 0.732,-0.016 0.215,0 0.529,0.034 0.865,-0.011 0.335,-0.041 0.585,-0.063 1.159,0.06 0.571,0.123 0.287,0.552 0.355,0.723"
       style="fill:#6e2772;fill-opacity:1;fill-rule:evenodd;stroke:none"
       transform="matrix(0.5333647,0,0,-0.5333647,157.71497,145.83747)"
       clip-path="url(#clipPath140)" />
    <path
       id="path141"
       d="m 0,0 c -0.032,-0.076 -0.01,-0.134 -0.054,-0.273 -0.049,-0.146 -0.036,-0.173 -0.069,-0.211 -0.033,-0.039 -0.108,-0.1 -0.165,-0.149 -0.056,-0.052 -0.163,-0.081 -0.218,-0.069 -0.063,0.009 -0.082,0.006 -0.136,0.04 -0.057,0.027 -0.099,0.064 -0.114,0.069 -0.014,0.012 -0.003,0.011 -0.065,0.072 -0.067,0.062 -0.062,0.076 -0.098,0.097 -0.036,0.022 -0.047,0.023 -0.071,0.043 -0.024,0.028 -0.105,0.098 -0.13,0.111 -0.017,0.02 -0.012,-0.01 -0.048,0.06 -0.036,0.066 -0.039,0.078 -0.042,0.138 -0.003,0.06 -0.003,0.109 0.007,0.137 0.006,0.03 0.04,0.08 0.054,0.116 0.013,0.029 -0.047,-0.022 0.031,0.069 0.082,0.095 0.057,0.066 0.102,0.112 0.016,0.013 0.02,0.013 0.02,0.013 0.001,0.011 0.013,0.025 0.041,0.057 0.09,0.09 0.038,0.053 0.095,0.101 0.059,0.044 0.063,0.044 0.087,0.065 0.023,0.02 0.023,0.009 0.036,0.03 0.009,0.022 -0.012,-0.006 0.018,0.04 0.033,0.046 0.001,0.015 0.037,0.054 0.037,0.038 0.03,0.038 0.057,0.059 0.024,0.017 0.007,-0.008 0.069,0.021 0.058,0.029 0.013,0.013 0.107,0.025 0.091,0.016 0.132,0.009 0.139,0.016 C -0.287,0.841 -0.104,0.692 -0.05,0.617 0.004,0.545 0.015,0.537 0.006,0.415 -0.004,0.288 -0.019,0.286 0.002,0.179 0.021,0.073 0.027,0.065 0,0 m 7.991,0.743 c -0.037,0.108 -0.21,0.293 -0.21,0.293 0,0 -0.18,0.193 -0.208,0.259 C 7.54,1.357 7.496,1.413 7.427,1.493 7.358,1.573 7.174,1.759 7.087,1.848 7.001,1.94 6.968,1.955 6.889,2.035 6.809,2.112 6.677,2.246 6.589,2.331 6.503,2.42 6.454,2.458 6.295,2.589 6.128,2.71 6.126,2.726 5.975,2.853 5.824,2.977 5.638,3.04 5.522,3.042 5.402,3.043 5.298,3.145 5.153,3.256 5.005,3.38 4.779,3.457 4.677,3.495 4.572,3.537 4.269,3.728 4.107,3.815 3.935,3.903 3.784,3.945 3.531,4.054 3.277,4.163 3.173,4.321 2.968,4.471 2.766,4.617 2.641,4.593 2.474,4.658 2.302,4.72 2.287,4.86 2.029,5.152 1.767,5.445 1.766,5.341 1.569,5.505 1.379,5.662 1.167,6.067 0.99,6.197 0.817,6.333 0.613,6.544 0.419,6.502 0.229,6.457 0.208,6.238 0.136,6.075 0.063,5.909 0.047,5.846 0.064,5.681 0.089,5.521 0.035,5.2 -0.083,4.933 -0.201,4.653 -0.226,4.771 -0.384,4.705 -0.547,4.639 -0.629,4.787 -0.8,4.699 -0.971,4.611 -1.09,4.479 -1.239,4.292 -1.387,4.112 -1.546,3.889 -1.546,3.889 c 0,0 -0.071,-0.19 -0.144,-0.259 C -1.755,3.557 -1.797,3.545 -1.957,3.422 -2.119,3.3 -2.383,3.223 -2.468,3.136 -2.561,3.05 -3.059,2.703 -3.151,2.62 -3.25,2.542 -3.665,2.315 -3.873,2.132 -4.084,1.962 -4.787,1.525 -4.881,1.469 -4.975,1.413 -5.022,1.431 -5.202,1.377 -5.382,1.332 -5.744,1.482 -5.811,1.492 -5.88,1.508 -6.865,1.946 -6.955,1.983 -7.046,2.02 -7.382,1.933 -7.569,2.127 -7.756,2.321 -8.708,2.588 -8.863,2.72 c -0.15,0.142 -0.643,0.393 -0.859,0.552 -0.22,0.159 -0.758,0.552 -0.894,0.678 -0.132,0.137 -0.608,0.327 -0.842,0.494 -0.234,0.164 -0.463,0.107 -0.634,-0.033 -0.169,-0.148 -0.341,-0.633 -0.406,-0.8 -0.069,-0.17 -0.106,-0.901 -0.114,-1.005 -0.013,-0.115 -0.084,-0.618 -0.071,-0.78 0.018,-0.155 0.34,-0.699 0.412,-0.787 0.071,-0.088 0.244,-0.232 0.46,-0.48 0.225,-0.246 0.505,-0.2 0.694,-0.222 0.193,-0.022 0.683,-0.066 0.921,-0.141 0.237,-0.074 0.812,-0.137 0.93,-0.113 0.115,0.033 0.803,-0.061 1.093,-0.229 0.29,-0.168 0.432,-0.276 0.381,-0.354 -0.051,-0.079 -0.552,-0.422 -0.668,-0.514 -0.116,-0.103 -0.791,-0.418 -0.862,-0.469 -0.075,-0.05 -0.386,-0.199 -0.617,-0.282 -0.234,-0.079 -0.835,-0.31 -0.97,-0.356 -0.138,-0.049 -0.406,-0.13 -0.406,-0.13 0,0 -0.246,0.012 -0.344,-0.048 -0.098,-0.064 -0.176,-0.106 -0.309,-0.171 -0.132,-0.069 -0.122,-0.036 -0.187,-0.005 -0.058,0.027 -0.137,0.015 -0.137,0.015 0,0 -0.201,0.015 -0.272,0.058 -0.072,0.047 -0.435,-0.008 -0.588,0.004 -0.148,0.015 -0.762,0.106 -0.896,0.162 -0.13,0.058 -0.846,0.098 -1.006,0.204 -0.16,0.109 -0.738,0.284 -0.785,0.296 -0.048,0.014 -0.516,0.241 -0.784,0.557 -0.264,0.316 -0.256,0.221 -0.315,0.23 -0.059,0.019 -0.103,0.127 -0.156,0.218 -0.053,0.089 -0.268,0.312 -0.321,0.402 -0.053,0.09 -0.032,0.111 -0.008,0.187 0.029,0.08 -0.101,0.087 -0.2,0.121 -0.099,0.029 -0.156,-0.09 -0.176,-0.148 -0.027,-0.065 0.109,-0.285 0.239,-0.441 0.134,-0.156 0.124,-0.384 0.268,-0.615 0.139,-0.235 0.298,-0.356 0.31,-0.446 0.019,-0.084 0.33,-0.519 0.443,-0.652 0.11,-0.135 0.702,-0.611 0.892,-0.726 0.189,-0.112 0.638,-0.262 0.805,-0.421 0.168,-0.155 0.643,-0.303 0.698,-0.315 0.055,-0.012 0.644,-0.128 0.789,-0.146 0.141,-0.015 0.748,-0.155 0.948,-0.17 0.197,-0.019 0.543,-0.094 0.688,-0.154 0.141,-0.059 0.63,-0.025 0.776,0.02 0.149,0.041 0.216,0.084 0.216,0.084 0,0 0.208,0.085 0.419,0.151 0.215,0.066 0.375,0.11 0.479,0.154 0.101,0.041 0.447,0.217 0.523,0.233 0.073,0.021 0.429,0.222 0.676,0.368 0.254,0.145 0.272,0.095 0.408,0.163 0.14,0.071 0.303,0.186 0.389,0.232 0.086,0.053 0.314,0.111 0.375,0.117 0.068,0.01 0.391,0.165 0.543,0.251 0.164,0.088 0.492,0.171 0.545,0.186 0.061,0.018 0.565,0.2 0.647,0.246 0.075,0.047 0.384,0.075 0.47,0.028 0.087,-0.041 0.117,-0.092 0.09,-0.187 C -5.191,-2.296 -5.424,-2.701 -5.48,-2.794 -5.54,-2.891 -6.02,-3.438 -6.123,-3.523 -6.223,-3.609 -6.444,-4 -6.519,-4.151 -6.599,-4.313 -6.906,-4.858 -7.018,-5 c -0.111,-0.137 -0.36,-0.701 -0.399,-0.766 -0.045,-0.056 -0.365,-0.615 -0.414,-0.664 -0.048,-0.049 -0.496,-0.616 -0.56,-0.679 -0.061,-0.066 -0.318,-0.739 -0.337,-0.827 -0.017,-0.081 -0.126,-0.424 -0.127,-0.645 -10e-4,-0.213 0.01,-0.55 -0.035,-0.648 -0.048,-0.094 -0.034,-0.641 0.018,-0.847 0.051,-0.209 0.268,-0.746 0.421,-0.945 0.154,-0.191 0.397,-0.382 0.677,-0.5 0.274,-0.126 0.707,-0.238 0.95,-0.48 0.239,-0.251 0.884,-0.483 1,-0.578 0.116,-0.099 0.235,-0.157 0.47,-0.313 0.238,-0.157 0.396,-0.15 0.632,-0.333 0.24,-0.19 0.582,-0.314 0.694,-0.367 0.116,-0.05 0.629,-0.441 0.77,-0.553 0.14,-0.115 0.127,-0.043 0.198,-0.093 0.071,-0.058 0.173,0.065 0.173,0.065 0,0 -0.061,0.076 -0.14,0.168 -0.076,0.092 -0.129,0.215 -0.264,0.368 -0.137,0.164 -0.569,0.578 -0.62,0.65 -0.05,0.074 -0.203,0.27 -0.329,0.432 -0.123,0.159 -0.233,0.329 -0.301,0.469 -0.065,0.128 -0.116,0.24 -0.142,0.347 -0.03,0.1 -0.168,0.346 -0.196,0.412 -0.037,0.066 -0.194,0.404 -0.211,0.479 -0.016,0.077 -0.088,0.408 -0.083,0.471 0.004,0.059 -0.097,0.654 -0.107,0.764 -0.017,0.113 0.034,0.393 0.11,0.75 0.079,0.35 0.047,0.326 0.025,0.571 -0.019,0.244 -0.107,0.307 -0.095,0.374 0.013,0.073 0.129,0.461 0.138,0.584 0.01,0.13 -0.032,0.208 0.04,0.371 0.068,0.163 0.005,0.314 0.023,0.451 0.015,0.14 0.075,0.491 0.075,0.491 0,0 0.03,0.196 0.022,0.291 -0.007,0.094 0.012,0.343 0.026,0.439 0.015,0.088 0.157,0.336 0.157,0.336 0,0 0.092,0.33 0.071,0.48 -0.023,0.148 0.052,0.296 0.068,0.358 0.019,0.058 0.162,0.362 0.178,0.413 0.014,0.044 0.179,0.342 0.258,0.493 0.079,0.147 0.068,0.208 0.121,0.309 0.053,0.104 0.329,0.247 0.329,0.247 0,0 0.118,0.223 0.133,0.267 0.015,0.048 0.059,0.194 0.111,0.231 0.044,0.037 0.24,0.255 0.298,0.429 0.062,0.172 0.114,0.265 0.164,0.329 0.049,0.059 0.264,0.323 0.408,0.402 0.145,0.079 0.239,0.042 0.37,0.039 0.131,-0.002 0.865,-0.186 1.079,-0.269 0.211,-0.084 0.414,-0.159 0.636,-0.236 0.215,-0.084 0.265,-0.114 0.377,-0.167 0.116,-0.05 0.387,-0.168 0.704,-0.278 0.31,-0.11 0.35,-0.169 0.454,-0.23 0.099,-0.071 0.209,-0.154 0.323,-0.223 0.115,-0.061 0.199,-0.045 0.27,-0.043 0.071,-10e-4 0.187,-0.096 0.335,-0.22 0.151,-0.124 0.155,-0.071 0.273,-0.092 0.114,-0.031 0.146,-0.003 0.202,0.045 0.052,0.048 0.093,0.138 0.142,0.202 0.047,0.071 0.124,0.144 0.165,0.245 0.049,0.094 0.033,0.185 -0.026,0.294 -0.059,0.113 -0.095,0.078 -0.197,0.109 -0.103,0.023 -0.15,0.097 -0.234,0.178 C 2.17,-1.558 1.987,-1.461 1.932,-1.397 1.877,-1.326 1.602,-1.062 1.52,-0.969 1.444,-0.874 1.338,-0.742 1.255,-0.608 1.164,-0.482 1.043,-0.304 0.946,-0.159 0.86,-0.006 0.716,0.166 0.609,0.29 0.503,0.417 0.435,0.498 0.396,0.534 0.37,0.578 0.391,0.658 0.373,0.764 0.351,0.875 0.375,0.94 0.407,1.012 0.438,1.081 0.495,1.241 0.484,1.388 0.473,1.539 0.617,1.808 0.654,1.85 0.691,1.892 0.722,1.908 0.774,1.953 0.83,2.001 0.847,1.981 0.971,1.987 1.098,1.984 1.123,1.967 1.123,1.967 c 0,0 0.193,-0.063 0.26,-0.072 C 1.45,1.883 1.613,1.863 1.768,1.843 1.923,1.82 2.169,1.756 2.233,1.662 2.301,1.567 2.635,1.542 2.765,1.528 2.892,1.514 3.097,1.409 3.29,1.293 3.476,1.178 3.899,1.089 4.012,1.055 4.13,1.031 4.138,1.034 4.138,1.034 c 0,0 0.289,-0.176 0.555,-0.121 C 4.959,0.967 5.449,0.619 5.519,0.61 5.582,0.602 6.601,0.475 6.716,0.507 6.83,0.532 7.411,0.454 7.525,0.427 7.632,0.407 7.814,0.54 7.862,0.581 7.91,0.618 8.027,0.639 7.991,0.743"
       style="fill:#6e2772;fill-opacity:1;fill-rule:evenodd;stroke:none"
       transform="matrix(0.5333647,0,0,-0.5333647,111.30754,146.27653)"
       clip-path="url(#clipPath142)" />
    <path
       id="path143"
       d="M 0,0 C 0.128,0.02 0.314,0.013 0.442,0.026 0.565,0.045 0.855,0.052 1.095,-0.021 1.331,-0.105 2.177,-0.218 2.283,-0.173 2.391,-0.125 2.647,0.12 2.749,0.366 2.85,0.614 2.902,0.697 3.026,0.945 3.149,1.196 2.999,1.201 2.909,1.506 2.822,1.817 2.805,1.908 2.654,2.12 2.506,2.334 2.396,2.546 2.242,2.877 2.096,3.205 1.513,3.76 1.43,3.814 1.35,3.863 1.233,3.918 1.221,3.574 1.211,3.228 1.221,2.835 1.083,2.441 0.939,2.049 0.883,1.689 0.703,1.417 0.526,1.144 0.076,0.594 -0.025,0.489 -0.135,0.382 -0.272,0.02 -0.272,0.02 -0.272,0.02 -0.124,-0.015 0,0"
       style="fill:#6e2772;fill-opacity:1;fill-rule:evenodd;stroke:none"
       transform="matrix(0.5333647,0,0,-0.5333647,117.59672,150.64164)"
       clip-path="url(#clipPath144)" />
    <path
       id="path145"
       d="m 0,0 c -0.026,-0.086 -0.06,-0.153 -0.116,-0.239 -0.055,-0.082 -0.052,-0.19 -0.156,-0.198 -0.101,-0.015 -0.272,0.068 -0.388,0.049 -0.116,-0.015 -0.19,-0.064 -0.239,-0.074 -0.041,-0.008 -0.171,-0.161 -0.351,-0.083 -0.182,0.079 -0.242,0.086 -0.275,0.124 -0.03,0.029 -0.101,0.19 -0.045,0.305 0.045,0.108 0.142,0.284 0.164,0.299 0.022,0.011 0.097,0.025 0.164,0.089 0.071,0.056 0.108,0.12 0.138,0.164 0.034,0.049 0.06,0.112 0.079,0.112 0.025,0 0.082,0.056 0.167,0.041 0.09,-0.011 0.131,0.049 0.194,0.034 0.071,-0.004 0.06,0.007 0.157,-0.049 C -0.41,0.515 -0.31,0.5 -0.239,0.429 -0.171,0.358 -0.127,0.339 -0.071,0.257 0,0.19 0.03,0.089 0,0 M 2.409,0.16 C 2.297,0.25 2.16,0.335 2.051,0.406 1.943,0.474 1.98,0.376 1.5,0.645 1.026,0.914 1.35,0.589 1.093,0.697 0.835,0.806 0.776,0.806 0.533,0.921 0.284,1.044 0.22,1.123 0.146,1.25 0.075,1.369 0.157,1.38 0.22,1.592 0.28,1.809 0.403,2.115 0.44,2.268 0.481,2.417 0.608,2.935 0.626,3.081 0.642,3.226 0.425,3.603 0.399,3.8 0.369,3.987 0.022,4.371 -0.47,4.591 -0.958,4.811 -0.888,4.569 -1.011,4.494 -1.134,4.419 -1.302,4.192 -1.436,4.009 -1.578,3.827 -1.779,3.603 -1.98,3.405 -2.186,3.208 -2.488,2.797 -2.559,2.693 -2.633,2.584 -3.178,1.533 -3.454,1.398 -3.729,1.268 -3.569,1.335 -3.83,1.294 -4.091,1.246 -4.106,1.335 -4.479,1.268 -4.852,1.197 -4.934,1.305 -5.042,1.312 -5.15,1.324 -5.386,1.342 -5.427,1.275 -5.475,1.208 -5.333,1.134 -5.102,0.984 -4.875,0.839 -4.897,0.794 -4.856,0.652 -4.815,0.507 -4.919,0.321 -4.919,0.224 -4.923,0.13 -4.979,-0.071 -5.121,-0.287 -5.262,-0.507 -5.9,-1.283 -6.117,-1.376 c -0.212,-0.097 -0.432,-0.053 -0.615,0.227 -0.186,0.269 -0.041,0.295 0.041,0.515 0.089,0.216 0.064,0.391 -0.045,0.63 C -6.848,0.246 -6.84,0.16 -7.183,0.458 -7.522,0.761 -7.687,1.312 -7.706,1.521 -7.724,1.727 -7.467,2.01 -7.53,2.148 -7.593,2.286 -7.754,2.156 -7.959,2.077 -8.164,1.999 -8.015,2.051 -8.183,2.025 -8.354,2.002 -8.339,1.992 -8.47,1.999 -8.601,2.002 -8.582,1.969 -8.765,1.835 -8.947,1.701 -8.899,1.689 -8.992,1.518 -9.085,1.342 -9.018,1.238 -9.134,0.97 -9.257,0.697 -9.291,0.641 -9.38,0.5 -9.466,0.362 -9.626,-0.056 -9.906,-0.485 c -0.272,-0.421 -0.831,-1.347 -1.029,-1.593 -0.198,-0.242 -0.75,-0.742 -0.996,-1.029 -0.242,-0.291 -0.697,-0.634 -0.895,-0.824 -0.194,-0.183 -0.574,-0.269 -0.802,-0.474 -0.227,-0.198 -0.507,-0.157 -0.708,-0.317 -0.198,-0.164 -1.052,-0.179 -1.052,-0.179 0,0 -0.146,-0.022 -0.195,-0.089 -0.041,-0.071 -0.167,-0.355 -0.242,-0.463 -0.071,-0.112 -0.037,-0.388 -0.138,-0.514 -0.104,-0.127 -0.167,-0.049 -0.309,-0.209 -0.142,-0.164 -0.015,-0.265 -0.015,-0.265 0,0 0.157,-0.377 0.183,-0.511 0.029,-0.138 0.268,-0.325 0.626,-0.366 0.358,-0.037 0.78,0.224 1.033,0.325 0.265,0.104 0.511,0.257 0.66,0.313 0.157,0.056 0.638,0.388 0.821,0.522 0.183,0.131 0.306,0.235 0.358,0.314 0.052,0.082 0.365,0.387 0.593,0.593 0.224,0.197 0.246,0.287 0.362,0.447 0.119,0.153 0.343,0.283 0.555,0.496 0.213,0.213 0.347,0.444 0.388,0.511 0.041,0.064 0.179,0.153 0.456,0.519 0.272,0.365 0.208,0.294 0.499,0.745 0.295,0.455 0.388,0.493 0.586,0.676 0.197,0.182 0.57,0.373 0.88,0.559 0.313,0.186 0.272,0.06 0.828,-0.145 0.559,-0.202 0.358,-0.25 0.537,-0.444 0.175,-0.194 0.086,-0.25 0.197,-0.612 0.109,-0.365 -0.078,-0.421 -0.149,-0.533 -0.074,-0.105 -0.149,-0.138 -0.347,-0.299 -0.201,-0.16 -0.201,-0.067 -0.272,-0.115 -0.07,-0.056 -0.436,-0.056 -0.511,-0.198 -0.074,-0.146 -0.044,-0.339 -0.018,-0.47 0.026,-0.138 -0.008,-0.365 -0.086,-0.533 -0.09,-0.157 -0.25,-0.522 -0.444,-0.757 -0.194,-0.25 -0.347,-0.485 -0.522,-0.664 -0.172,-0.179 -0.436,-0.731 -0.53,-0.936 -0.097,-0.209 -0.048,-0.228 -0.246,-0.295 -0.197,-0.067 -0.268,-0.06 -0.463,-0.123 -0.201,-0.071 -0.115,-0.03 -0.406,0.082 -0.291,0.112 -0.384,0.037 -0.608,0.104 -0.22,0.071 -0.559,0.228 -0.88,0.295 -0.321,0.071 -0.321,-0.022 -0.321,-0.022 0,0 0.034,-0.221 0.071,-0.34 0.034,-0.115 0.183,-0.544 0.216,-0.787 0.038,-0.231 0.187,-0.391 0.299,-0.458 0.104,-0.071 0.336,-0.224 0.484,-0.224 0.154,0 0.463,-0.06 0.575,-0.06 0.116,0.004 0.179,-0.019 0.332,-0.231 0.149,-0.216 -0.052,-0.612 -0.164,-0.787 -0.119,-0.183 -0.22,-0.216 -0.418,-0.314 -0.201,-0.104 -0.425,-0.395 -0.514,-0.469 -0.09,-0.086 -0.616,-0.422 -0.784,-0.47 -0.16,-0.049 -0.13,-0.209 -0.145,-0.291 -0.019,-0.082 -0.064,-0.448 -0.105,-0.69 -0.041,-0.246 0.098,-0.53 0.31,-0.791 0.22,-0.257 0.563,-0.38 0.79,-0.47 0.228,-0.089 0.508,0.078 0.668,0.172 0.157,0.093 0.534,0.414 0.619,0.518 0.083,0.093 0.358,0.545 0.437,0.705 0.089,0.16 0.156,0.384 0.25,0.522 0.086,0.138 0.141,0.22 0.316,0.496 0.18,0.273 0.146,0.221 0.299,0.429 0.153,0.213 0.093,0.175 0.209,0.351 0.116,0.179 0.22,0.291 0.395,0.529 0.172,0.235 0.373,0.243 0.575,0.381 0.205,0.138 0.451,0.045 0.779,0.198 0.332,0.156 0.6,-0.019 0.899,-0.094 0.295,-0.074 0.362,0 0.66,-0.074 0.298,-0.075 0.556,-0.209 0.947,-0.34 0.388,-0.138 0.582,-0.164 0.705,-0.149 0.131,0.015 0.724,-0.078 0.903,-0.093 0.179,-0.019 0.559,-0.116 0.802,-0.093 0.242,0.018 0.246,0.171 0.421,0.447 0.179,0.273 -0.004,0.257 -0.358,0.544 -0.347,0.28 -0.205,0.154 -0.268,0.292 -0.064,0.138 -0.072,0.238 -0.277,0.432 -0.205,0.187 -0.283,0.243 -0.342,0.358 -0.057,0.116 -0.045,0.22 -0.075,0.414 -0.026,0.194 -0.075,0.306 -0.183,0.511 -0.115,0.213 -0.172,0.25 -0.276,0.41 -0.101,0.168 -0.074,0.209 -0.298,0.314 -0.217,0.104 -0.097,-0.157 -0.123,-0.254 -0.023,-0.097 -0.053,-0.526 -0.053,-0.526 0,0 0.045,-0.578 0.004,-0.704 -0.045,-0.131 0.026,-0.318 -0.059,-0.474 -0.082,-0.157 -0.034,-0.052 -0.351,-0.336 -0.313,-0.28 -0.787,-0.116 -0.917,-0.086 -0.135,0.03 -0.407,0.086 -0.739,0.164 -0.328,0.079 -0.388,-0.037 -0.638,0.138 -0.246,0.183 -0.086,0.101 -0.086,0.101 0,0 0.019,0.239 0.045,0.399 0.03,0.16 0.265,0.351 0.295,0.448 0.022,0.104 -0.038,0.242 -0.038,0.242 0,0 -0.25,-0.09 -0.376,-0.104 -0.127,-0.019 -0.392,-0.276 -0.649,-0.44 -0.261,-0.164 -0.198,0.044 -0.172,0.145 0.027,0.101 0.302,0.295 0.422,0.41 0.115,0.127 0.294,0.045 0.566,0.317 0.269,0.273 0.34,0.112 0.471,0.28 0.13,0.172 0.19,0.269 0.26,0.317 0.072,0.052 0.068,0.075 0.362,0.53 0.291,0.451 0.217,0.126 0.47,0.22 0.25,0.089 0.25,0.093 0.399,0.153 0.153,0.056 0.139,0.022 0.429,0.123 0.295,0.104 0.302,0.082 0.489,0.138 0.19,0.048 0.145,0.127 0.19,0.205 0.041,0.082 -0.09,0.104 -0.19,0.104 -0.09,0.004 -0.078,-0.018 -0.313,0.064 -0.232,0.082 -0.291,0.134 -0.459,0.127 -0.168,-0.004 -0.216,0.093 -0.246,0.167 -0.023,0.071 -0.019,0.086 0.086,0.243 0.093,0.149 0.07,0.067 0.201,0.194 0.13,0.134 0.212,0.168 0.395,0.358 0.187,0.194 0.276,0.224 0.552,0.291 0.276,0.067 0.388,0.063 0.507,0.104 0.123,0.037 0.295,-0.041 0.44,0.037 0.15,0.079 0.239,0.038 0.37,0.038 0.126,-0.011 0.224,-0.127 0.291,-0.153 0.059,-0.019 0.186,-0.004 0.35,-0.06 0.164,-0.056 0.194,-0.048 0.298,-0.078 0.105,-0.027 0.344,-0.116 0.485,-0.201 0.139,-0.094 0.31,-0.072 0.407,-0.094 0.101,-0.026 0.336,-0.078 0.478,-0.153 0.141,-0.071 0.424,-0.138 0.559,-0.112 0.134,0.034 0.451,0.101 0.496,0.228 0.045,0.127 -0.168,0.343 -0.246,0.395 -0.082,0.049 -0.448,0.228 -0.448,0.228 0,0 -0.209,0.059 -0.406,0.112 -0.198,0.048 -0.385,0.093 -0.642,0.1 -0.261,0.007 -0.474,0.131 -0.474,0.131 0,0 -0.335,0.101 -0.637,0.257 -0.299,0.161 -0.31,0.082 -0.385,0.112 -0.078,0.033 -0.137,0.172 -0.137,0.172 0,0 0.003,0.07 0.167,0.201 0.157,0.131 0.209,0.119 0.299,0.176 0.097,0.055 0.32,0.104 0.418,0.137 0.1,0.03 0.253,0.093 0.387,0.12 0.135,0.03 0.418,0.171 0.582,0.167 0.168,-0.007 0.209,0.019 0.388,0.064 0.179,0.037 0.231,0.086 0.544,0.075 0.321,-0.012 0.288,0.085 0.288,0.085 l 0.268,0.06 c 0,0 0.422,0.231 0.567,0.28 0.145,0.041 0.202,0.156 0.377,0.201 0.179,0.037 0.414,0.22 0.548,0.462 C 2.73,0.119 2.521,0.067 2.409,0.16"
       style="fill:#6e2772;fill-opacity:1;fill-rule:evenodd;stroke:none"
       transform="matrix(0.5333647,0,0,-0.5333647,121.30967,151.8287)"
       clip-path="url(#clipPath146)" />
    <path
       id="path147"
       d="m 0,0 c -0.234,0.333 -0.176,0.271 -0.251,0.458 -0.075,0.188 -0.023,0.298 -0.057,0.439 -0.036,0.142 0.031,0.325 0.042,0.454 0.015,0.132 -0.023,0.135 -0.063,0.254 C -0.367,1.732 -0.414,1.722 -0.494,1.849 -0.569,1.975 -0.691,2 -0.691,2 -0.691,2 -0.703,1.929 -0.798,1.845 -0.892,1.755 -0.83,1.794 -0.862,1.684 -0.895,1.573 -0.903,1.41 -0.934,1.323 -0.966,1.233 -1.019,1.204 -1.104,1.065 -1.191,0.93 -1.293,0.93 -1.46,1.09 -1.628,1.251 -1.558,1.239 -1.673,1.449 -1.787,1.654 -1.728,1.713 -1.759,1.918 -1.793,2.122 -1.772,2.26 -1.885,2.452 -2.001,2.638 -1.986,2.535 -2.242,2.734 -2.5,2.929 -2.606,2.789 -2.679,2.74 -2.751,2.695 -2.734,2.554 -2.71,2.376 c 0.025,-0.17 -0.05,-0.363 0.034,-0.66 0.078,-0.297 0.055,-0.522 0.042,-0.945 -0.012,-0.426 -0.01,-0.306 0.061,-0.612 0.073,-0.306 0.078,-0.523 0.037,-0.835 -0.04,-0.309 0.218,-0.468 0.366,-0.567 0.15,-0.098 0.238,-0.213 0.545,-0.162 0.305,0.045 0.401,-0.146 0.541,-0.252 0.138,-0.108 0.069,-0.012 0.547,-0.006 0.477,0.01 0.263,-0.032 0.579,0.28 0.31,0.311 0.118,0.333 0.169,0.672 C 0.263,-0.367 0.232,-0.335 0,0"
       style="fill:#6e2772;fill-opacity:1;fill-rule:evenodd;stroke:none"
       transform="matrix(0.5333647,0,0,-0.5333647,154.87831,150.96614)"
       clip-path="url(#clipPath148)" />
    <path
       id="path149"
       d="m 0,0 c -0.026,0.169 -0.083,0.187 -0.08,0.359 0,0.168 -0.16,0.534 -0.16,0.534 0,0 -0.183,0.115 -0.396,0.187 C -0.848,1.159 -1.187,1.232 -1.341,1.229 -1.488,1.224 -1.517,1.201 -1.638,1.146 -1.758,1.091 -1.857,1.114 -1.917,1.091 -1.977,1.056 -2.125,1.021 -2.226,0.953 -2.328,0.876 -2.479,0.842 -2.596,0.87 -2.715,0.903 -3.015,0.937 -3.136,0.883 -3.253,0.825 -3.258,0.732 -3.715,0.732 -4.169,0.732 -3.869,0.62 -3.943,0.617 -4.019,0.613 -4.286,0.642 -4.408,0.662 -4.529,0.684 -4.675,0.539 -4.898,0.572 -5.121,0.607 -5.402,0.545 -5.562,0.466 -5.722,0.373 -5.866,0.518 -5.992,0.562 -6.12,0.604 -6.186,0.635 -6.601,0.911 -7.016,1.19 -7.034,1.091 -7.374,1.194 -7.714,1.307 -7.753,1.294 -7.902,1.291 -8.051,1.287 -8.348,1.035 -8.578,0.893 -8.806,0.745 -8.755,0.572 -8.803,0.338 c -0.052,-0.235 0.193,-0.566 0.331,-0.689 0.136,-0.122 0.292,-0.346 0.446,-0.532 0.149,-0.193 0.209,-0.296 0.306,-0.489 0.098,-0.201 0.245,-0.324 0.536,-0.353 0.288,-0.034 0.571,-0.051 1.03,-0.076 0.459,-0.02 0.514,0.063 0.779,0.193 0.266,0.121 0.31,0.208 0.732,0.414 0.422,0.201 0.369,0.111 0.522,0.135 0.155,0.024 0.312,0.221 0.519,0.211 0.209,-0.015 -0.01,-0.244 -0.086,-0.376 -0.076,-0.134 -0.25,-0.324 -0.305,-0.362 -0.053,-0.045 -0.207,-0.152 -0.303,-0.193 -0.096,-0.042 -0.246,-0.138 -0.51,-0.291 -0.259,-0.148 -0.562,-0.373 -0.796,-0.559 -0.24,-0.186 -0.42,-0.258 -0.488,-0.403 -0.066,-0.141 -0.44,-0.349 -0.521,-0.459 -0.081,-0.11 -0.644,-0.276 -0.821,-0.434 -0.176,-0.159 -0.402,-0.156 -0.619,-0.317 -0.222,-0.156 -0.858,-0.401 -0.942,-0.574 -0.088,-0.171 -0.646,-0.241 -0.879,-0.279 -0.233,-0.037 -0.403,-0.004 -0.723,0.066 -0.321,0.071 -0.616,0.132 -1.013,0.152 -0.396,0.028 -0.431,0.006 -0.663,0.054 -0.231,0.049 -0.418,0.022 -0.558,0.049 -0.145,0.024 -0.385,0.024 -0.76,0.056 -0.372,0.027 -0.507,-0.284 -0.542,-0.501 -0.034,-0.217 0.012,-0.162 0.061,-0.265 0.044,-0.097 0.067,-0.276 0.073,-0.401 0.012,-0.134 0.01,-0.261 -0.011,-0.344 -0.021,-0.084 -0.097,-0.408 -0.088,-0.552 0.005,-0.138 0.24,-0.263 0.412,-0.338 0.167,-0.077 0.312,-0.179 0.55,-0.315 0.244,-0.141 0.363,-0.337 0.557,-0.389 0.2,-0.051 0.602,-0.176 0.708,-0.214 0.108,-0.042 0.179,-0.167 0.337,-0.228 0.153,-0.062 0.354,-0.103 0.499,-0.11 0.146,-0.003 0.437,-0.035 0.61,-0.015 0.176,0.019 0.245,0.09 0.34,0.125 0.095,0.042 0.286,0.208 0.501,0.394 0.219,0.18 0.389,0.186 0.501,0.248 0.111,0.055 0.127,0.289 0.418,0.311 0.29,0.027 0.39,0.234 0.596,0.299 0.209,0.067 0.711,0.248 0.9,0.328 0.189,0.08 0.291,0.097 0.592,0.16 0.301,0.061 0.369,0.075 0.553,0.138 0.187,0.061 0.562,0.03 0.811,0.061 0.253,0.032 0.475,0.158 0.684,0.138 0.207,-0.021 0.508,-0.048 0.807,-0.08 0.298,-0.03 0.529,-0.113 0.78,-0.134 0.248,-0.02 0.455,0 0.758,-0.048 0.31,-0.042 0.236,0.089 0.325,0.23 0.09,0.138 0.309,0.17 0.349,0.322 0.036,0.151 0.095,0.372 0.134,0.523 0.038,0.153 -0.024,0.187 -0.05,0.263 -0.023,0.069 -0.053,0.208 -0.236,0.318 -0.185,0.109 0.042,0.076 -0.235,0.199 -0.276,0.125 -0.293,0.215 -0.505,0.304 -0.21,0.087 -0.283,0.007 -0.368,-0.035 -0.086,-0.044 -0.219,-0.076 -0.343,-0.137 -0.125,-0.065 -0.31,-0.255 -0.423,-0.293 -0.113,-0.032 -0.447,-0.045 -0.57,-0.067 -0.122,-0.026 -0.382,0 -0.656,0.084 -0.273,0.083 -0.174,0.061 -0.301,0.151 -0.126,0.083 -0.036,0.105 0.005,0.221 0.042,0.125 0.206,0.1 0.28,0.145 0.076,0.048 0.157,0.076 0.346,0.356 0.189,0.276 0.237,0.176 0.397,0.186 0.164,0.01 0.331,0.216 0.571,0.404 0.24,0.186 0.288,0.171 0.447,0.219 0.161,0.045 0.567,0.395 0.816,0.401 0.245,0.017 0.351,0.174 0.608,0.266 0.255,0.097 0.549,0.331 0.74,0.369 0.188,0.037 0.388,0.072 0.702,0.262 0.316,0.186 0.294,0.387 0.308,0.613 C 0.17,-0.925 0.114,-0.825 0.117,-0.449 0.117,-0.068 0.019,-0.165 0,0"
       style="fill:#6e2772;fill-opacity:1;fill-rule:evenodd;stroke:none"
       transform="matrix(0.5333647,0,0,-0.5333647,130.83525,156.54561)"
       clip-path="url(#clipPath150)" />
    <path
       id="path151"
       d="M 0,0 C -0.201,0.288 -0.431,0.301 -0.844,0.339 -1.251,0.375 -1.193,0.246 -1.677,0.125 -2.159,0.003 -2.54,-0.075 -2.762,-0.12 -2.983,-0.168 -2.858,-0.3 -2.78,-0.383 c 0.081,-0.09 0.312,-0.206 0.479,-0.347 0.171,-0.142 0.476,-0.411 0.57,-0.687 0.092,-0.276 0.218,-0.697 0.254,-0.966 0.039,-0.269 -0.039,-0.311 -0.047,-0.421 -0.011,-0.11 0.042,-0.2 0.313,-0.407 0.272,-0.206 0.164,-0.036 0.295,0.083 0.135,0.114 0.005,0.068 0.58,0.199 0.577,0.138 0.344,0.08 0.568,0.195 0.227,0.11 0.151,0.088 0.307,0.219 0.155,0.132 0.194,0.356 0.211,0.622 C 0.766,-1.631 0.68,-1.507 0.547,-0.92 0.41,-0.338 0.202,-0.287 0,0"
       style="fill:#6e2772;fill-opacity:1;fill-rule:evenodd;stroke:none"
       transform="matrix(0.5333647,0,0,-0.5333647,142.42654,159.9328)"
       clip-path="url(#clipPath152)" />
    <path
       id="path153"
       d="m 0,0 c -0.063,-0.171 -0.083,-0.146 -0.083,-0.294 -0.003,-0.15 -0.074,-0.194 -0.13,-0.332 -0.059,-0.142 -0.224,-0.221 -0.246,-0.317 -0.022,-0.105 -0.022,-0.146 -0.098,-0.198 -0.078,-0.041 -0.062,-0.187 -0.189,-0.191 -0.131,0 -0.228,-0.014 -0.258,0.079 -0.022,0.093 -0.1,0.134 -0.067,0.287 0.038,0.149 0.127,0.179 0.138,0.291 0.011,0.123 0.03,0.116 0.101,0.269 0.074,0.145 0.127,0.104 0.201,0.305 0.074,0.198 0.138,0.209 0.201,0.303 0.064,0.093 0.023,0.134 0.135,0.201 0.111,0.071 0.111,0.168 0.187,0.063 0.07,-0.108 0.088,-0.1 0.111,-0.197 C 0.015,0.172 0.056,0.172 0,0 m -1.455,-2.614 c -0.023,-0.09 -0.078,-0.205 -0.228,-0.306 -0.145,-0.094 -0.256,-0.052 -0.391,-0.164 -0.131,-0.116 -0.205,-0.194 -0.239,-0.269 -0.034,-0.074 -0.153,-0.123 -0.25,-0.104 -0.097,0.03 -0.157,0.003 -0.182,0.067 -0.019,0.059 -0.034,0.168 -0.064,0.384 -0.03,0.22 -0.1,0.295 -0.048,0.447 0.055,0.146 0.059,0.101 0.089,0.37 0.034,0.265 0.093,0.298 0.079,0.384 -0.011,0.082 -0.049,0.067 0.029,0.112 0.09,0.045 0.075,-0.053 0.217,-0.116 0.133,-0.06 0.175,-0.16 0.324,-0.16 0.149,0 0.112,0.037 0.284,-0.015 0.175,-0.052 0.183,-0.108 0.268,-0.186 0.083,-0.079 0.13,0.093 0.171,-0.098 0.042,-0.19 -0.033,-0.261 -0.059,-0.346 m 0.071,-9.809 c 0.115,-0.176 0.13,-0.332 0.153,-0.56 0.018,-0.224 0.134,-0.581 0.164,-0.731 0.03,-0.149 0.19,-0.451 -0.187,-0.548 -0.369,-0.101 -0.406,-0.231 -0.648,-0.134 -0.24,0.101 -0.295,-0.22 -0.366,0.197 -0.067,0.422 0.123,0.287 0.123,0.564 -0.003,0.28 -0.011,0.533 0.063,0.757 0.071,0.216 -0.107,0.238 0.239,0.354 0.351,0.112 0.343,0.276 0.459,0.101 m 6.243,11.92 C 4.818,-0.276 4.781,-0.332 4.695,-0.224 4.605,-0.108 4.557,-0.056 4.434,0.104 4.314,0.265 4.124,0.228 3.938,0.202 3.759,0.179 3.722,0.142 3.412,0.038 3.099,-0.071 3.133,-0.201 2.901,-0.287 2.67,-0.365 2.495,-0.601 2.375,-0.686 2.256,-0.779 2.081,-0.895 1.977,-0.951 1.868,-1.011 1.745,-1.093 1.585,-1.261 1.424,-1.421 1.342,-1.428 1.141,-1.525 0.939,-1.63 1.018,-1.648 0.831,-1.656 c -0.183,0 -0.13,0.075 -0.16,0.276 -0.026,0.187 0.156,0.276 0.216,0.433 0.063,0.153 0.217,0.216 0.373,0.403 0.161,0.19 0.157,0.145 0.388,0.261 0.228,0.115 0.436,0.436 0.575,0.615 0.141,0.175 0.089,0.25 0.092,0.522 C 2.319,1.123 2.301,1.25 2.163,1.664 2.021,2.078 1.913,1.958 1.622,2.078 1.331,2.193 1.443,2.331 0.966,2.297 0.492,2.264 0.671,2.152 0.298,2.107 -0.075,2.066 -0.269,1.47 -0.329,1.339 -0.392,1.208 -0.452,1.104 -0.541,0.944 -0.631,0.787 -0.623,0.731 -0.862,0.533 -1.101,0.336 -1.205,-0.022 -1.254,-0.123 -1.299,-0.224 -1.455,-0.339 -1.56,-0.488 c -0.1,-0.146 -0.256,-0.142 -0.469,-0.22 -0.213,-0.083 -0.213,-0.038 -0.299,-0.012 -0.082,0.03 -0.205,0.243 -0.228,0.321 -0.018,0.082 -0.029,0.142 -0.007,0.354 0.019,0.213 0.22,0.407 0.243,0.597 0.03,0.187 0.115,0.44 0.071,0.698 -0.049,0.253 -0.184,0.626 -0.567,0.742 -0.38,0.112 -0.388,0.16 -0.548,0.279 C -3.521,2.379 -3.678,2.533 -4.047,2.555 -4.424,2.577 -4.264,2.461 -4.371,2.387 -4.483,2.313 -4.938,2.163 -4.979,2.104 -5.021,2.048 -4.99,1.801 -4.938,1.589 -4.887,1.376 -4.867,1.216 -4.801,0.903 -4.737,0.589 -4.596,0.302 -4.547,0.19 c 0.045,-0.123 0.09,-0.529 0.119,-0.816 0.031,-0.288 0.068,-0.556 0.09,-0.676 0.011,-0.119 -0.074,-0.54 -0.078,-0.716 -0.008,-0.175 -0.135,-0.115 -0.213,-0.175 -0.071,-0.063 -0.34,-0.276 -0.34,-0.276 0,0 -0.156,-0.112 -0.249,-0.172 -0.094,-0.063 -0.094,-0.145 -0.094,-0.145 0,0 -0.041,0.052 -0.283,0.052 -0.242,-0.003 -0.231,0.008 -0.324,0.049 -0.098,0.037 -0.168,0.089 -0.303,0.164 -0.13,0.078 -0.231,0.026 -0.361,-0.019 -0.135,-0.041 -0.112,-0.108 -0.131,-0.291 -0.015,-0.183 -0.011,-0.231 0.008,-0.425 0.015,-0.201 -0.06,-0.276 -0.064,-0.526 -0.007,-0.246 0.004,-0.309 0.075,-0.552 0.075,-0.242 0.182,-0.35 0.399,-0.556 0.209,-0.208 0.228,-0.197 0.358,-0.167 0.126,0.03 0.503,0.112 0.593,0.302 0.086,0.186 0.16,0.518 0.269,0.656 0.1,0.146 0.115,0.276 0.171,0.664 0.059,0.377 0.235,0.287 0.317,0.373 0.078,0.082 0.22,0.328 0.22,0.328 0,0 0.053,-0.138 0.123,-0.238 0.079,-0.105 0.153,-0.135 0.19,-0.325 0.041,-0.198 0.053,-0.16 0.101,-0.373 0.049,-0.212 0.176,-0.582 0.172,-0.705 -0.004,-0.123 -0.027,-0.115 -0.179,-0.339 -0.149,-0.217 -0.463,-0.425 -0.556,-0.489 -0.089,-0.07 -0.425,-0.406 -0.507,-0.466 -0.086,-0.063 -0.257,-0.212 -0.5,-0.313 -0.243,-0.09 -0.847,-0.649 -0.94,-0.731 -0.093,-0.09 -0.358,-0.235 -0.41,-0.287 -0.056,-0.053 -0.343,-0.19 -0.459,-0.292 -0.123,-0.1 -0.459,-0.16 -0.724,-0.249 -0.264,-0.086 -0.436,-0.101 -0.686,-0.153 -0.246,-0.056 -0.395,-0.097 -0.742,-0.187 -0.347,-0.093 -0.119,-0.141 -0.164,-0.276 -0.044,-0.126 -0.011,-0.239 -0.048,-0.403 -0.037,-0.16 -0.075,-0.201 -0.041,-0.424 0.029,-0.228 0.111,-0.224 0.313,-0.269 0.197,-0.045 0.261,-0.157 0.511,-0.421 0.234,-0.265 0.402,-0.183 0.634,-0.247 0.231,-0.059 0.399,-0.067 0.768,-0.13 0.366,-0.064 0.47,0.35 0.854,0.514 0.391,0.161 0.44,0.541 0.686,0.892 0.246,0.362 0.425,0.708 0.657,0.873 0.231,0.168 0.182,0.309 0.328,0.443 0.145,0.135 0.239,0.25 0.44,0.396 0.191,0.141 0.15,0.063 0.283,0.048 0.139,-0.011 0.209,-0.168 0.318,-0.216 0.108,-0.045 0.168,-0.164 0.246,-0.216 0.078,-0.053 0.223,-0.135 0.358,-0.146 0.134,-0.015 0.134,0.056 0.38,0.175 0.254,0.12 0.164,0.168 0.291,0.299 0.123,0.13 0.071,0.011 0.265,-0.004 0.194,-0.011 0.078,-0.197 0.078,-0.197 0,0 -0.041,-0.15 -0.082,-0.28 -0.041,-0.134 -0.06,-0.09 -0.123,-0.164 -0.06,-0.071 -0.067,-0.082 -0.183,-0.138 -0.115,-0.06 -0.25,-0.142 -0.339,-0.202 -0.093,-0.067 -0.19,-0.123 -0.287,-0.242 -0.094,-0.112 -0.209,-0.194 -0.407,-0.344 -0.209,-0.152 -0.212,-0.178 -0.25,-0.316 -0.029,-0.142 0.075,-0.299 0.108,-0.37 0.027,-0.07 0.12,-0.223 0.318,-0.287 0.193,-0.067 0.238,-0.049 0.387,-0.008 0.15,0.042 0.269,0.057 0.474,0.127 0.205,0.071 0.156,0.12 0.336,0.213 0.187,0.086 0.234,-0.115 0.234,-0.194 0,-0.085 -0.059,-0.224 -0.078,-0.324 -0.014,-0.105 -0.172,-0.153 -0.313,-0.243 -0.142,-0.093 -0.22,-0.123 -0.175,-0.283 0.045,-0.157 0.086,-0.164 0.242,-0.146 0.16,0.026 0.254,0.098 0.403,0.064 0.145,-0.03 0.276,-0.064 0.343,-0.261 0.068,-0.198 0.023,-0.187 -0.049,-0.258 -0.074,-0.074 -0.107,-0.096 -0.178,-0.168 -0.072,-0.074 -0.101,-0.108 -0.164,-0.212 -0.068,-0.101 -0.369,-0.179 -0.511,-0.228 -0.146,-0.052 -0.414,-0.056 -0.504,-0.078 -0.09,-0.022 -0.168,-0.168 -0.168,-0.168 0,0 -0.138,-0.264 -0.119,-0.414 0.022,-0.153 0.03,-0.499 0.145,-0.593 0.116,-0.097 0.236,-0.153 0.448,-0.201 0.209,-0.041 0.201,0.026 0.223,-0.149 0.027,-0.179 -0.003,-0.411 -0.051,-0.575 -0.049,-0.16 -0.445,-0.496 -0.601,-0.615 -0.156,-0.108 -0.5,-0.306 -0.623,-0.384 -0.119,-0.078 -0.443,-0.157 -0.57,-0.217 -0.127,-0.059 -0.127,-0.033 -0.246,0.008 -0.12,0.045 -0.127,0.086 -0.448,0.179 -0.317,0.089 -0.328,0.015 -0.467,-0.026 -0.137,-0.038 -0.096,-0.108 -0.119,-0.243 -0.018,-0.137 -0.071,-0.212 -0.067,-0.26 0.008,-0.049 -0.011,-0.25 0.034,-0.452 0.048,-0.205 0.134,-0.22 0.261,-0.38 0.119,-0.157 0.179,-0.295 0.179,-0.295 l 0.253,-0.116 c 0,0 0.254,-0.048 0.381,-0.298 0.126,-0.253 0.317,-0.227 0.395,-0.216 0.082,0.011 0.422,0.059 0.481,0.153 0.06,0.089 0.198,0.13 0.261,0.182 0.064,0.049 0.276,0.254 0.332,0.336 0.06,0.078 0.183,0.228 0.291,0.339 0.108,0.112 0.09,0.235 0.213,0.456 0.119,0.227 0.115,0.279 0.119,0.384 0.008,0.1 0.041,0.369 0.228,0.436 0.182,0.067 0.1,-0.007 0.156,-0.03 0.057,-0.026 0.186,-0.071 0.25,-0.119 0.075,-0.049 0.183,-0.194 0.183,-0.194 0,0 0.205,-0.217 0.276,-0.284 0.071,-0.074 0.142,-0.149 0.246,-0.399 0.108,-0.265 0.213,-0.257 0.254,-0.414 0.045,-0.168 0.209,-0.306 0.332,-0.324 0.127,-0.012 0.335,-0.023 0.462,0 0.123,0.033 0.108,0.164 0.194,0.268 0.09,0.109 0.15,0.194 0.25,0.276 0.101,0.09 0.242,0.194 0.328,0.295 0.09,0.105 0.38,0.567 0.396,0.619 0.011,0.056 -0.023,0.496 -0.045,0.597 -0.023,0.104 -0.112,0.671 -0.142,0.872 -0.026,0.209 -0.097,0.254 -0.149,0.489 -0.056,0.246 -0.101,0.448 -0.153,0.686 -0.056,0.243 -0.06,0.4 -0.082,0.642 -0.023,0.25 0.067,0.336 0.1,0.455 0.038,0.119 0.098,0.138 0.184,0.317 0.085,0.175 0.104,-0.03 0.212,0.298 0.108,0.325 0.112,0.381 0.153,0.593 0.041,0.217 0.015,0.179 0.037,0.344 0.019,0.153 0,0.186 -0.119,0.19 -0.123,0 -0.097,-0.049 -0.201,-0.127 C 0.66,-9.686 0.693,-9.686 0.451,-9.738 0.216,-9.787 0.361,-9.749 0.186,-9.753 0.015,-9.757 0.052,-9.727 -0.03,-9.458 c -0.074,0.268 0.059,0.183 0.201,0.347 0.139,0.164 0.104,0.123 0.239,0.264 0.134,0.146 0.123,0.161 0.167,0.25 0.053,0.094 0.094,0.075 0.079,0.284 -0.022,0.205 0.052,0.123 -0.149,0.238 -0.197,0.116 -0.191,0.194 -0.236,0.291 -0.041,0.097 -0.033,0.258 0.004,0.344 0.041,0.093 0.09,0.19 0.199,0.287 0.107,0.097 0.123,0.205 0.186,0.335 0.067,0.138 0.033,0.216 0.011,0.306 -0.026,0.09 -0.164,0.187 -0.242,0.351 -0.086,0.167 -0.228,0 -0.336,-0.026 -0.113,-0.026 -0.123,-0.161 -0.172,-0.399 -0.048,-0.235 -0.156,-0.127 -0.25,-0.161 -0.101,-0.03 -0.052,-0.007 -0.138,0.097 -0.086,0.105 -0.052,0.22 -0.033,0.298 0.019,0.075 0.156,0.366 0.212,0.452 0.06,0.093 0.35,0.313 0.53,0.463 0.187,0.148 0.414,0.216 0.638,0.283 0.224,0.078 0.306,0.015 0.447,0.387 0.142,0.37 0.273,0.172 0.328,0.359 0.057,0.186 -0.045,0.41 -0.093,0.589 -0.044,0.179 -0.1,0.216 -0.175,0.32 C 1.309,-3.394 1.245,-3.29 1.04,-3.226 0.839,-3.159 0.556,-3.345 0.271,-3.457 -0.008,-3.565 0.029,-3.614 -0.358,-3.748 c -0.396,-0.123 -0.291,-0.243 -0.318,-0.384 -0.018,-0.131 -0.127,-0.34 -0.123,-0.515 0.004,-0.175 -0.041,-0.347 -0.055,-0.466 -0.015,-0.116 -0.075,-0.455 -0.131,-0.537 -0.06,-0.082 -0.179,-0.317 -0.228,-0.511 -0.045,-0.194 -0.234,-0.232 -0.455,-0.455 -0.228,-0.232 -0.283,-0.261 -0.306,-0.161 -0.026,0.101 -0.045,0.325 -0.045,0.452 0.004,0.126 0.086,0.138 0.154,0.239 0.067,0.104 0.055,0.264 0.141,0.443 0.086,0.194 0.078,0.172 0.164,0.299 0.082,0.126 0.138,0.268 0.158,0.331 0.018,0.068 0.062,0.157 0.044,0.329 -0.003,0.044 0.004,0.071 0.007,0.082 -0.018,-0.015 -0.063,-0.041 -0.182,-0.056 -0.28,-0.026 -0.201,-0.172 -0.287,-0.295 -0.082,-0.123 -0.158,-0.183 -0.221,-0.309 -0.066,-0.134 -0.212,-0.075 -0.41,-0.22 -0.194,-0.142 -0.138,-0.038 -0.249,0.086 -0.105,0.119 -0.127,0.26 -0.135,0.395 -0.008,0.134 0.168,0.272 0.231,0.332 0.06,0.059 0.25,0.193 0.485,0.316 0.243,0.131 0.317,0.295 0.473,0.418 0.158,0.127 0.426,0.272 0.638,0.362 0.213,0.09 0.161,0.235 0.407,0.306 0.247,0.071 0.392,0.272 0.649,0.328 0.262,0.06 0.586,0.205 0.713,0.257 0.126,0.045 0.414,0.068 0.585,0.123 0.175,0.053 0.175,0.053 0.508,0.109 0.328,0.059 0.246,0.071 0.383,0.1 0.142,0.027 0.332,0.053 0.746,0.164 0.414,0.109 0.384,0.127 0.556,0.18 0.179,0.055 0.564,0.238 0.765,0.324 0.201,0.097 0.336,0.108 0.395,0.328 0.064,0.213 0.119,0.258 0.119,0.411 0,0.156 0.075,0.219 0.041,0.44"
       style="fill:#6e2772;fill-opacity:1;fill-rule:evenodd;stroke:none"
       transform="matrix(0.5333647,0,0,-0.5333647,140.38477,154.04702)"
       clip-path="url(#clipPath154)" />
    <path
       id="path155"
       d="m 0,0 c -0.159,-0.061 -0.229,-0.126 -0.501,-0.309 -0.27,-0.18 -0.142,-0.173 -0.193,-0.208 -0.055,-0.042 -0.33,-0.231 -0.433,-0.286 -0.104,-0.062 -0.223,-0.141 -0.431,-0.259 -0.209,-0.124 -0.204,-0.124 -0.414,-0.172 -0.212,-0.055 -0.517,0.062 -0.63,0.02 -0.112,-0.035 -0.162,-0.03 -0.304,-0.048 -0.142,-0.01 -0.23,-0.007 -0.501,-0.075 -0.269,-0.063 -0.21,-0.015 -0.288,-0.015 -0.073,0 -0.131,0.128 -0.415,0.173 -0.287,0.052 -0.272,-0.017 -0.536,0.103 -0.268,0.125 -0.436,0.125 -0.514,0.139 -0.077,0.018 -0.199,-0.007 -0.262,0.034 -0.059,0.038 -0.066,0.038 -0.344,0.165 -0.282,0.132 -0.289,0.015 -0.456,0.015 -0.167,0 -0.249,-0.025 -0.423,-0.015 -0.179,0 -0.415,-0.058 -0.609,-0.127 -0.194,-0.066 -0.231,-0.054 -0.393,-0.059 -0.166,-0.007 -0.144,0.056 -0.203,0.159 -0.059,0.103 -0.11,0.213 -0.162,0.462 -0.053,0.242 0.102,0.277 0.174,0.463 0.076,0.179 0.18,0.199 0.331,0.327 0.153,0.129 0.263,0.142 0.366,0.238 0.101,0.097 0.128,0.215 0.273,0.411 0.139,0.196 0.277,0.255 0.379,0.479 0.1,0.221 -0.01,0.121 0.112,0.296 0.126,0.17 0.142,0.224 0.25,0.366 0.104,0.138 0.241,0.18 0.362,0.352 0.119,0.167 0.157,0.167 0.286,0.283 0.132,0.109 0.254,0.179 0.311,0.338 0.064,0.156 0.385,0.33 0.528,0.517 0.148,0.194 0.066,0.159 0.157,0.266 0.098,0.107 0.119,0.163 0.236,0.273 0.114,0.118 0.196,0.196 0.19,0.31 -0.01,0.117 -0.021,0.062 -0.114,0.22 -0.094,0.16 0.016,0.163 -0.058,0.243 -0.075,0.082 -0.151,0.192 -0.215,0.276 -0.063,0.084 -0.148,0.13 -0.289,0.274 -0.14,0.153 -0.275,0.237 -0.395,0.25 C -5.247,5.892 -5.238,5.875 -5.4,5.866 -5.562,5.854 -5.566,5.917 -5.81,5.812 -6.049,5.706 -5.952,5.754 -6.269,5.799 -6.582,5.844 -6.43,5.751 -6.676,5.806 -6.918,5.866 -7.007,5.914 -7.082,5.872 -7.158,5.824 -7.066,5.76 -7.013,5.667 -6.958,5.583 -6.934,5.471 -6.877,5.413 -6.817,5.35 -6.746,5.333 -6.661,5.169 -6.572,5.006 -6.546,4.833 -6.459,4.646 -6.374,4.46 -6.422,4.475 -6.601,4.257 -6.783,4.036 -6.663,4.151 -6.782,3.939 -6.902,3.733 -6.895,3.692 -7.114,3.525 -7.334,3.357 -7.376,3.294 -7.472,3.021 -7.572,2.754 -7.589,2.796 -7.785,2.629 -7.981,2.457 -7.937,2.453 -8.034,2.302 -8.136,2.154 -8.176,2.147 -8.44,1.994 -8.705,1.849 -8.53,1.946 -8.694,1.888 -8.859,1.83 -8.84,1.897 -8.924,2.049 c -0.085,0.159 -0.04,0.118 -0.06,0.207 -0.021,0.087 0.015,0.077 0.009,0.167 -0.009,0.088 -0.027,0.179 -0.077,0.293 -0.044,0.119 -0.092,0.241 -0.169,0.41 -0.076,0.168 -0.149,0.268 -0.169,0.303 -0.018,0.032 -0.124,0.215 -0.232,0.421 -0.109,0.221 -0.168,0.353 -0.179,0.421 -0.006,0.073 -0.077,0.241 -0.115,0.373 -0.041,0.13 -0.005,0.137 -0.058,0.275 -0.049,0.138 -0.152,0.228 -0.084,0.366 0.07,0.145 0.051,0.353 0.049,0.414 -0.005,0.055 -0.038,0.08 -0.083,0.118 -0.038,0.049 -0.119,0.082 -0.19,0.206 -0.075,0.128 -0.08,0.206 -0.151,0.334 -0.071,0.128 -0.178,0.302 -0.255,0.436 -0.08,0.137 -0.084,0.265 -0.084,0.364 0,0.102 -0.073,0.139 -0.126,0.232 -0.053,0.09 -0.06,0.073 -0.176,0.291 -0.118,0.213 0.016,0.085 -0.186,0.248 -0.196,0.157 -0.151,0.028 -0.329,0.173 -0.173,0.144 -0.337,0.196 -0.494,0.203 -0.163,0.009 -0.22,-0.014 -0.312,0.019 -0.086,0.031 -0.181,0.07 -0.353,0.132 -0.172,0.063 -0.304,0.08 -0.41,0.093 -0.107,0.015 -0.096,0.003 -0.435,-0.007 -0.34,-0.017 -0.312,-0.187 -0.358,-0.272 -0.044,-0.085 -0.073,-0.145 -0.198,-0.4 -0.12,-0.256 0.04,-0.549 0.084,-0.619 0.038,-0.067 0.157,-0.206 0.243,-0.337 0.084,-0.138 0.11,-0.113 0.255,-0.283 0.145,-0.173 0.198,-0.352 0.245,-0.459 0.047,-0.099 0.008,-0.154 0.125,-0.299 0.112,-0.153 0.21,-0.324 0.282,-0.362 0.074,-0.032 0.229,-0.321 0.305,-0.446 0.081,-0.123 0.281,-0.427 0.376,-0.589 0.093,-0.16 0.233,-0.462 0.33,-0.687 0.098,-0.214 0.333,-0.6 0.42,-0.751 0.085,-0.153 0.112,-0.16 0.213,-0.311 0.101,-0.163 0.222,-0.401 0.284,-0.518 0.063,-0.117 0.148,-0.297 0.29,-0.538 0.142,-0.238 0.131,-0.393 0.18,-0.537 0.049,-0.145 0.087,-0.19 0.235,-0.443 0.147,-0.251 0.175,-0.314 0.235,-0.489 0.059,-0.18 0.006,-0.093 0.036,-0.243 0.026,-0.151 -0.045,-0.061 -0.225,-0.275 -0.187,-0.213 -0.194,-0.31 -0.308,-0.451 -0.112,-0.141 -0.214,-0.173 -0.334,-0.398 -0.118,-0.228 -0.133,-0.1 -0.285,-0.405 -0.157,-0.305 -0.179,-0.266 -0.408,-0.571 -0.233,-0.299 -0.154,-0.221 -0.282,-0.417 -0.126,-0.193 -0.044,-0.087 -0.232,-0.283 -0.192,-0.193 -0.235,-0.247 -0.265,-0.344 -0.027,-0.09 -0.358,-0.294 -0.429,-0.331 -0.072,-0.048 -0.161,-0.08 -0.388,-0.208 -0.228,-0.134 -0.128,-0.11 -0.15,-0.213 -0.024,-0.098 -0.176,-0.153 -0.202,-0.252 -0.022,-0.1 0.002,-0.21 0.033,-0.414 0.025,-0.207 0.121,-0.445 0.087,-0.698 -0.038,-0.247 0.104,-0.468 0.221,-0.716 0.116,-0.246 0.144,-0.141 0.407,-0.156 0.264,-0.007 0.284,0.015 0.574,0.008 0.293,-0.008 0.293,-0.063 0.472,0.048 0.181,0.1 0.233,0.193 0.415,0.451 0.184,0.259 0.201,0.474 0.209,0.642 0.01,0.166 0.152,0.273 0.282,0.469 0.125,0.197 0.025,0.176 0.061,0.397 0.036,0.221 0.076,0.165 0.258,0.428 0.177,0.269 0.152,0.251 0.3,0.42 0.149,0.173 0.144,0.293 0.291,0.536 0.147,0.237 0.035,0.251 0.09,0.417 0.049,0.171 0.097,0.199 0.233,0.316 0.133,0.118 0.255,-0.02 0.314,-0.068 0.06,-0.052 0.207,-0.276 0.293,-0.428 0.09,-0.159 0.139,-0.391 0.15,-0.462 0.008,-0.07 -0.06,-0.214 -0.009,-0.321 0.048,-0.111 0.15,-0.52 0.218,-0.7 0.062,-0.173 -0.157,-0.324 -0.11,-0.469 0.042,-0.144 -0.07,-0.51 -0.052,-0.6 0.014,-0.09 -0.193,-0.497 -0.262,-0.591 -0.074,-0.096 -0.219,-0.52 -0.279,-0.703 -0.06,-0.179 -0.257,-0.535 -0.362,-0.665 -0.105,-0.128 -0.174,-0.118 -0.292,-0.24 -0.117,-0.12 -0.27,-0.222 -0.491,-0.389 -0.226,-0.157 -0.481,-0.289 -0.65,-0.441 -0.172,-0.146 -0.262,-0.201 -0.453,-0.324 -0.198,-0.118 -0.153,-0.069 -0.126,-0.16 0.023,-0.092 0.084,-0.186 0.153,-0.254 0.069,-0.066 0.151,-0.09 0.329,-0.159 0.18,-0.075 0.272,-0.113 0.47,-0.145 0.201,-0.027 0.167,0.121 0.469,0.058 0.297,-0.061 0.19,-0.065 0.469,0.09 0.278,0.156 0.354,0.131 0.551,0.295 0.202,0.16 0.247,0.24 0.321,0.267 0.073,0.028 0.223,0.073 0.331,0.173 0.108,0.096 0.012,0.125 0.138,0.289 0.123,0.16 0.135,0.292 0.326,0.474 0.191,0.175 0.071,0.213 0.175,0.365 0.098,0.15 0.14,0.287 0.267,0.542 0.125,0.244 0.216,0.661 0.305,0.799 0.086,0.132 0.002,0.388 0.079,0.616 0.075,0.229 0.11,0.524 0.122,0.723 0.01,0.197 0.044,0.241 0.081,0.341 0.032,0.093 -0.03,0.404 -0.05,0.59 -0.021,0.193 -0.051,0.476 -0.052,0.594 -0.004,0.125 -0.016,0.122 -0.018,0.279 -0.003,0.159 -0.044,0.135 -0.061,0.418 -0.022,0.276 -0.06,0.254 -0.071,0.379 -0.013,0.125 -0.109,0.359 -0.011,0.475 0.093,0.109 0.135,0.077 0.254,0.067 0.117,-0.01 0.234,-0.141 0.295,-0.183 0.06,-0.041 0.366,-0.224 0.454,-0.324 0.091,-0.1 0.577,-0.353 0.689,-0.401 0.114,-0.048 0.309,-0.216 0.444,-0.241 0.134,-0.02 0.417,-0.244 0.545,-0.366 0.129,-0.116 0.443,-0.347 0.53,-0.375 0.089,-0.024 0.381,-0.162 0.523,-0.219 0.137,-0.054 0.28,-0.054 0.459,-0.199 0.174,-0.145 0.379,-0.164 0.512,-0.2 0.137,-0.035 0.514,-0.076 0.675,-0.124 0.159,-0.052 0.446,0.048 0.807,-0.02 0.359,-0.077 0.676,0.372 0.75,0.499 0.076,0.127 0.029,0.121 0.1,0.314 0.068,0.193 0.144,0.297 0.226,0.401 0.083,0.102 0.093,0.234 0.093,0.399 0,0.166 0.161,0.194 0.161,0.384 0,0.196 0.003,0.34 0.052,0.51 0.044,0.165 0.173,0.386 0.175,0.604 0.002,0.213 0.195,0.379 0.167,0.578 C 0.51,-0.084 0.47,-0.071 0.379,0.048 0.286,0.177 0.16,0.063 0,0"
       style="fill:#6e2772;fill-opacity:1;fill-rule:evenodd;stroke:none"
       transform="matrix(0.5333647,0,0,-0.5333647,153.68086,154.50746)"
       clip-path="url(#clipPath156)" />
    <path
       id="path157"
       d="m 0,0 c -21.449,8.255 -36.599,26.169 -38.359,48.667 0.299,-0.021 0.599,-0.042 0.903,-0.042 5.71,0 10.363,4.605 10.363,10.249 0,5.069 -4.123,9.335 -9.018,10.148 2.13,7.132 5.633,13.435 9.768,19.625 4.608,-2.443 11.908,-3.165 18.514,-0.414 3.047,1.269 5.699,3.054 7.829,5.058 2.127,-2.004 4.783,-3.789 7.833,-5.058 6.605,-2.751 13.916,-2.029 18.524,0.414 4.138,-6.19 7.642,-12.493 9.772,-19.625 -4.895,-0.813 -9.023,-5.079 -9.023,-10.148 0,-5.644 4.662,-10.249 10.372,-10.249 0.306,0 0.606,0.021 0.903,0.042 C 36.616,26.169 21.46,8.255 0,0 m 42.075,54.078 c -0.965,-0.841 -2.181,-1.409 -3.52,-1.59 -0.293,-0.035 -0.589,-0.059 -0.889,-0.059 -3.695,0 -6.575,2.534 -6.575,6.191 0,4.734 5.187,7.313 9.51,5.553 -2.116,9.119 -6.146,18.57 -11.033,25.677 -0.819,1.186 -1.701,2.468 -2.538,3.49 C 19.717,84.855 5.09,91.077 0,99.12 -5.584,91.43 -19.34,84.426 -27.016,93.34 c -0.833,-1.022 -1.722,-2.304 -2.534,-3.49 -4.884,-7.107 -8.91,-16.558 -11.026,-25.677 4.315,1.76 9.502,-0.819 9.502,-5.553 0,-3.657 -2.875,-6.191 -6.574,-6.191 -0.3,0 -0.593,0.024 -0.882,0.059 -1.342,0.181 -2.555,0.749 -3.524,1.59 -0.028,-0.432 -0.056,-0.869 -0.077,-1.301 0.122,-26.106 18.19,-47.984 42.113,-56.713 23.921,8.388 42.051,30.896 42.177,56.713 -0.024,0.432 -0.049,0.869 -0.084,1.301"
       style="fill:#6e2772;fill-opacity:1;fill-rule:evenodd;stroke:none"
       transform="matrix(0.5333647,0,0,-0.5333647,133.21661,149.20897)"
       clip-path="url(#clipPath158)" />
    <path
       id="path159"
       d="m 0,0 c -0.502,0 -0.971,-0.222 -1.392,-0.66 -0.431,-0.447 -0.752,-1.077 -0.951,-1.87 -0.177,-0.702 -0.159,-1.269 0.052,-1.683 0.204,-0.402 0.556,-0.597 1.075,-0.597 0.337,0 0.665,0.063 0.977,0.186 0.004,10e-4 0.007,0.002 0.01,0.003 0.569,0.228 0.882,0.773 1.106,1.345 0.29,0.738 0.419,1.815 0.144,2.463 C 0.797,-0.283 0.509,0 0,0"
       style="fill:#6e2772;fill-opacity:1;fill-rule:nonzero;stroke:none"
       transform="matrix(0.5333647,0,0,-0.5333647,131.68164,135.74386)"
       clip-path="url(#clipPath160)" />
    <path
       id="path161"
       d="m 0,0 c -0.153,-0.197 -0.32,-0.364 -0.494,-0.497 -0.214,-0.164 -0.437,-0.288 -0.662,-0.37 -0.169,-0.061 -0.346,-0.091 -0.528,-0.089 -0.064,0.001 -0.128,0.006 -0.194,0.014 -0.277,0.038 -0.53,0.114 -0.752,0.229 -0.217,0.112 -0.417,0.23 -0.595,0.351 -0.177,0.122 -0.356,0.237 -0.531,0.341 -0.169,0.099 -0.346,0.162 -0.526,0.187 -0.239,0.031 -0.441,-0.022 -0.617,-0.165 -0.183,-0.148 -0.384,-0.364 -0.604,-0.703 0,0 -0.019,0.01 -0.046,0.025 l -0.419,0.235 c -0.027,0.015 -0.054,0.03 -0.054,0.03 0.07,0.141 0.215,0.355 0.372,0.545 0.155,0.19 0.323,0.357 0.498,0.497 0.173,0.142 0.387,0.262 0.637,0.354 0.253,0.094 0.502,0.124 0.742,0.093 0.285,-0.039 0.541,-0.116 0.76,-0.23 0.215,-0.112 0.416,-0.23 0.597,-0.351 0.192,-0.131 0.368,-0.246 0.521,-0.343 0.151,-0.095 0.328,-0.157 0.526,-0.184 0.251,-0.033 0.46,0.025 0.641,0.178 0.188,0.159 0.404,0.421 0.58,0.691 0,0 0.018,-0.011 0.045,-0.026 L 0.316,0.577 C 0.345,0.561 0.368,0.549 0.368,0.549 0.295,0.414 0.152,0.195 0,0 M -6.283,2.201 C -6.37,1.856 -6.502,1.538 -6.674,1.255 -6.849,0.969 -7.081,0.713 -7.364,0.496 -7.671,0.258 -8.016,0.051 -8.388,-0.118 c -0.367,-0.167 -0.911,-0.394 -1.664,-0.695 -0.433,-0.175 -0.85,-0.361 -1.237,-0.553 -0.21,-0.104 -0.402,-0.207 -0.576,-0.308 h 4.982 c 0,0 -0.395,-1.493 -0.395,-1.486 h -6.679 c 0,0 0.302,1.146 0.315,1.168 0.163,0.145 0.381,0.31 0.649,0.488 0.262,0.175 0.575,0.369 0.93,0.575 0.213,0.123 0.471,0.261 0.764,0.407 0.293,0.146 0.623,0.306 0.991,0.48 0.401,0.187 0.718,0.354 0.944,0.497 0.22,0.139 0.436,0.315 0.641,0.521 0.131,0.131 0.253,0.299 0.365,0.499 0.11,0.2 0.214,0.493 0.31,0.873 0.131,0.52 0.093,0.901 -0.113,1.13 -0.21,0.235 -0.538,0.355 -0.975,0.355 -0.278,0 -0.558,-0.056 -0.835,-0.165 -0.033,-0.013 -0.066,-0.027 -0.098,-0.042 -0.327,-0.148 -0.538,-0.472 -0.543,-0.831 V 2.79 c -0.003,-0.21 -0.031,-0.418 -0.08,-0.619 -0.052,-0.203 -0.18,-0.383 -0.381,-0.536 -0.2,-0.152 -0.46,-0.229 -0.771,-0.229 -0.349,0 -0.511,0.168 -0.586,0.308 -0.099,0.186 -0.112,0.432 -0.038,0.728 0.067,0.263 0.207,0.53 0.417,0.793 0.207,0.257 0.473,0.497 0.79,0.714 0.313,0.212 0.679,0.385 1.091,0.516 0.412,0.131 0.845,0.198 1.285,0.198 0.965,0 1.692,-0.223 2.159,-0.662 0.481,-0.45 0.63,-1.056 0.443,-1.8 m -9.856,-4.219 c 0.029,-0.091 0.081,-0.153 0.166,-0.196 0.062,-0.03 0.203,-0.077 0.508,-0.124 0.253,-0.04 0.61,-0.075 0.734,-0.079 L -14.93,-3.16 h -4.882 l 0.201,0.754 c 0.137,0.01 0.448,0.029 0.742,0.058 0.288,0.029 0.489,0.058 0.599,0.088 0.129,0.039 0.235,0.1 0.321,0.187 0.084,0.085 0.148,0.219 0.194,0.4 l 1.22,4.631 h -1.67 l 0.229,0.843 h 0.376 c 0.472,0 0.922,0.089 1.34,0.263 0.418,0.175 0.736,0.364 0.945,0.561 0.024,0.024 0.057,0.038 0.092,0.038 h 0.751 C -14.56,4.367 -14.716,3.848 -14.829,3.452 -14.941,3.057 -15.037,2.703 -15.116,2.39 l -1.02,-4.054 c -0.033,-0.134 -0.035,-0.253 -0.003,-0.354 m -6.654,40.512 V 10.311 h -16.705 v 5.692 h 11.137 v 22.521 h -5.451 V 22.827 h -5.686 v 21.377 h 16.705 v 5.957 h -16.705 v 5.686 H -0.401 V 50.161 H -17.106 V 44.204 H -0.401 V 22.827 h -5.687 v 15.697 h -5.45 V 16.003 H -0.401 V 10.311 H -17.106 V 38.494 Z M -20.24,0.465 c -0.201,-0.802 -0.523,-1.567 -0.954,-2.274 -0.431,-0.707 -0.959,-1.337 -1.569,-1.872 -0.597,-0.525 -1.285,-0.968 -2.043,-1.316 -0.759,-0.348 -1.681,-0.595 -2.538,-0.706 -0.006,-10e-4 0.245,0.922 0.245,0.922 l 0.493,0.084 c 1.018,0.3 1.894,0.77 2.587,1.396 0.593,0.533 1.083,1.198 1.461,1.981 -0.323,-0.199 -0.636,-0.353 -0.936,-0.461 -0.422,-0.153 -0.878,-0.23 -1.357,-0.23 -0.785,0 -1.401,0.311 -1.83,0.925 -0.424,0.608 -0.523,1.38 -0.294,2.294 0.244,0.967 0.782,1.793 1.599,2.455 0.818,0.663 1.722,1 2.684,1 1.062,0 1.827,-0.388 2.272,-1.153 0.439,-0.753 0.499,-1.777 0.18,-3.045 m -9.835,-2.483 c 0.029,-0.091 0.082,-0.153 0.167,-0.196 0.061,-0.03 0.202,-0.077 0.507,-0.124 0.253,-0.04 0.61,-0.075 0.733,-0.079 l -0.197,-0.743 h -4.884 l 0.202,0.754 c 0.138,0.01 0.447,0.029 0.742,0.058 0.288,0.029 0.49,0.058 0.599,0.088 0.129,0.039 0.235,0.1 0.321,0.187 0.083,0.085 0.149,0.219 0.194,0.4 l 1.22,4.631 h -1.67 l 0.229,0.843 h 0.376 c 0.472,0 0.923,0.089 1.34,0.263 0.419,0.175 0.736,0.364 0.945,0.561 0.024,0.024 0.058,0.038 0.092,0.038 h 0.752 C -28.495,4.367 -28.651,3.848 -28.765,3.452 -28.877,3.057 -28.974,2.703 -29.052,2.39 l -1.019,-4.054 c -0.034,-0.134 -0.035,-0.253 -0.004,-0.354 m -4.548,1.151 c -0.169,-0.061 -0.346,-0.091 -0.528,-0.089 -0.064,0.001 -0.129,0.006 -0.194,0.014 -0.278,0.038 -0.53,0.114 -0.752,0.229 -0.216,0.112 -0.417,0.23 -0.594,0.351 -0.179,0.122 -0.357,0.237 -0.532,0.341 -0.169,0.099 -0.346,0.162 -0.526,0.187 -0.239,0.031 -0.441,-0.022 -0.617,-0.165 -0.183,-0.148 -0.384,-0.364 -0.604,-0.703 0,0 -0.019,0.01 -0.046,0.025 l -0.419,0.235 c -0.027,0.015 -0.054,0.03 -0.054,0.03 0.07,0.141 0.215,0.355 0.371,0.545 0.156,0.19 0.324,0.357 0.499,0.497 0.172,0.142 0.387,0.262 0.637,0.354 0.253,0.094 0.503,0.124 0.742,0.093 0.285,-0.039 0.541,-0.116 0.76,-0.23 0.215,-0.112 0.417,-0.23 0.597,-0.351 0.193,-0.131 0.368,-0.246 0.522,-0.343 0.15,-0.095 0.326,-0.157 0.525,-0.184 0.251,-0.033 0.46,0.025 0.641,0.178 0.188,0.159 0.404,0.421 0.579,0.691 0,0 0.019,-0.011 0.047,-0.026 l 0.419,-0.235 c 0.027,-0.016 0.051,-0.028 0.051,-0.028 -0.073,-0.135 -0.216,-0.354 -0.368,-0.549 -0.154,-0.197 -0.32,-0.364 -0.494,-0.497 -0.214,-0.164 -0.436,-0.288 -0.662,-0.37 m 37.887,38.1 c 0,5.521 3.494,10.76 8.196,13.058 -1.744,4.672 -4.007,9.115 -6.611,13.105 -4.067,-2.393 -11.331,-2.257 -18.568,0.753 -2.22,0.926 -4.26,2.069 -6.239,3.43 -2.074,-1.308 -3.96,-2.481 -6.234,-3.43 -7.23,-3.01 -14.496,-3.146 -18.556,-0.753 -2.598,-3.99 -4.86,-8.433 -6.611,-13.105 4.702,-2.298 8.202,-7.537 8.202,-13.058 0,-6.658 -4.973,-11.808 -11.272,-13.257 3.212,-18.155 17.371,-34.883 33.899,-41.495 0.188,-0.07 0.378,-0.158 0.572,-0.217 16.97,5.904 31.406,24.258 34.493,41.712 C 8.236,25.425 3.264,30.575 3.264,37.233"
       style="fill:#6e2772;fill-opacity:1;fill-rule:nonzero;stroke:none"
       transform="matrix(0.5333647,0,0,-0.5333647,143.86466,137.79917)"
       clip-path="url(#clipPath162)" />
  </g>
</svg>
